<svg xmlns="http://www.w3.org/2000/svg" xmlns:xlink="http://www.w3.org/1999/xlink" width="544" height="366" fill="none" xmlns:v="https://vecta.io/nano"><style><![CDATA[.B{fill:#fff}.C{fill:#eee}.D{stroke-linejoin:round}.E{fill:#f8f8f8}.F{fill:#d3dae3}.G{fill:#092340}.H{stroke-linecap:round}.I{fill:#202020}.J{stroke:#000}.K{stroke-width:.5}.L{stroke-width:.449}.M{stroke-width:.673}.N{stroke:#092340}.O{stroke-width:2}.P{stroke:#7f8c9b}.Q{fill:#e6d444}.R{fill:#d0d3dd}.S{stroke:#202020}.T{color-interpolation-filters:sRGB}.U{flood-opacity:0}.V{shape-rendering:crispEdges}]]></style><g clip-path="url(#F)"><g clip-path="url(#G)"><g class="B"><rect y="60.28" width="506.838" height="305" rx="3.588"/><path d="M403.676 60.28h103.162v305H403.676z"/></g><path d="M403.676 60.28h103.162v17.941H403.676z" class="G"/><g clip-path="url(#H)" class="B"><path d="M409.956 66.111h1.76l2.644 4.629-.884 1.552-3.52-6.181z"/><path d="M415.232 69.201l-1.747-.002 1.739-3.088.884 1.545-.876 1.545zm4.665 3.096h-1.147V72c-.208.221-.573.39-.98.39-.815 0-1.629-.509-1.629-1.585 0-.983.781-1.474 1.77-1.474.399 0 .656.085.839.178v-.221c0-.314-.208-.568-.623-.568-.524 0-.798.076-1.197.297l-.441-.814a2.89 2.89 0 0 1 1.637-.449c1.056 0 1.77.559 1.77 1.559v2.983h.001zm-1.147-1.305v-.559c-.199-.127-.39-.186-.798-.186-.432 0-.665.203-.665.559 0 .314.175.593.665.593.374 0 .673-.195.798-.407zm3.446 1.3h-1.166v-5.596l1.166-.585v6.181zm4.889-2.215c0 1.364-.84 2.314-1.979 2.314s-1.971-.949-1.971-2.314.831-2.322 1.971-2.322 1.979.958 1.979 2.322zm-1.164 0c0-.678-.267-1.195-.815-1.195s-.807.509-.807 1.195.258 1.186.807 1.186.815-.568.815-1.186zm5.439.923c0 1.025-.803 1.39-1.789 1.39-.693 0-1.37-.203-1.838-.517l.384-.89a3.03 3.03 0 0 0 1.521.407c.451 0 .585-.11.585-.339 0-.203-.159-.305-.643-.449-1.053-.322-1.73-.585-1.73-1.526 0-.924.727-1.322 1.755-1.322.551 0 1.153.169 1.621.432l-.368.924c-.434-.237-.91-.356-1.278-.356-.468 0-.594.093-.594.288 0 .186.134.263.911.517.786.262 1.463.55 1.463 1.44zm4.565 1.297h-1.157V72c-.209.221-.578.39-.989.39-.821 0-1.643-.509-1.643-1.585 0-.983.788-1.474 1.785-1.474.403 0 .662.085.847.178v-.221c0-.314-.209-.568-.628-.568a2.15 2.15 0 0 0-1.208.297l-.444-.814a2.93 2.93 0 0 1 1.651-.449c1.065 0 1.785.559 1.785 1.559v2.983h.001zm-1.157-1.305v-.559c-.201-.127-.394-.186-.805-.186-.435 0-.67.203-.67.559 0 .314.176.593.67.593.378 0 .679-.195.805-.407zm6.014 1.299h-1.149v-2.404c0-.796-.266-1.033-.741-1.033s-.749.237-.749 1.007v2.429h-1.149v-4.444h1.149v.296c.199-.212.566-.389 1.024-.389 1.115 0 1.615.778 1.615 2.031v2.505z"/></g><g class="E"><path d="M403.676 157.611h103.162v.449H403.676zm0 40.816h103.162v.449H403.676zm0 34.088h103.162v.449H403.676z"/></g><g class="F"><rect x="436.868" y="172.412" width="41.265" height="6.279" rx="3.14"/><rect x="409.956" y="182.729" width="46.199" height="6.279" rx="3.14"/><rect x="409.956" y="172.412" width="21.529" height="6.279" rx="3.14"/></g><rect x="407.713" y="212.78" width="95.537" height="12.559" rx="2.691" fill="#f5f5f5"/><g clip-path="url(#I)" class="D H L P"><path d="M499.077 217.863l-1.837 2.005c-.144.156-.382.156-.525 0l-1.838-2.005"/></g><path d="M0 60.28h21.529v305H0z" class="G"/><path d="M89.706 60.28h313.971v305H89.706z" class="E"/><g fill="#f5f5f5"><rect x="24.221" y="63.868" width="62.794" height="10.765" rx="2.691"/><rect x="24.669" y="112.758" width="62.794" height="10.765" rx="2.691"/></g><path d="M83.258 119.318l1.177 1.177m-4.709-2.691a2.02 2.02 0 0 0 .154.772c.101.245.25.468.438.655a2.02 2.02 0 0 0 .655.438c.245.101.507.153.772.153s.528-.052.772-.153a2.02 2.02 0 0 0 .655-.438c.187-.187.336-.41.438-.655a2.02 2.02 0 0 0-.437-2.199c-.379-.379-.892-.591-1.427-.591s-1.049.212-1.427.591a2.02 2.02 0 0 0-.591 1.427h0z" class="D H M P"/><use xlink:href="#P" class="E"/><circle cx="26.687" cy="133.615" r="2.018" class="F"/><g class="C"><rect x="32.743" y="131.596" width="54.272" height="4.037" rx="1.794"/><rect x="32.743" y="138.773" width="34.088" height="4.037" rx="1.794"/></g><g class="E"><path d="M21.978 109.17h68.176v.449H21.978zm-.449 36.779h68.176v.449H21.529z"/></g><circle cx="26.687" cy="152.453" r="2.018" class="F"/><g class="C"><rect x="32.743" y="150.434" width="54.272" height="4.037" rx="1.794"/><rect x="32.743" y="157.611" width="34.088" height="4.037" rx="1.794"/></g><path d="M21.529 164.787h68.176v.449H21.529z" class="E"/><circle cx="26.687" cy="171.291" r="2.018" class="F"/><g class="C"><rect x="32.743" y="169.273" width="54.272" height="4.037" rx="1.794"/><rect x="32.743" y="176.449" width="34.088" height="4.037" rx="1.794"/></g><path d="M21.529 183.626h68.176v.449H21.529z" class="E"/><circle cx="26.687" cy="190.129" r="2.018" class="F"/><g class="C"><rect x="32.743" y="188.111" width="54.272" height="4.037" rx="1.794"/><rect x="32.743" y="195.287" width="34.088" height="4.037" rx="1.794"/></g><path d="M21.529 202.464h68.176v.449H21.529z" class="E"/><circle cx="26.687" cy="208.968" r="2.018" class="F"/><g class="C"><rect x="32.743" y="206.949" width="54.272" height="4.037" rx="1.794"/><rect x="32.743" y="214.126" width="34.088" height="4.037" rx="1.794"/></g><path d="M21.529 221.302h68.176v.449H21.529z" class="E"/><circle cx="26.687" cy="227.806" r="2.018" class="F"/><g class="C"><rect x="32.743" y="225.787" width="54.272" height="4.037" rx="1.794"/><rect x="32.743" y="232.964" width="34.088" height="4.037" rx="1.794"/></g><path d="M21.529 240.14h68.176v.449H21.529z" class="E"/><circle cx="26.687" cy="246.644" r="2.018" class="F"/><g class="C"><rect x="32.743" y="244.626" width="54.272" height="4.037" rx="1.794"/><rect x="32.743" y="251.802" width="34.088" height="4.037" rx="1.794"/></g><path d="M21.529 258.979h68.176v.449H21.529z" class="E"/><circle cx="26.687" cy="265.482" r="2.018" class="F"/><g class="C"><rect x="32.743" y="263.464" width="54.272" height="4.037" rx="1.794"/><rect x="32.743" y="270.64" width="34.088" height="4.037" rx="1.794"/></g><path d="M21.529 277.817h68.176v.449H21.529z" class="E"/><circle cx="26.687" cy="284.32" r="2.018" class="F"/><g class="C"><rect x="32.743" y="282.302" width="54.272" height="4.037" rx="1.794"/><rect x="32.743" y="289.479" width="34.088" height="4.037" rx="1.794"/></g><path d="M21.529 296.655h68.176v.449H21.529z" class="E"/><circle cx="26.687" cy="303.159" r="2.018" class="F"/><g class="C"><rect x="32.743" y="301.14" width="54.272" height="4.037" rx="1.794"/><rect x="32.743" y="308.317" width="34.088" height="4.037" rx="1.794"/></g><path d="M21.529 315.493h68.176v.449H21.529z" class="E"/><circle cx="26.687" cy="321.997" r="2.018" class="F"/><g class="C"><rect x="32.743" y="319.979" width="54.272" height="4.037" rx="1.794"/><rect x="32.743" y="327.155" width="34.088" height="4.037" rx="1.794"/></g><path d="M21.529 334.332h68.176v.449H21.529z" class="E"/><circle cx="26.687" cy="340.835" r="2.018" class="F"/><g class="C"><rect x="32.743" y="338.817" width="54.272" height="4.037" rx="1.794"/><rect x="32.743" y="345.993" width="34.088" height="4.037" rx="1.794"/></g><path d="M21.529 353.17h68.176v.449H21.529z" class="E"/><circle cx="26.687" cy="359.673" r="2.018" class="F"/><g class="C"><rect x="32.743" y="357.655" width="54.272" height="4.037" rx="1.794"/><rect x="32.743" y="364.832" width="34.088" height="4.037" rx="1.794"/><rect x="431.485" y="84.052" width="68.625" height="8.971" rx="1.346"/><rect x="409.956" y="120.831" width="56.066" height="3.588" rx="1.794"/><rect x="431.485" y="96.162" width="56.066" height="3.588" rx="1.794"/><rect x="407.713" y="238.346" width="95.537" height="3.588" rx="1.794"/><rect x="407.713" y="245.074" width="95.537" height="3.588" rx="1.794"/><rect x="407.713" y="251.802" width="95.537" height="3.588" rx="1.794"/><rect x="407.713" y="258.979" width="33.191" height="3.588" rx="1.794"/><rect x="410.404" y="137.876" width="44.404" height="3.588" rx="1.794"/><rect x="407.713" y="203.361" width="33.191" height="3.588" rx="1.794"/><circle cx="418.03" cy="89.883" r="8.074"/><circle cx="436.868" cy="110.067" r="5.382"/><circle cx="472.75" cy="110.067" r="5.382"/><circle cx="454.809" cy="110.067" r="5.382"/></g><g clip-path="url(#J)" class="D H L P"><path d="M83.436 68.802l-1.378 1.503c-.108.117-.286.117-.394 0l-1.378-1.503"/></g><g clip-path="url(#K)" class="B"><path d="M11.329 78.565l1.151-1.995-3.442-5.951h-2.29l4.581 7.946zm2.302-3.979l-2.294-.003 2.283-3.965 1.162 1.984-1.151 1.984z"/></g><circle cx="11.213" cy="95.714" r="6.279" fill="#faec22"/><rect x="113.478" y="70.596" width="273.603" height="17.941" rx="1.794" class="C"/><circle cx="123.794" cy="79.567" r="5.382" class="B"/><rect x="113.478" y="95.714" width="273.603" height="17.941" rx="1.794" class="C"/><circle cx="123.794" cy="104.684" r="5.382" class="B"/><rect x="113.478" y="190.802" width="273.603" height="17.941" rx="1.794" class="C"/><circle cx="123.794" cy="199.773" r="5.382" class="B"/><rect x="113.478" y="312.802" width="273.603" height="17.941" rx="1.794" class="C"/><circle cx="123.794" cy="321.773" r="5.382" class="B"/><rect x="113.478" y="337.92" width="273.603" height="17.941" rx="1.794" class="C"/><circle cx="123.794" cy="346.89" r="5.382" class="B"/><g clip-path="url(#L)"><rect x="140.39" y="120.831" width="246.691" height="62.794" rx=".897" class="B"/><path d="M140.39 120.831h73.11v49.338h-73.11z" class="C"/><path d="M140.39 170.17h246.691v13.456H140.39z" class="B"/><path d="M140.39 169.721h246.691v.449H140.39z" class="E"/><g class="C"><rect x="145.772" y="174.655" width="54.272" height="4.485" rx="1.794"/><rect x="327.875" y="174.655" width="54.272" height="4.485" rx="1.794"/></g></g><rect x="140.614" y="121.056" width="246.243" height="62.346" rx=".673" stroke="#eee" class="L"/><path d="M12.11 118.32v-2.602c0-.071.028-.14.079-.19s.119-.079.19-.079h2.601c.071 0 .14.028.19.079s.079.119.079.19v2.602c0 .071-.028.14-.079.19s-.119.079-.19.079h-2.601c-.071 0-.14-.029-.19-.079s-.079-.119-.079-.19h0zm-4.934 0v-2.602c0-.071.028-.14.079-.19s.119-.079.19-.079h2.602c.071 0 .14.028.19.079s.079.119.079.19v2.602c0 .071-.028.14-.079.19s-.119.079-.19.079H7.445c-.071 0-.14-.029-.19-.079s-.079-.119-.079-.19h0zm4.934-4.934v-2.602a.27.27 0 0 1 .079-.19c.05-.05.119-.079.19-.079h2.601c.071 0 .14.029.19.079a.27.27 0 0 1 .079.19v2.602c0 .071-.028.14-.079.19s-.119.079-.19.079h-2.601c-.071 0-.14-.028-.19-.079s-.079-.119-.079-.19h0zm-4.934 0v-2.602a.27.27 0 0 1 .079-.19c.05-.05.119-.079.19-.079h2.602c.071 0 .14.029.19.079a.27.27 0 0 1 .079.19v2.602c0 .071-.028.14-.079.19s-.119.079-.19.079H7.445c-.071 0-.14-.028-.19-.079s-.079-.119-.079-.19h0z" stroke="#e0e0e0" class="M"/><g clip-path="url(#M)" stroke="#e0e0e0" class="D M"><path d="M10.824 131.99l1.663-1.663" class="H"/><path d="M12.482 130.327l.227-1.496 1.296-1.272.199 1.045 1.045.2-1.272 1.295-1.495.228z"/><g class="H"><path d="M14.823 131.053c.435 1.643-.251 3.381-1.691 4.282s-3.302.77-4.594-.335a3.89 3.89 0 0 1 2.919-6.826"/><path d="M13.097 131.543c.215.865-.144 1.774-.893 2.261s-1.727.442-2.428-.108-.981-1.487-.69-2.333a2.09 2.09 0 0 1 1.978-1.411"/></g></g><g clip-path="url(#N)" stroke="#fff" class="M D"><g class="H"><path d="M9.868 150.345l-1.076.807v-1.615H7.715c-.298 0-.538-.24-.538-.538v-4.306c0-.298.24-.538.538-.538h5.921c.298 0 .538.24.538.538v1.615m-5.382-.538h3.768"/><path d="M8.792 147.385h1.076"/></g><path d="M15.251 150.614h-1.076v1.615l-1.615-1.615h-1.615v-1.615-1.614h4.306v3.229z"/><g class="H"><path d="M14.174 148.461h-2.153m2.153 1.076h-2.153"/></g></g><g class="F"><rect x="409.956" y="130.699" width="90.154" height="3.588" rx="1.794"/><rect x="409.956" y="130.699" width="90.154" height="3.588" rx="1.794"/></g><rect x="409.956" y="130.699" width="62.346" height="3.588" rx="1.794" class="G"/><g class="F"><rect x="410.404" y="145.052" width="90.154" height="3.588" rx="1.794"/><rect x="410.404" y="145.052" width="90.154" height="3.588" rx="1.794"/></g><rect x="410.404" y="145.052" width="26.463" height="3.588" rx="1.794" class="G"/><g clip-path="url(#O)"><path d="M140.39 215.92h246.691v89.706H140.39z" class="B"/><path d="M140.39 291.721h246.691v.449H140.39z" class="E"/><path d="M140.39 292.17h246.691v13.456H140.39z" class="B"/><g class="C"><rect x="145.772" y="296.655" width="54.272" height="4.485" rx="1.794"/><rect x="327.875" y="296.655" width="54.272" height="4.485" rx="1.794"/><rect x="145.772" y="221.751" width="236.375" height="14.353" rx="1.794"/><rect x="145.324" y="242.383" width="236.375" height="6.279" rx="3.14"/><rect x="145.772" y="252.251" width="236.375" height="6.279" rx="3.14"/><rect x="145.772" y="262.118" width="236.375" height="6.279" rx="3.14"/><rect x="145.772" y="271.986" width="86.118" height="6.279" rx="3.14"/></g></g><path stroke="#eee" d="M140.614 216.144h246.243v89.257H140.614z" class="L"/></g></g><path d="M6 60.51h500.608v304.54H6a5.77 5.77 0 0 1-5.77-5.77v-293A5.77 5.77 0 0 1 6 60.51z" stroke="#dddfdd" stroke-width=".46"/><g filter="url(#C)" class="B"><path d="M102 149.184c0-1.604 1.3-2.904 2.904-2.904h37.757c1.604 0 2.904 1.3 2.904 2.904v37.757c0 1.604-1.3 2.904-2.904 2.904h-9.197c-.629 0-1.24.204-1.743.581l-6.196 4.647c-1.032.775-2.452.775-3.485 0l-6.196-4.647c-.503-.377-1.114-.581-1.743-.581h-9.197c-1.604 0-2.904-1.3-2.904-2.904v-37.757z"/></g><path d="M135 159.29s-2.018 1.192-3.14 1.53c-.602-.692-1.403-1.183-2.293-1.406a4.48 4.48 0 0 0-4.794 1.83c-.515.759-.785 1.658-.773 2.576v1a10.65 10.65 0 0 1-9-4.53s-4 9 5 13a11.64 11.64 0 0 1-7 2c9 5 20 0 20-11.5 0-.278-.028-.556-.08-.83 1.02-1.006 2.08-3.67 2.08-3.67z" stroke-width="1.5" class="D N"/><g filter="url(#D)"><rect x="205" y="249.28" width="310" height="75" rx="5" class="B V"/><path d="M239.933 292.08h-7.466l-4.267 3.2v-3.2h-2.133c-.591 0-1.067-.476-1.067-1.067v-10.666c0-.591.476-1.067 1.067-1.067h13.866c.591 0 1.067.476 1.067 1.067v10.666c0 .591-.476 1.067-1.067 1.067z" class="D N"/><path d="M228.2 284.08h9.6" class="D H N"/><path d="M228.2 287.28h7.467" class="D H N"/><path d="M256.112 290.298c0 .644-.232 1.152-.698 1.523s-1.107.557-1.934.557c-.761 0-1.435-.144-2.021-.43v-1.406a8.39 8.39 0 0 0 1.221.454 3.64 3.64 0 0 0 .918.132c.332 0 .586-.064.761-.191s.269-.315.269-.566c0-.14-.039-.264-.117-.371s-.194-.217-.347-.318-.457-.262-.923-.483c-.436-.205-.763-.402-.981-.591a2.23 2.23 0 0 1-.523-.659c-.13-.251-.195-.544-.195-.879 0-.631.213-1.128.64-1.489s1.022-.542 1.777-.542c.371 0 .724.044 1.06.132s.691.211 1.059.371l-.488 1.177c-.381-.157-.697-.266-.947-.328a3.06 3.06 0 0 0-.733-.092c-.286 0-.506.066-.659.2a.66.66 0 0 0-.23.522.66.66 0 0 0 .093.352 1.1 1.1 0 0 0 .293.288c.137.091.458.257.962.498.667.319 1.125.64 1.372.962s.371.711.371 1.177zm6.406 1.982h-4.112v-7.139h4.112v1.241h-2.598v1.567h2.417v1.24h-2.417v1.841h2.598v1.25zm6.605 0h-4.111v-7.139h4.111v1.241h-2.598v1.567h2.417v1.24h-2.417v1.841h2.598v1.25zm10.203 0h-4.111v-7.139h4.111v1.241h-2.597v1.567h2.417v1.24h-2.417v1.841h2.597v1.25zm6.864 0l-.517-1.699h-2.603l-.517 1.699h-1.631l2.519-7.168h1.851l2.529 7.168h-1.631zm-.878-2.969l-.811-2.612-.127-.479-.923 3.091h1.861zm5.926-1.001h.489c.478 0 .831-.079 1.059-.239s.342-.41.342-.752-.117-.579-.352-.723-.59-.214-1.079-.214h-.459v1.928zm0 1.231v2.739h-1.513v-7.139h2.08c.97 0 1.688.178 2.153.533s.698.887.698 1.606c0 .42-.115.794-.346 1.123s-.559.581-.982.767l2.1 3.11h-1.68l-1.704-2.739h-.806zm6.088 2.739v-7.139h1.514v5.889h2.895v1.25h-4.409zm6.654 0v-7.139h1.514v7.139h-1.514zm8.422 0h-4.111v-7.139h4.111v1.241h-2.597v1.567h2.417v1.24h-2.417v1.841h2.597v1.25zm4.008-3.97h.488c.479 0 .832-.079 1.06-.239s.342-.41.342-.752-.117-.579-.352-.723-.591-.214-1.079-.214h-.459v1.928zm0 1.231v2.739h-1.514v-7.139h2.081c.97 0 1.687.178 2.153.533s.698.887.698 1.606a1.9 1.9 0 0 1-.347 1.123c-.231.326-.558.581-.981.767l2.1 3.11h-1.68l-1.704-2.739h-.806zm12.718-3.242c-.57 0-1.011.214-1.323.644s-.469 1.022-.469 1.787c0 1.592.597 2.388 1.792 2.388.501 0 1.108-.125 1.821-.376v1.269c-.586.245-1.24.367-1.963.367-1.038 0-1.832-.314-2.382-.943s-.826-1.536-.826-2.715c0-.742.135-1.391.406-1.948a2.91 2.91 0 0 1 1.162-1.284c.508-.299 1.102-.449 1.782-.449.693 0 1.39.167 2.09.503l-.489 1.23a8.13 8.13 0 0 0-.805-.332c-.27-.094-.536-.141-.796-.141zm10.824 2.402c0 1.182-.293 2.09-.879 2.725s-1.426.952-2.519.952-1.934-.318-2.52-.952-.879-1.547-.879-2.735.293-2.095.879-2.72 1.432-.942 2.529-.942 1.936.316 2.515.947.874 1.54.874 2.725zm-5.21 0c0 .797.152 1.398.454 1.802s.755.605 1.358.605c1.207 0 1.811-.802 1.811-2.407s-.6-2.412-1.802-2.412c-.602 0-1.056.203-1.362.61s-.459 1.004-.459 1.802zm14.023 3.579h-1.924l-3.106-5.4h-.044l.093 2.041v3.359h-1.352v-7.139h1.909l3.1 5.347h.035l-.074-1.968v-3.379h1.363v7.139zm6.874-7.139h1.528l-2.427 7.139h-1.65l-2.422-7.139h1.528l1.343 4.248.23.879.151.694c.036-.3.158-.824.366-1.573l1.353-4.248zm7.543 7.139h-4.112v-7.139h4.112v1.241h-2.598v1.567h2.417v1.24h-2.417v1.841h2.598v1.25zm4.007-3.97h.489c.478 0 .831-.079 1.059-.239s.342-.41.342-.752-.117-.579-.351-.723-.591-.214-1.08-.214h-.459v1.928zm0 1.231v2.739h-1.513v-7.139h2.08c.97 0 1.688.178 2.153.533s.698.887.698 1.606c0 .42-.115.794-.346 1.123s-.559.581-.982.767l2.1 3.11h-1.68l-1.704-2.739h-.806zm10.302.757c0 .644-.233 1.152-.698 1.523s-1.107.557-1.934.557c-.761 0-1.435-.144-2.021-.43v-1.406a8.39 8.39 0 0 0 1.221.454 3.64 3.64 0 0 0 .918.132c.332 0 .585-.064.761-.191s.269-.315.269-.566c0-.14-.039-.264-.117-.371s-.194-.217-.347-.318-.457-.262-.923-.483c-.436-.205-.763-.402-.981-.591s-.393-.408-.523-.659-.195-.544-.195-.879c0-.631.213-1.128.64-1.489s1.022-.542 1.777-.542c.371 0 .724.044 1.059.132s.692.211 1.06.371l-.488 1.177a7.01 7.01 0 0 0-.948-.328c-.247-.061-.491-.092-.732-.092-.286 0-.506.066-.659.2a.66.66 0 0 0-.23.522.66.66 0 0 0 .093.352 1.1 1.1 0 0 0 .293.288c.137.091.457.257.962.498.667.319 1.125.64 1.372.962s.371.711.371 1.177zm6.664 1.982l-.517-1.699h-2.603l-.517 1.699h-1.631l2.519-7.168h1.851l2.529 7.168h-1.631zm-.879-2.969l-.81-2.612-.127-.479-.923 3.091h1.86zm7.167 2.969h-1.513v-5.879h-1.939v-1.26h5.391v1.26h-1.939v5.879zm4.037 0v-7.139h1.514v7.139h-1.514zm10.791-3.579c0 1.182-.293 2.09-.879 2.725s-1.426.952-2.52.952-1.934-.318-2.519-.952-.879-1.547-.879-2.735.293-2.095.879-2.72 1.432-.942 2.529-.942 1.935.316 2.514.947.875 1.54.875 2.725zm-5.21 0c0 .797.151 1.398.454 1.802s.755.605 1.357.605c1.208 0 1.812-.802 1.812-2.407s-.601-2.412-1.802-2.412c-.602 0-1.056.203-1.362.61s-.459 1.004-.459 1.802zm14.022 3.579h-1.924l-3.105-5.4h-.044l.093 2.041v3.359h-1.353v-7.139h1.909l3.101 5.347h.034l-.073-1.968v-3.379h1.362v7.139zm7.016-1.982c0 .644-.233 1.152-.699 1.523s-1.106.557-1.933.557c-.762 0-1.436-.144-2.022-.43v-1.406a8.39 8.39 0 0 0 1.221.454 3.64 3.64 0 0 0 .918.132c.332 0 .586-.064.762-.191s.268-.315.268-.566c0-.14-.039-.264-.117-.371s-.194-.217-.347-.318-.457-.262-.922-.483c-.437-.205-.764-.402-.982-.591a2.21 2.21 0 0 1-.522-.659c-.131-.251-.196-.544-.196-.879 0-.631.214-1.128.64-1.489s1.022-.542 1.777-.542a4.16 4.16 0 0 1 1.06.132c.338.088.692.211 1.059.371l-.488 1.177c-.381-.157-.696-.266-.947-.328s-.492-.092-.733-.092c-.286 0-.506.066-.659.2s-.229.307-.229.522a.66.66 0 0 0 .093.352 1.07 1.07 0 0 0 .293.288c.136.091.457.257.961.498.668.319 1.125.64 1.373.962s.371.711.371 1.177z" class="G"/><rect x="205.5" y="249.78" width="309" height="74" rx="4.5" stroke="#f2f2f2" class="V"/></g><g filter="url(#E)"><path d="M512.173 11.238H384.631c-1.62 0-2.932 1.638-2.932 3.659V154.4c0 2.021 1.312 3.659 2.932 3.659h127.542c1.619 0 2.932-1.638 2.932-3.659V14.898c0-2.021-1.313-3.659-2.932-3.659z" class="B"/><use xlink:href="#Q" class="Q"/><use xlink:href="#Q" x="6.396" class="Q"/><use xlink:href="#Q" x="12.792" class="Q"/><path d="M386.314 36.931c-.171 0-.321-.011-.449-.033s-.244-.045-.338-.08v-.943l.324.066a2.3 2.3 0 0 0 .37.028c.171 0 .328-.033.468-.099s.251-.184.333-.357.126-.414.126-.727v-6.622h1.124v6.585c0 .51-.081.924-.243 1.243a1.55 1.55 0 0 1-.684.708c-.294.153-.637.23-1.031.23zm8.208-4.516c0 .431-.057.814-.169 1.149a2.29 2.29 0 0 1-.492.849c-.215.228-.475.403-.778.525s-.644.178-1.025.178c-.356 0-.683-.059-.979-.178s-.555-.297-.773-.525-.383-.514-.502-.849-.178-.718-.178-1.149c0-.572.099-1.057.295-1.454s.484-.705.853-.915.807-.314 1.316-.314c.478 0 .9.105 1.265.314s.651.514.857.915.31.885.31 1.454zm-3.762 0c0 .378.045.702.136.971s.237.475.431.619.443.211.749.211.556-.07.75-.211.336-.35.426-.619.136-.593.136-.971-.045-.699-.136-.962-.233-.467-.426-.605-.445-.211-.754-.211c-.456 0-.789.153-.998.46s-.314.746-.314 1.318zm6.127-4.69v1.834l-.018.558-.033.422h.061c.109-.181.243-.33.403-.446a1.71 1.71 0 0 1 .534-.267 2.22 2.22 0 0 1 .637-.089c.396 0 .734.067 1.012.202s.49.336.637.614.224.639.224 1.083v3.386h-1.1v-3.18c0-.403-.083-.705-.249-.905s-.421-.305-.768-.305c-.334 0-.6.07-.796.211s-.333.342-.417.614-.127.597-.127.985v2.58h-1.101v-7.298h1.101zm7.702 2.007c.584 0 1.038.152 1.363.455s.492.783.492 1.449v3.386h-1.101v-3.18c0-.403-.083-.705-.248-.905s-.422-.305-.769-.305c-.502 0-.852.155-1.049.464s-.29.758-.29 1.346v2.58h-1.101v-5.192h.857l.155.703h.06c.113-.181.252-.33.417-.446s.356-.208.563-.267a2.37 2.37 0 0 1 .651-.089zm6.099 0c.584 0 1.038.152 1.363.455s.492.783.492 1.449v3.386h-1.101v-3.18c0-.403-.083-.705-.248-.905s-.422-.305-.768-.305c-.503 0-.853.155-1.05.464s-.29.758-.29 1.346v2.58h-1.101v-5.192h.857l.155.703h.061a1.49 1.49 0 0 1 .417-.446 1.86 1.86 0 0 1 .562-.267 2.37 2.37 0 0 1 .651-.089zm2.614.099h1.199l1.064 2.964.126.399.103.38.075.375h.028l.131-.544.197-.61 1.021-2.964h1.185l-2.225 5.905c-.128.338-.285.625-.473.863a1.81 1.81 0 0 1-.656.544 1.93 1.93 0 0 1-.866.188c-.156 0-.292-.009-.408-.028l-.295-.052v-.882a2.36 2.36 0 0 0 .248.042 2.49 2.49 0 0 0 .309.019c.197 0 .367-.039.511-.117s.266-.189.365-.333a2.02 2.02 0 0 0 .249-.483l.182-.488-2.07-5.178zm12.475 3.325c0 .406-.1.757-.3 1.05s-.481.519-.853.675-.809.235-1.321.235a5.86 5.86 0 0 1-.716-.042 4.95 4.95 0 0 1-.647-.122 3.52 3.52 0 0 1-.548-.202v-1.06a7.66 7.66 0 0 0 .932.333 3.85 3.85 0 0 0 1.05.145c.29 0 .53-.038.721-.113s.338-.187.431-.328.14-.311.14-.502c0-.203-.054-.375-.164-.516s-.274-.269-.496-.385-.494-.245-.824-.38a5.58 5.58 0 0 1-.647-.31 2.62 2.62 0 0 1-.543-.408c-.159-.156-.286-.341-.38-.553s-.136-.469-.136-.76c0-.388.093-.719.277-.994s.45-.486.787-.633.737-.221 1.189-.221c.36 0 .697.038 1.012.113s.631.181.937.319l-.356.905a6.25 6.25 0 0 0-.82-.277c-.262-.069-.53-.103-.805-.103-.238 0-.439.036-.604.108a.85.85 0 0 0-.38.305.82.82 0 0 0-.126.46c0 .2.048.369.145.506s.253.258.459.371.478.238.806.375c.377.156.698.32.96.492s.468.378.609.619.211.536.211.896zm7.069-3.424c.581 0 1.018.15 1.312.45s.445.782.445 1.444v3.396h-1.101v-3.199c0-.394-.077-.691-.23-.891s-.386-.3-.698-.3c-.437 0-.753.141-.946.422s-.286.683-.286 1.215v2.753h-1.101v-3.199c0-.263-.034-.481-.103-.657s-.167-.311-.305-.399-.31-.136-.519-.136c-.303 0-.545.069-.726.206s-.306.341-.385.61-.117.593-.117.98v2.594h-1.101v-5.192h.857l.155.699h.061c.107-.181.238-.33.393-.446s.336-.206.53-.263a2.05 2.05 0 0 1 .604-.089c.388 0 .714.069.979.206s.464.341.595.619h.085a1.49 1.49 0 0 1 .679-.624 2.17 2.17 0 0 1 .923-.202zm4.394.099v5.192h-1.101v-5.192h1.101zm-.544-1.989a.71.71 0 0 1 .436.136c.125.091.187.247.187.469s-.062.375-.187.469a.71.71 0 0 1-.436.136c-.175 0-.323-.045-.445-.136s-.177-.25-.177-.469.059-.378.177-.469.27-.136.445-.136zm4.053 6.383c.143 0 .285-.013.426-.038a3.44 3.44 0 0 0 .384-.099v.835a2.31 2.31 0 0 1-.473.136c-.194.037-.395.056-.605.056a2.05 2.05 0 0 1-.791-.145c-.234-.1-.42-.27-.558-.511s-.206-.574-.206-.999V30.67h-.707v-.492l.759-.389.361-1.112h.693v1.154h1.485v.84h-1.485v2.776c0 .263.066.458.197.586a.71.71 0 0 0 .52.192zm2.965-6.5v1.834l-.019.558-.033.422h.061c.109-.181.244-.33.403-.446a1.72 1.72 0 0 1 .534-.267c.2-.059.412-.089.637-.089.397 0 .734.067 1.012.202a1.36 1.36 0 0 1 .637.614c.15.278.225.639.225 1.083v3.386h-1.101v-3.18c0-.403-.083-.705-.248-.905s-.422-.305-.769-.305c-.333 0-.599.07-.796.211s-.332.342-.416.614-.127.597-.127.985v2.58h-1.101v-7.298h1.101z" class="G"/><path d="M387.794 48.744h-.952v-4.571h2.617v.794h-1.665v1.179h1.549v.791h-1.549v1.807zm5.656-1.754c0 .292-.039.55-.119.776s-.19.416-.34.572-.327.271-.537.35-.444.119-.706.119c-.246 0-.472-.04-.678-.119s-.382-.196-.534-.35-.266-.347-.349-.572a2.26 2.26 0 0 1-.122-.776c0-.388.068-.716.206-.985s.333-.473.587-.613a1.86 1.86 0 0 1 .909-.209 1.76 1.76 0 0 1 .868.209c.254.14.453.344.596.613s.219.597.219.985zm-2.414 0c0 .229.025.422.075.578s.128.274.234.353.245.119.416.119.305-.04.409-.119a.67.67 0 0 0 .231-.353c.05-.156.075-.349.075-.578s-.025-.423-.075-.575-.125-.27-.231-.347-.245-.116-.416-.116c-.252 0-.435.087-.549.26s-.169.432-.169.779zm5.15-1.807a1.65 1.65 0 0 1 .165.009 1.17 1.17 0 0 1 .157.019l-.072.894c-.031-.01-.076-.018-.135-.022l-.146-.009c-.123 0-.243.016-.36.047s-.217.082-.309.153-.164.161-.218.275-.078.251-.078.416v1.779h-.953v-3.496h.722l.14.588h.047a1.48 1.48 0 0 1 .256-.325c.104-.1.222-.179.353-.238a1.03 1.03 0 0 1 .431-.091zm1.908-1.304v1.132l-.012.391-.025.3h.037c.092-.144.217-.266.375-.366s.363-.153.615-.153a1.16 1.16 0 0 1 .953.46c.243.306.365.756.365 1.348 0 .398-.056.733-.169 1.004s-.269.472-.471.61a1.23 1.23 0 0 1-.703.203c-.256 0-.458-.046-.606-.138s-.267-.195-.359-.31h-.066l-.159.385h-.728v-4.865h.953zm.684 2.067c-.167 0-.299.034-.397.103s-.169.172-.215.309a1.86 1.86 0 0 0-.072.522v.103c0 .34.05.6.15.782s.282.269.546.269c.196 0 .351-.091.466-.272s.175-.443.175-.785-.059-.599-.175-.772-.276-.259-.478-.259zm3.851-.763c.322 0 .6.063.834.188a1.28 1.28 0 0 1 .54.538c.127.236.19.523.19.863v.463h-2.251c.01.269.09.48.24.635s.362.228.631.228a2.54 2.54 0 0 0 .612-.069c.185-.046.376-.115.572-.206v.738c-.173.085-.354.148-.544.188a3.36 3.36 0 0 1-.684.059 2.13 2.13 0 0 1-.93-.194c-.269-.129-.48-.326-.634-.591s-.228-.598-.228-1.001c0-.409.068-.748.206-1.019a1.4 1.4 0 0 1 .581-.613 1.75 1.75 0 0 1 .865-.206zm.006.678c-.185 0-.339.059-.462.178s-.191.305-.21.56h1.337a.94.94 0 0 0-.078-.378.59.59 0 0 0-.219-.263c-.095-.065-.218-.097-.368-.097zm4.769 1.845a1.04 1.04 0 0 1-.169.603c-.11.163-.276.287-.496.372s-.496.125-.825.125a3.62 3.62 0 0 1-.628-.047 2.6 2.6 0 0 1-.524-.156v-.788c.189.085.392.156.609.213s.41.081.574.081c.186 0 .318-.027.397-.081s.122-.129.122-.219c0-.058-.017-.11-.05-.156s-.1-.101-.206-.16-.273-.139-.5-.235c-.219-.092-.399-.184-.54-.278s-.244-.204-.313-.331-.1-.293-.1-.491a.81.81 0 0 1 .375-.728c.252-.165.588-.247 1.009-.247a2.82 2.82 0 0 1 .618.066 3.01 3.01 0 0 1 .609.209l-.287.688-.49-.185a1.54 1.54 0 0 0-.466-.072c-.139 0-.244.019-.315.056s-.106.095-.106.172c0 .056.017.106.053.15s.108.093.212.147l.465.203c.198.081.37.167.516.256a.96.96 0 0 1 .337.328c.079.129.119.297.119.503z" class="G"/><path d="M389.471 62.923h-2.629v-4.571h2.629v.794h-1.661v1.004h1.546v.794h-1.546v1.179h1.661v.8zm1.987.063a1.17 1.17 0 0 1-.953-.456c-.243-.306-.365-.756-.365-1.348 0-.598.124-1.05.371-1.357s.572-.463.972-.463c.166 0 .313.023.44.069s.236.108.328.185a1.18 1.18 0 0 1 .237.259h.031l-.046-.294a3.14 3.14 0 0 1-.025-.403v-1.12h.955v4.865h-.731l-.184-.453h-.04a1.21 1.21 0 0 1-.228.263 1.03 1.03 0 0 1-.322.184 1.27 1.27 0 0 1-.44.069zm.334-.76c.26 0 .443-.077.549-.231s.166-.391.172-.703v-.103c0-.34-.052-.599-.156-.778s-.298-.272-.581-.272c-.21 0-.375.091-.493.272s-.178.443-.178.785.059.599.178.772.29.26.509.26zm3.56-2.799v3.496h-.952v-3.496h.952zm-.475-1.369c.142 0 .264.033.366.1s.153.187.153.366-.051.3-.153.369-.224.1-.366.1a.66.66 0 0 1-.368-.1c-.1-.069-.15-.192-.15-.369s.05-.301.15-.366.225-.1.368-.1zm2.948 4.168a1.42 1.42 0 0 0 .303-.032 2.8 2.8 0 0 0 .297-.078v.71c-.102.046-.229.083-.381.113s-.314.047-.493.047c-.209 0-.396-.033-.563-.1s-.294-.187-.39-.353-.14-.403-.14-.704v-1.685h-.456v-.403l.524-.319.275-.738h.609v.744h.978v.716h-.978v1.685c0 .134.038.234.113.3s.178.097.302.097zm4.482-1.057c0 .292-.04.55-.119.775a1.52 1.52 0 0 1-.34.572 1.43 1.43 0 0 1-.537.35c-.208.079-.444.119-.706.119-.246 0-.472-.04-.678-.119a1.5 1.5 0 0 1-.534-.35c-.15-.156-.266-.347-.35-.572s-.121-.483-.121-.775c0-.388.068-.716.206-.985a1.41 1.41 0 0 1 .587-.613c.254-.139.557-.209.909-.209.327 0 .616.07.868.209s.453.344.596.613.219.597.219.985zm-2.414 0c0 .229.025.422.075.579s.128.274.234.353.245.119.415.119.305-.04.41-.119.183-.197.231-.353.075-.349.075-.579-.025-.423-.075-.575-.125-.27-.231-.347-.245-.115-.416-.115c-.252 0-.435.086-.549.259s-.169.433-.169.778zm5.15-1.807a1.74 1.74 0 0 1 .165.009l.156.019-.071.894a.61.61 0 0 0-.135-.022l-.146-.01a1.38 1.38 0 0 0-.36.047.88.88 0 0 0-.309.153c-.091.069-.164.16-.218.275s-.078.251-.078.416v1.779h-.953v-3.496h.721l.141.588h.047c.068-.119.154-.227.256-.325s.222-.179.353-.238a1.03 1.03 0 0 1 .431-.091z" class="G"/><path d="M393.577 68.869h-1.828c-3.027 0-5.482 2.457-5.482 5.489s2.455 5.489 5.482 5.489h1.828c3.027 0 5.482-2.457 5.482-5.489s-2.455-5.489-5.482-5.489z" class="R"/><path d="M392.952 76.645l-.382-1.088h-1.497l-.383 1.088h-.677l1.456-3.934h.712l1.454 3.934h-.683zm-.548-1.64l-.372-1.072-.062-.195-.08-.26-.067-.225-.067.246-.075.252-.054.182-.374 1.072h1.151zm1.748 1.64v-3.918h.642v3.918h-.642z" class="I"/><path d="M460.734 68.869h-50.71c-3.028 0-5.482 2.457-5.482 5.489s2.454 5.489 5.482 5.489h50.71c3.028 0 5.483-2.457 5.483-5.489s-2.455-5.489-5.483-5.489z" class="R"/><path d="M410.511 76.645l-1.127-3.272h-.024l.019.3.018.408.008.415v2.149h-.583v-3.918h.902l1.084 3.128h.016l1.122-3.128h.899v3.918h-.613v-2.182l.005-.388.017-.397.016-.3h-.022l-1.17 3.267h-.567zm5.79 0l-.383-1.088h-1.496l-.383 1.088h-.677l1.456-3.934h.712l1.454 3.934h-.683zm-.549-1.64l-.372-1.072-.061-.195-.081-.26-.067-.225-.067.247-.075.252-.053.182-.375 1.072h1.151zm3.416-1.787a1.19 1.19 0 0 0-.503.102 1 1 0 0 0-.372.294c-.102.127-.18.281-.233.464a2.13 2.13 0 0 0-.081.611 2.15 2.15 0 0 0 .129.785c.086.218.216.386.391.504s.396.174.664.174a2.38 2.38 0 0 0 .484-.049c.157-.032.32-.076.487-.131v.547c-.159.062-.319.108-.482.136a3.24 3.24 0 0 1-.562.043c-.399 0-.731-.083-.996-.249a1.52 1.52 0 0 1-.588-.702c-.129-.302-.193-.655-.193-1.061 0-.297.041-.568.123-.815a1.83 1.83 0 0 1 .359-.638 1.55 1.55 0 0 1 .581-.415 2.02 2.02 0 0 1 .795-.147 2.5 2.5 0 0 1 .578.067 2.38 2.38 0 0 1 .53.185l-.225.531c-.136-.065-.278-.12-.426-.166s-.301-.07-.46-.07zm4.893 3.428h-.64v-1.769h-1.804v1.769h-.642v-3.918h.642v1.603h1.804v-1.603h.64v3.918zm1.036 0v-3.918h.642v3.918h-.642zm4.942 0h-.79l-1.917-3.128h-.024l.019.335.016.364.013.381v2.048h-.583v-3.918h.784l1.914 3.106h.019l-.013-.314-.016-.365-.009-.367v-2.061h.587v3.918zm3.244 0h-2.216v-3.918h2.216v.541h-1.574v1.064h1.475v.539h-1.475v1.23h1.574v.544zm2.27 0v-3.918h.642v3.371h1.663v.546h-2.305zm5.199 0h-2.217v-3.918h2.217v.541h-1.575v1.064h1.475v.539h-1.475v1.23h1.575v.544zm3.271 0l-.383-1.088h-1.496l-.383 1.088h-.678l1.457-3.934h.712l1.453 3.934h-.682zm-.549-1.64l-.372-1.072-.062-.195-.08-.26-.067-.225-.067.247-.075.252-.053.182-.375 1.072h1.151zm2.848-2.278c.337 0 .616.041.835.123s.386.207.493.375.163.381.163.641a1.04 1.04 0 0 1-.107.493 1.01 1.01 0 0 1-.281.338c-.116.09-.24.161-.372.215l1.111 1.734h-.726l-.945-1.571h-.629v1.571h-.642v-3.918h1.1zm-.043.536h-.415v1.281h.445c.298 0 .514-.055.648-.166s.203-.274.203-.49c0-.227-.072-.388-.217-.483s-.364-.142-.664-.142zm5.71 3.382h-.79l-1.916-3.128h-.024l.018.335.016.364.014.381v2.048h-.584v-3.918h.785l1.913 3.106h.019l-.013-.314-.016-.365-.008-.367v-2.061h.586v3.918zm1.028 0v-3.918h.643v3.918h-.643zm4.942 0h-.79l-1.917-3.128h-.024l.019.335.016.364.013.381v2.048h-.584v-3.918h.785l1.914 3.106h.019l-.014-.314-.016-.365-.008-.367v-2.061h.587v3.918zm2.607-2.128h1.461v1.967c-.205.068-.417.121-.637.158a4.41 4.41 0 0 1-.739.056c-.398 0-.735-.079-1.011-.236a1.54 1.54 0 0 1-.627-.689c-.143-.302-.214-.665-.214-1.091 0-.409.08-.764.238-1.064a1.66 1.66 0 0 1 .694-.7c.303-.166.67-.249 1.103-.249a2.89 2.89 0 0 1 .615.064c.2.041.383.098.549.172l-.225.53a2.54 2.54 0 0 0-.444-.158c-.165-.043-.335-.064-.511-.064a1.39 1.39 0 0 0-.726.182c-.202.122-.357.293-.466.514s-.163.48-.163.78c0 .291.043.547.131.766s.224.391.409.514.43.183.726.183a2.51 2.51 0 0 0 .377-.024l.287-.053v-1.01h-.827v-.549z" class="I"/><path d="M426.013 83.505h-34.264c-3.027 0-5.482 2.457-5.482 5.489s2.455 5.489 5.482 5.489h34.264c3.028 0 5.483-2.457 5.483-5.489s-2.455-5.489-5.483-5.489z" class="R"/><path d="M393.647 89.285c0 .441-.082.81-.246 1.107a1.58 1.58 0 0 1-.715.667c-.312.148-.689.222-1.129.222h-1.087v-3.918h1.204c.405 0 .755.073 1.05.22s.522.36.682.646.241.636.241 1.056zm-.669.019c0-.322-.051-.586-.153-.794s-.248-.361-.444-.461-.435-.153-.72-.153h-.549v2.846h.455c.473 0 .827-.12 1.06-.362s.351-.6.351-1.077zm3.938 1.978l-.383-1.088h-1.497l-.382 1.088h-.678l1.457-3.934h.712l1.453 3.934h-.682zm-.549-1.64l-.372-1.072-.062-.195-.08-.26-.067-.225-.067.247-.075.252-.053.182-.375 1.072h1.151zm3.105 1.64h-.645V87.91h-1.146v-.547h2.934v.547h-1.143v3.371zm4.168 0l-.383-1.088h-1.496l-.383 1.088h-.677l1.456-3.934h.712l1.454 3.934h-.683zm-.549-1.64l-.372-1.072-.061-.195-.081-.26-.067-.225-.067.247-.075.252-.053.182-.375 1.072h1.151zm5.432.574c0 .232-.058.432-.172.6a1.06 1.06 0 0 1-.487.386c-.211.09-.462.134-.755.134-.143 0-.279-.008-.409-.024s-.254-.039-.37-.07a2 2 0 0 1-.313-.115v-.606a4.38 4.38 0 0 0 .533.19 2.2 2.2 0 0 0 .599.083c.166 0 .304-.022.413-.065s.192-.107.246-.187a.52.52 0 0 0 .08-.287c0-.116-.031-.215-.094-.295a.85.85 0 0 0-.283-.219c-.125-.068-.282-.141-.471-.217-.129-.052-.252-.111-.37-.177a1.51 1.51 0 0 1-.31-.233c-.091-.09-.164-.195-.217-.317a1.11 1.11 0 0 1-.078-.434 1 1 0 0 1 .158-.568c.107-.157.257-.278.45-.362a1.7 1.7 0 0 1 .68-.126c.205 0 .398.021.578.064a2.96 2.96 0 0 1 .535.182l-.203.517c-.161-.066-.317-.118-.469-.158a1.8 1.8 0 0 0-.46-.059c-.136 0-.251.021-.345.062s-.167.099-.217.174-.072.16-.072.263c0 .114.027.211.083.29s.144.147.262.211a5.33 5.33 0 0 0 .46.215c.216.089.399.183.549.281s.268.216.348.354.121.306.121.512zm2.422-2.361a1.19 1.19 0 0 0-.503.102c-.146.068-.27.166-.372.295s-.18.281-.233.464a2.13 2.13 0 0 0-.08.611 2.15 2.15 0 0 0 .128.785c.086.218.216.386.391.504s.396.174.664.174a2.38 2.38 0 0 0 .484-.048c.157-.032.32-.076.487-.131v.547a2.48 2.48 0 0 1-.481.136c-.163.029-.35.043-.562.043-.4 0-.732-.083-.996-.249s-.459-.4-.589-.702-.193-.655-.193-1.061c0-.297.041-.568.123-.815a1.83 1.83 0 0 1 .359-.638 1.56 1.56 0 0 1 .581-.415c.232-.098.497-.147.795-.147a2.5 2.5 0 0 1 .578.067 2.37 2.37 0 0 1 .53.185l-.225.531a3.25 3.25 0 0 0-.425-.166c-.149-.046-.302-.07-.461-.07zm1.807 3.428v-3.918h.642v3.918h-.642zm3.892 0h-2.216v-3.918h2.216v.541h-1.574v1.064h1.475v.539h-1.475v1.23h1.574v.544zm4.112 0h-.79l-1.916-3.128h-.025l.019.335.016.364.014.381v2.048h-.584v-3.918h.784l1.914 3.106h.019l-.013-.314-.016-.365-.008-.367v-2.061h.586v3.918zm2.696-3.428c-.188 0-.356.034-.504.102s-.27.166-.372.295-.179.281-.233.464-.08.384-.08.611c0 .304.043.565.128.785s.216.386.391.504.396.174.664.174a2.37 2.37 0 0 0 .484-.048 4.28 4.28 0 0 0 .488-.131v.547c-.159.062-.319.108-.482.136a3.25 3.25 0 0 1-.562.043c-.4 0-.732-.083-.996-.249a1.52 1.52 0 0 1-.589-.702c-.128-.302-.193-.655-.193-1.061 0-.297.042-.568.124-.815a1.83 1.83 0 0 1 .358-.638 1.56 1.56 0 0 1 .581-.415c.232-.098.497-.147.795-.147a2.5 2.5 0 0 1 .578.067 2.37 2.37 0 0 1 .53.185l-.224.531a3.32 3.32 0 0 0-.426-.166 1.54 1.54 0 0 0-.46-.07zm4.023 3.428h-2.216v-3.918h2.216v.541h-1.574v1.064h1.475v.539h-1.475v1.23h1.574v.544z" class="I"/><mask id="A" maskUnits="userSpaceOnUse" x="386" y="97" width="158" height="12"><path d="M543.424 97.684H386.267v10.978h157.157V97.684z" class="B"/></mask><g mask="url(#A)"><path d="M394.033 103.402c.061 0 .119-.024.162-.067s.067-.101.067-.162-.024-.119-.067-.162-.101-.067-.162-.067-.118.025-.161.067-.067.101-.067.162.024.119.067.162.101.067.161.067zm-2.284 0c.061 0 .119-.024.162-.067s.066-.101.066-.162-.024-.119-.066-.162-.101-.067-.162-.067-.119.025-.162.067-.066.101-.066.162.024.119.066.162.101.067.162.067zm-2.284 0c.06 0 .118-.024.161-.067s.067-.101.067-.162-.024-.119-.067-.162-.101-.067-.161-.067-.119.025-.162.067-.067.101-.067.162.024.119.067.162.101.067.162.067z" fill="#000" class="D J K"/><path d="M391.749 107.747c2.523 0 4.569-2.048 4.569-4.574s-2.046-4.574-4.569-4.574a4.57 4.57 0 0 0-4.568 4.574 4.55 4.55 0 0 0 .611 2.287l-.383 2.058 2.056-.383c.694.402 1.482.613 2.284.612z" class="D J K"/><path d="M401.934 106.998a1.34 1.34 0 0 1-.278-.025c-.079-.014-.148-.032-.206-.053v-.422c.065.021.13.036.197.047a1.27 1.27 0 0 0 .225.019c.141 0 .256-.04.343-.119s.131-.223.131-.432v-3.98h.519v3.968c0 .208-.033.387-.1.535s-.169.264-.306.344-.312.118-.525.118zm.366-5.906c0-.117.029-.202.087-.256s.135-.085.225-.085c.085 0 .158.029.219.085s.093.139.093.256-.031.2-.093.257-.134.084-.219.084c-.09 0-.165-.028-.225-.084s-.087-.142-.087-.257zm4.615 2.648c0 .282-.036.533-.109.754s-.178.408-.315.559-.304.269-.5.351-.413.119-.659.119a1.64 1.64 0 0 1-.631-.119 1.42 1.42 0 0 1-.493-.351c-.138-.151-.245-.338-.322-.559a2.34 2.34 0 0 1-.112-.754c0-.375.063-.694.19-.957a1.36 1.36 0 0 1 .544-.603c.237-.139.519-.209.846-.209.312 0 .585.07.818.209a1.4 1.4 0 0 1 .547.607c.131.263.196.58.196.953zm-2.604 0c0 .276.036.514.109.716a.96.96 0 0 0 .337.469c.152.111.348.166.588.166s.432-.055.584-.166.267-.266.34-.469.109-.44.109-.716-.036-.508-.109-.706-.185-.354-.337-.463-.349-.163-.591-.163c-.356 0-.617.118-.783.354s-.247.562-.247.978zm4.019-3.145v1.454l-.006.253-.022.232h.034a1.01 1.01 0 0 1 .269-.304 1.18 1.18 0 0 1 .375-.188c.139-.043.287-.065.443-.065.275 0 .504.043.687.131s.324.223.416.407.14.421.14.712v2.233h-.512v-2.198c0-.286-.066-.499-.197-.641s-.328-.213-.596-.213c-.254 0-.457.049-.609.147s-.258.238-.325.426-.097.417-.097.687v1.792h-.518v-4.865h.518zm5.025 1.376c.406 0 .713.1.921.3s.313.517.313.956v2.233h-.512v-2.198c0-.286-.066-.499-.197-.641s-.328-.213-.597-.213c-.379 0-.645.108-.799.322s-.231.527-.231.935v1.795h-.519v-3.427h.419l.078.494h.028a1.01 1.01 0 0 1 .278-.303c.112-.083.238-.146.378-.188a1.48 1.48 0 0 1 .44-.065zm3.923 0c.406 0 .713.1.921.3s.312.517.312.956v2.233h-.512v-2.198c0-.286-.066-.499-.197-.641s-.328-.213-.596-.213c-.379 0-.646.108-.8.322s-.231.527-.231.935v1.795h-.518v-3.427h.418l.078.494h.028a1.02 1.02 0 0 1 .278-.303 1.24 1.24 0 0 1 .378-.188c.14-.043.287-.065.441-.065zm1.761.062h.556l.756 1.989.121.338.101.306a2.58 2.58 0 0 1 .068.284h.022l.125-.409.175-.522.715-1.986h.559l-1.49 3.931c-.079.21-.171.393-.278.55s-.231.276-.381.359-.331.128-.543.128a1.65 1.65 0 0 1-.259-.018l-.194-.038v-.416c.046.011.101.02.166.028a1.53 1.53 0 0 0 .206.013.7.7 0 0 0 .334-.075c.096-.048.178-.119.247-.213a1.46 1.46 0 0 0 .178-.334l.187-.482-1.371-3.433zm8.566 1.145a2.5 2.5 0 0 1-.068.581c-.044.188-.112.358-.203.51s-.207.27-.344.359-.295.135-.481.135a.63.63 0 0 1-.462-.169c-.114-.113-.183-.246-.206-.401h-.028a1.04 1.04 0 0 1-.35.41c-.152.106-.339.16-.562.16-.325 0-.576-.108-.753-.322s-.262-.505-.262-.863c0-.28.055-.527.165-.741a1.27 1.27 0 0 1 .472-.51c.204-.125.444-.188.721-.188.186 0 .366.016.541.047s.314.066.418.103l-.062 1.26-.006.179-.004.094c0 .225.04.377.119.456a.41.41 0 0 0 .294.116c.139 0 .256-.055.35-.163s.168-.257.218-.44.075-.392.075-.617c0-.397-.08-.737-.24-1.019s-.382-.496-.666-.644-.605-.222-.971-.222a2.56 2.56 0 0 0-.971.172 1.98 1.98 0 0 0-.715.488 2.07 2.07 0 0 0-.441.744c-.1.288-.149.605-.149.953 0 .426.074.788.224 1.085a1.55 1.55 0 0 0 .666.682c.293.154.65.231 1.071.231a3.17 3.17 0 0 0 .734-.084 5 5 0 0 0 .63-.191v.407a3.4 3.4 0 0 1-.615.188c-.227.049-.476.075-.749.075-.502 0-.931-.096-1.287-.285s-.629-.459-.818-.813-.285-.78-.285-1.276c0-.402.062-.772.185-1.11s.304-.63.537-.878a2.4 2.4 0 0 1 .852-.575c.336-.138.713-.207 1.131-.207.448 0 .843.093 1.187.278s.616.446.812.788.296.746.296 1.217zm-3.254.412c0 .277.055.481.166.61a.57.57 0 0 0 .459.194c.241 0 .419-.091.531-.272s.18-.421.196-.719l.038-.816a1.35 1.35 0 0 0-.222-.047c-.085-.015-.175-.022-.268-.022-.215 0-.389.051-.522.153s-.227.234-.287.397-.091.337-.091.522zm5.69-1.15h-.852v3.02h-.519v-3.02h-.606v-.25l.606-.172v-.229c0-.287.043-.521.129-.7s.209-.315.371-.4.36-.129.593-.129c.132 0 .251.012.36.035a2.34 2.34 0 0 1 .29.078l-.134.41a2.38 2.38 0 0 0-.241-.063 1.14 1.14 0 0 0-.268-.031c-.198 0-.345.065-.441.194s-.14.327-.14.6v.25h.852v.407zm3.582 1.3c0 .282-.036.533-.109.754s-.178.408-.315.559-.304.269-.5.351-.413.119-.659.119c-.229 0-.439-.04-.63-.119s-.355-.198-.494-.351a1.61 1.61 0 0 1-.322-.559 2.34 2.34 0 0 1-.112-.754c0-.375.063-.694.19-.957s.309-.465.544-.603.519-.209.846-.209c.312 0 .585.07.818.209a1.4 1.4 0 0 1 .547.607c.131.263.196.58.196.953zm-2.604 0c0 .276.036.514.109.716a.96.96 0 0 0 .338.469c.151.111.347.166.587.166s.431-.055.584-.166.267-.266.34-.469.109-.44.109-.716-.036-.508-.109-.706-.185-.354-.337-.463-.349-.163-.59-.163c-.356 0-.618.118-.784.354s-.247.562-.247.978zm5.056-1.769a2.04 2.04 0 0 1 .216.012 1.69 1.69 0 0 1 .2.028l-.066.482c-.056-.015-.119-.026-.187-.034s-.134-.013-.194-.013c-.138 0-.268.028-.39.084a.93.93 0 0 0-.319.238c-.092.102-.163.226-.215.372s-.079.304-.079.481v1.839h-.521v-3.427h.431l.056.632h.022c.07-.127.156-.243.256-.347s.216-.191.347-.254.281-.093.443-.093zm1.58-1.376v1.216l-.012.407-.016.306h.028c.094-.154.229-.284.406-.391s.403-.159.678-.159c.429 0 .771.149 1.025.447s.383.737.383 1.322c0 .386-.058.711-.174.976s-.282.465-.494.6-.463.204-.753.204c-.27 0-.493-.051-.668-.15s-.306-.227-.4-.373h-.04l-.106.46h-.375v-4.865h.518zm1 1.813c-.248 0-.445.049-.591.147s-.25.242-.315.438-.094.44-.094.738v.028c0 .432.072.762.216.991s.405.341.784.341c.318 0 .557-.117.715-.35s.24-.567.24-1.001c0-.442-.079-.774-.237-.997s-.396-.335-.718-.335zm3.716-.437a1.38 1.38 0 0 1 .749.194c.209.129.368.31.478.543s.166.503.166.814v.322H441.4c.006.402.106.708.3.919s.466.316.818.316c.216 0 .408-.02.575-.06s.339-.098.518-.175v.456c-.173.078-.345.134-.515.17a2.99 2.99 0 0 1-.6.053c-.329 0-.616-.067-.862-.201s-.433-.333-.568-.594-.203-.579-.203-.956c0-.369.061-.688.184-.957s.3-.479.525-.625.493-.219.799-.219zm-.006.425c-.277 0-.498.091-.662.272s-.262.435-.294.76h1.812c-.003-.205-.035-.384-.097-.538s-.153-.277-.278-.363-.286-.131-.481-.131zm4.494 2.126c0 .219-.055.403-.165.553s-.265.26-.469.335-.443.113-.725.113a2.96 2.96 0 0 1-.621-.057c-.175-.037-.328-.091-.459-.159v-.479a3.01 3.01 0 0 0 .5.188 2.12 2.12 0 0 0 .593.084c.296 0 .51-.048.643-.144s.2-.226.2-.39c0-.094-.027-.176-.081-.247a.77.77 0 0 0-.265-.21c-.126-.068-.298-.144-.519-.225l-.568-.247c-.159-.083-.282-.184-.369-.303s-.128-.273-.128-.463a.75.75 0 0 1 .35-.666c.235-.156.543-.234.924-.234.206 0 .399.021.578.062s.35.094.506.163l-.175.415c-.142-.06-.292-.111-.453-.152s-.324-.063-.49-.063c-.24 0-.424.039-.553.119s-.19.187-.19.325c0 .106.029.194.087.263s.156.133.287.194l.519.212c.214.079.4.162.555.247s.276.185.36.306.128.272.128.46zm.756.613c0-.146.035-.249.106-.31a.38.38 0 0 1 .259-.094c.106 0 .196.032.269.094s.109.164.109.31-.037.249-.109.316-.163.096-.269.096-.188-.032-.259-.096-.106-.172-.106-.316zm3.129.388c-.308 0-.58-.064-.815-.191s-.419-.321-.55-.582-.197-.589-.197-.985c0-.414.069-.753.206-1.016s.332-.461.575-.588.521-.19.831-.19a2.21 2.21 0 0 1 .493.053 1.57 1.57 0 0 1 .394.128l-.156.435a2.71 2.71 0 0 0-.363-.113 1.61 1.61 0 0 0-.381-.05c-.237 0-.435.051-.593.153s-.274.253-.353.451-.115.441-.115.731c0 .277.037.514.112.71a.96.96 0 0 0 .34.45c.153.102.342.153.569.153.181 0 .344-.019.49-.056s.278-.086.397-.137v.462c-.115.059-.243.103-.384.135s-.306.047-.5.047zm4.647-1.783a2.37 2.37 0 0 1-.11.754 1.51 1.51 0 0 1-.315.559 1.37 1.37 0 0 1-.5.351c-.193.079-.413.119-.658.119-.229 0-.44-.04-.631-.119s-.354-.198-.494-.351-.245-.338-.321-.559a2.34 2.34 0 0 1-.113-.754c0-.375.064-.694.191-.957s.308-.465.543-.603.519-.209.847-.209a1.57 1.57 0 0 1 .818.209c.235.14.417.342.546.607s.197.58.197.953zm-2.604 0c0 .276.036.514.109.716s.185.359.337.469.348.166.587.166.432-.055.584-.166.268-.266.341-.469a2.13 2.13 0 0 0 .109-.716c0-.273-.037-.508-.109-.706s-.186-.354-.338-.463-.349-.163-.59-.163c-.356 0-.617.118-.784.354s-.246.562-.246.978zm7.216-1.769c.377 0 .662.099.853.297s.287.511.287.947v2.245h-.512v-2.22c0-.277-.06-.485-.181-.622s-.295-.21-.531-.21c-.331 0-.571.096-.721.288s-.225.474-.225.848v1.916h-.515v-2.22c0-.185-.027-.34-.081-.463s-.132-.215-.238-.275-.236-.094-.397-.094c-.227 0-.408.047-.546.141s-.237.233-.3.419-.091.41-.091.678v1.814h-.518v-3.427h.419l.078.485h.028c.068-.119.155-.219.259-.3a1.12 1.12 0 0 1 .35-.185 1.35 1.35 0 0 1 .412-.062c.26 0 .478.049.653.146s.305.243.384.441h.028c.113-.198.267-.345.462-.441a1.43 1.43 0 0 1 .643-.146z" class="G"/></g><path d="M426.47 111.406h-37.919c-1.261 0-2.284 1.024-2.284 2.287v10.977c0 1.263 1.023 2.287 2.284 2.287h37.919c1.262 0 2.284-1.024 2.284-2.287v-10.977c0-1.263-1.022-2.287-2.284-2.287z" fill="#2bbbf0"/><path d="M396.302 121.469l-1.099-3.587h-.028l.019.388.028.547.012.526v2.126h-.865v-4.572h1.318l1.081 3.496h.018l1.146-3.496h1.318v4.572h-.902v-2.164l.006-.497.022-.535.019-.384h-.028l-1.178 3.58h-.887zm5.466-3.562c.322 0 .6.063.833.188s.414.302.541.538.19.523.19.863v.462h-2.252c.011.269.091.481.241.635s.362.228.631.228a2.59 2.59 0 0 0 .612-.068c.185-.047.376-.115.571-.207v.738c-.172.086-.354.148-.543.188s-.415.059-.684.059a2.14 2.14 0 0 1-.931-.194 1.45 1.45 0 0 1-.634-.591c-.152-.265-.228-.598-.228-1 0-.409.069-.749.207-1.02a1.4 1.4 0 0 1 .58-.612c.248-.138.537-.207.866-.207zm.006.679c-.185 0-.34.059-.462.178s-.191.306-.21.56h1.337c-.002-.142-.028-.268-.078-.379s-.121-.198-.219-.262a.64.64 0 0 0-.368-.097zm4.769 1.844a1.05 1.05 0 0 1-.169.604 1.03 1.03 0 0 1-.497.372c-.22.084-.495.125-.824.125-.244 0-.453-.015-.628-.047s-.347-.083-.524-.156v-.788c.189.086.392.156.609.213s.41.081.574.081c.186 0 .318-.027.397-.081s.122-.13.122-.219c0-.059-.017-.111-.05-.157s-.1-.101-.206-.159a5.11 5.11 0 0 0-.5-.235c-.219-.092-.399-.184-.54-.278s-.244-.204-.313-.331-.1-.293-.1-.491c0-.323.125-.566.375-.729s.588-.247 1.009-.247c.216 0 .422.022.618.066s.401.114.609.209l-.287.688-.49-.184a1.54 1.54 0 0 0-.466-.072c-.139 0-.244.019-.315.056s-.106.095-.106.172a.23.23 0 0 0 .053.15c.037.044.108.093.212.147l.465.204c.198.081.37.166.516.256s.258.197.337.328.119.297.119.503zm3.179 0c0 .238-.056.439-.169.604s-.276.286-.496.372-.496.125-.825.125a3.56 3.56 0 0 1-.628-.047 2.57 2.57 0 0 1-.524-.156v-.788c.189.086.392.156.609.213s.41.081.574.081c.186 0 .318-.027.397-.081s.122-.13.122-.219c0-.059-.017-.111-.05-.157s-.1-.101-.206-.159-.273-.139-.5-.235c-.219-.092-.399-.184-.54-.278s-.244-.204-.313-.331-.099-.293-.099-.491c0-.323.124-.566.374-.729s.588-.247 1.009-.247a2.8 2.8 0 0 1 .618.066c.198.044.401.114.609.209l-.287.688-.49-.184c-.152-.048-.307-.072-.466-.072-.139 0-.244.019-.315.056s-.106.095-.106.172c0 .056.018.106.053.15s.108.093.212.147l.466.204a3.58 3.58 0 0 1 .515.256c.146.088.258.197.337.328s.119.297.119.503zm2.174-2.529c.468 0 .827.102 1.077.306s.375.515.375.932v2.33h-.666l-.184-.476h-.025c-.1.125-.202.228-.306.307s-.224.137-.359.175a1.89 1.89 0 0 1-.493.056c-.206 0-.392-.04-.556-.119s-.291-.2-.384-.362-.141-.374-.141-.626c0-.371.13-.644.39-.819s.651-.275 1.172-.294l.605-.019v-.153c0-.183-.047-.318-.143-.403s-.229-.128-.4-.128a1.78 1.78 0 0 0-.497.071 3.91 3.91 0 0 0-.487.182l-.315-.644c.185-.098.392-.175.621-.231a2.98 2.98 0 0 1 .716-.085zm.505 1.948l-.368.012c-.308.009-.523.064-.643.166s-.178.237-.178.403c0 .147.042.25.128.313s.196.091.334.091a.76.76 0 0 0 .515-.181c.142-.121.212-.293.212-.516v-.288zm2.952 3.158c-.488 0-.86-.086-1.118-.256s-.384-.407-.384-.714a.75.75 0 0 1 .196-.528c.131-.142.324-.243.578-.303-.098-.042-.183-.109-.256-.204a.49.49 0 0 1-.109-.303c0-.133.038-.244.115-.331a1.33 1.33 0 0 1 .334-.263c-.183-.079-.329-.206-.437-.381a1.17 1.17 0 0 1-.159-.619c0-.255.055-.47.165-.647s.275-.316.488-.41.474-.141.78-.141c.065 0 .14.004.225.013l.234.028.147.025h1.218v.485l-.546.14c.05.077.087.16.112.247s.038.181.038.278c0 .376-.132.669-.394.879s-.623.313-1.087.313l-.312-.025a.43.43 0 0 0-.109.119c-.025.041-.038.085-.038.131s.019.084.056.116a.46.46 0 0 0 .175.068c.079.015.177.022.294.022h.593c.383 0 .675.083.875.247s.303.407.303.726c0 .408-.171.725-.513.95s-.827.338-1.464.338zm.04-.622c.227 0 .422-.022.584-.066s.291-.102.378-.181.131-.17.131-.278c0-.088-.026-.158-.078-.21s-.127-.085-.231-.106-.233-.032-.393-.032h-.494a.83.83 0 0 0-.315.057c-.092.037-.165.089-.219.156s-.081.148-.081.237c0 .132.062.235.187.31s.304.113.531.113zm.153-2.652c.179 0 .311-.055.394-.165s.125-.261.125-.451c0-.21-.044-.368-.131-.472s-.215-.159-.388-.159-.306.053-.393.159-.131.262-.131.472c0 .19.042.34.128.451s.219.165.396.165zm3.842-1.826c.322 0 .6.063.833.188s.414.302.541.538.19.523.19.863v.462h-2.251c.01.269.09.481.24.635s.362.228.631.228a2.59 2.59 0 0 0 .612-.068c.185-.047.376-.115.571-.207v.738a2.24 2.24 0 0 1-.543.188c-.187.039-.415.059-.684.059-.35 0-.66-.065-.93-.194a1.44 1.44 0 0 1-.634-.591c-.152-.265-.228-.598-.228-1 0-.409.068-.749.206-1.02s.333-.477.581-.612.536-.207.865-.207zm.006.679c-.185 0-.34.059-.462.178s-.191.306-.21.56h1.337c-.002-.142-.028-.268-.078-.379s-.121-.198-.219-.262a.64.64 0 0 0-.368-.097z" class="B"/><use xlink:href="#R" class="B"/><path d="M442.222 121.469h-2.63v-4.572h2.63v.794h-1.662v1.004h1.546v.794h-1.546v1.179h1.662v.801zm1.986.062a1.17 1.17 0 0 1-.953-.456c-.243-.307-.365-.756-.365-1.348 0-.598.124-1.05.372-1.357s.571-.463.971-.463a1.29 1.29 0 0 1 .44.069c.127.046.237.107.328.185a1.21 1.21 0 0 1 .238.259h.031l-.047-.294c-.017-.131-.025-.266-.025-.403v-1.12h.956v4.866h-.731l-.184-.454h-.041a1.15 1.15 0 0 1-.228.263c-.09.077-.197.138-.322.184a1.27 1.27 0 0 1-.44.069zm.334-.76c.26 0 .443-.077.55-.231s.165-.391.172-.703v-.104c0-.34-.052-.599-.157-.778s-.297-.272-.581-.272c-.21 0-.374.09-.493.272s-.178.442-.178.785.06.599.178.772.29.259.509.259zm3.561-2.798v3.496h-.953v-3.496h.953zm-.475-1.37a.66.66 0 0 1 .365.1c.102.065.153.187.153.366s-.051.3-.153.369a.65.65 0 0 1-.365.1c-.144 0-.267-.033-.369-.1s-.15-.192-.15-.369.05-.301.15-.366.225-.1.369-.1zm2.948 4.168a1.44 1.44 0 0 0 .303-.031l.296-.078v.71a1.78 1.78 0 0 1-.381.112c-.15.032-.314.047-.493.047-.208 0-.396-.033-.562-.1a.81.81 0 0 1-.391-.353c-.093-.169-.14-.404-.14-.704v-1.685h-.456v-.403l.525-.319.274-.738h.609v.744h.978v.716h-.978v1.685c0 .134.038.234.113.3s.178.097.303.097z" fill="#2bbbf0"/><use xlink:href="#R" stroke="#2bbbf0" class="O"/><path d="M468.957 119.41c.127 0 .229-.102.229-.228s-.102-.229-.229-.229-.228.102-.228.229.102.228.228.228z" class="D I O S"/><path d="M468.957 122.155a.23.23 0 0 0 .229-.229.23.23 0 0 0-.229-.229c-.126 0-.228.103-.228.229s.102.229.228.229z" class="D I O S"/><path d="M468.957 116.666a.23.23 0 0 0 .229-.229c0-.126-.102-.228-.229-.228s-.228.102-.228.228.102.229.228.229z" class="D I O S"/><mask id="B" maskUnits="userSpaceOnUse" x="386" y="129" width="158" height="12"><path d="M543.424 129.701H386.267v10.978h157.157v-10.978z" class="B"/></mask><g mask="url(#B)"><path d="M394.544 136.426l-1.881.365c-1.271-.639-2.056-1.372-2.513-2.516l.352-1.889-.665-1.77h-1.713c-.516 0-.921.426-.844.936.192 1.273.758 3.582 2.414 5.239 1.738 1.74 4.242 2.495 5.62 2.796.532.116 1.004-.3 1.004-.845v-1.64l-1.774-.676z" class="D J K"/><path d="M403.836 135.007h1.287v.425h-1.287v1.326h-.428v-1.326h-1.286v-.425h1.286v-1.332h.428v1.332zm4.763-1.035c0 .205-.04.382-.119.532s-.189.273-.331.369-.308.159-.5.196v.025c.363.046.634.163.815.351s.275.433.275.738a1.32 1.32 0 0 1-.187.703c-.123.205-.312.365-.568.482s-.58.172-.978.172c-.242 0-.465-.02-.671-.06a2.31 2.31 0 0 1-.588-.191v-.488c.19.095.396.168.619.223a2.84 2.84 0 0 0 .646.078c.417 0 .717-.082.903-.247s.278-.394.278-.682c0-.198-.052-.357-.156-.478s-.25-.213-.444-.269a2.41 2.41 0 0 0-.693-.088h-.456v-.443h.459a1.62 1.62 0 0 0 .631-.11.86.86 0 0 0 .393-.307c.092-.133.138-.29.138-.472 0-.231-.077-.409-.231-.534s-.364-.191-.628-.191a1.85 1.85 0 0 0-.444.05 1.81 1.81 0 0 0-.374.137 3.41 3.41 0 0 0-.35.204l-.263-.357c.167-.129.37-.24.61-.334s.511-.141.815-.141c.466 0 .816.107 1.049.319s.35.484.35.813zm2.28.71c.31 0 .579.053.808.159a1.19 1.19 0 0 1 .531.457c.127.2.191.443.191.728 0 .313-.068.583-.203.81a1.35 1.35 0 0 1-.584.522c-.254.121-.558.182-.912.182-.237 0-.458-.021-.662-.063s-.376-.104-.515-.188v-.493a2.03 2.03 0 0 0 .552.218 2.56 2.56 0 0 0 .631.082 1.55 1.55 0 0 0 .606-.11c.175-.075.31-.187.406-.337a1.04 1.04 0 0 0 .147-.573c0-.304-.094-.539-.281-.703s-.479-.25-.881-.25a3.16 3.16 0 0 0-.425.031l-.381.069-.262-.172.175-2.145h2.27v.475h-1.827l-.115 1.379.306-.05c.125-.019.266-.028.425-.028zm3.725-1.842c.265 0 .499.042.703.125s.363.207.478.369a.99.99 0 0 1 .175.594c0 .186-.041.348-.122.488s-.186.259-.322.363-.285.193-.449.275c.195.089.371.19.527.303a1.33 1.33 0 0 1 .375.397c.092.152.137.333.137.541a1.17 1.17 0 0 1-.187.666c-.123.186-.296.328-.518.429s-.484.15-.784.15c-.323 0-.598-.048-.825-.144s-.396-.238-.515-.419-.175-.404-.175-.66c0-.21.045-.393.134-.547s.209-.291.356-.403.31-.208.485-.285c-.152-.084-.292-.178-.419-.284s-.225-.231-.3-.373-.109-.31-.109-.5c0-.231.058-.427.175-.588s.28-.285.484-.368a1.79 1.79 0 0 1 .696-.129zm-.993 3.48a.75.75 0 0 0 .247.578c.164.151.413.226.746.226.317 0 .561-.075.734-.226s.259-.351.259-.596a.69.69 0 0 0-.118-.401 1.13 1.13 0 0 0-.338-.313 2.91 2.91 0 0 0-.515-.25l-.112-.04c-.192.079-.355.167-.491.265s-.235.206-.306.329a.85.85 0 0 0-.106.428zm.987-3.055c-.246 0-.447.06-.603.179s-.234.285-.234.506c0 .158.038.293.112.404s.182.202.313.281.278.149.44.216c.158-.067.299-.14.422-.219a.97.97 0 0 0 .29-.288c.071-.11.106-.243.106-.397 0-.221-.078-.39-.234-.506s-.358-.176-.612-.176zm5.262 1.417c.311 0 .58.053.809.159a1.19 1.19 0 0 1 .531.457c.127.2.191.443.191.728 0 .313-.068.583-.203.81a1.35 1.35 0 0 1-.584.522c-.254.121-.558.182-.912.182a3.28 3.28 0 0 1-.662-.063c-.204-.042-.376-.104-.516-.188v-.493a2.04 2.04 0 0 0 .553.218 2.56 2.56 0 0 0 .631.082 1.55 1.55 0 0 0 .606-.11c.175-.075.31-.187.406-.337a1.04 1.04 0 0 0 .147-.573c0-.304-.094-.539-.281-.703s-.479-.25-.881-.25a3.16 3.16 0 0 0-.425.031l-.381.069-.262-.172.175-2.145h2.27v.475h-1.827l-.115 1.379.306-.05c.125-.019.266-.028.424-.028zm5.234.503c0 .371-.027.703-.084.994s-.145.539-.265.741a1.24 1.24 0 0 1-.469.463c-.191.105-.422.157-.69.157-.339 0-.621-.093-.843-.279s-.387-.453-.497-.803-.162-.777-.162-1.273a4.71 4.71 0 0 1 .147-1.257c.099-.352.26-.622.48-.809s.513-.285.875-.285c.343 0 .627.094.85.281s.388.455.496.807.162.771.162 1.263zm-2.489 0c0 .425.033.78.097 1.063s.169.496.313.638a.79.79 0 0 0 .571.21c.235 0 .425-.07.569-.21s.25-.351.315-.635.1-.638.1-1.066c0-.419-.033-.769-.097-1.051s-.169-.495-.312-.637-.335-.216-.575-.216-.431.072-.574.216-.248.354-.313.637-.094.632-.094 1.051zm6.724 2.292h-.506v-3.239-.316l.007-.244.015-.228-.181.172-.209.172-.522.419-.272-.353 1.237-.954h.431v4.571zm4.722 0h-2.991v-.435l1.221-1.241.571-.613c.156-.179.275-.355.356-.528s.122-.367.122-.575c0-.259-.077-.456-.231-.591s-.353-.207-.603-.207c-.219 0-.412.038-.581.113s-.341.181-.518.319l-.278-.35c.121-.103.252-.193.393-.272a2.15 2.15 0 0 1 .459-.188c.165-.046.34-.069.525-.069.281 0 .524.049.728.147s.361.238.471.419.169.397.169.647a1.6 1.6 0 0 1-.144.676c-.096.206-.23.411-.403.616a10.05 10.05 0 0 1-.606.644l-.993.991v.022h2.333v.475zm3.492-3.505c0 .205-.04.382-.119.532s-.189.273-.331.369a1.37 1.37 0 0 1-.5.196v.025c.363.046.634.163.815.351s.275.433.275.738a1.32 1.32 0 0 1-.187.703c-.123.205-.312.365-.568.482s-.58.172-.978.172c-.242 0-.465-.02-.671-.06a2.31 2.31 0 0 1-.588-.191v-.488c.19.095.396.168.619.223a2.84 2.84 0 0 0 .647.078c.416 0 .717-.082.902-.247s.278-.394.278-.682c0-.198-.052-.357-.156-.478s-.25-.213-.444-.269-.422-.088-.693-.088h-.456v-.443h.459a1.62 1.62 0 0 0 .631-.11.87.87 0 0 0 .394-.307c.091-.133.137-.29.137-.472 0-.231-.077-.409-.232-.534s-.363-.191-.627-.191a1.84 1.84 0 0 0-.443.05c-.134.033-.259.079-.375.137a3.52 3.52 0 0 0-.35.204l-.262-.357c.166-.129.369-.24.609-.334s.511-.141.815-.141c.466 0 .816.107 1.049.319s.35.484.35.813zm.777 2.017v-.463h1.549v.463h-1.549zm5.138-.804a5.3 5.3 0 0 1-.084.994c-.057.292-.145.539-.266.741s-.277.357-.468.463-.422.157-.69.157c-.34 0-.621-.093-.844-.279s-.386-.453-.496-.803-.163-.777-.163-1.273a4.71 4.71 0 0 1 .147-1.257c.1-.352.26-.622.481-.809s.512-.285.875-.285c.343 0 .626.094.849.281s.388.455.496.807.163.771.163 1.263zm-2.489 0c0 .425.032.78.096 1.063s.169.496.313.638a.79.79 0 0 0 .572.21c.235 0 .424-.07.568-.21s.251-.351.315-.635.1-.638.1-1.066c0-.419-.032-.769-.097-1.051s-.168-.495-.312-.637-.335-.216-.574-.216-.432.072-.575.216-.248.354-.313.637-.093.632-.093 1.051zm5.062 2.292h-.506v-3.239-.316l.007-.244.015-.228-.181.172-.209.172-.522.419-.271-.353 1.236-.954h.431v4.571zm1.671-1.488v-.463h1.549v.463h-1.549zm5.138-.804c0 .371-.029.703-.085.994s-.145.539-.265.741a1.24 1.24 0 0 1-.469.463c-.192.105-.421.157-.69.157-.339 0-.62-.093-.843-.279s-.386-.453-.497-.803-.162-.777-.162-1.273c0-.488.049-.906.146-1.257s.261-.622.482-.809.512-.285.874-.285c.344 0 .627.094.849.281s.389.455.497.807.163.771.163 1.263zm-2.49 0c0 .425.033.78.097 1.063s.169.496.312.638.337.21.572.21.425-.07.568-.21.251-.351.316-.635.1-.638.1-1.066c0-.419-.032-.769-.097-1.051s-.169-.495-.312-.637-.336-.216-.575-.216-.431.072-.575.216-.247.354-.312.637-.094.632-.094 1.051zm5.063 2.292h-.506v-3.239-.316l.006-.244.016-.228-.182.172-.209.172-.521.419-.272-.353 1.237-.954h.431v4.571z" class="G"/></g><path d="M387.181 148.912c0 2.526 2.045 4.574 4.569 4.574s4.568-2.048 4.568-4.574-2.045-4.574-4.568-4.574-4.569 2.048-4.569 4.574z" class="D J K"/><path d="M392.206 144.361s1.371 1.806 1.371 4.551-1.371 4.551-1.371 4.551m-.913 0s-1.371-1.807-1.371-4.551 1.371-4.551 1.371-4.551m-3.824 6.152h8.561m-8.561-3.202h8.561" class="D H J K"/><path d="M404.967 151.199h-2.542v-4.572h2.542v.469h-2.011v1.479h1.895v.463h-1.895v1.692h2.011v.469zm2.555-3.49c.406 0 .713.1.921.3s.312.518.312.957v2.233h-.512V149c0-.285-.066-.499-.197-.64s-.328-.213-.596-.213c-.379 0-.646.107-.8.322s-.231.526-.231.935v1.795h-.518v-3.427h.418l.078.494h.028a1.02 1.02 0 0 1 .278-.303c.113-.084.239-.146.378-.188s.286-.066.441-.066zm3.257 5.028c-.45 0-.796-.084-1.04-.253s-.366-.402-.366-.704c0-.215.068-.398.204-.55s.326-.253.568-.304a.61.61 0 0 1-.231-.187c-.063-.083-.094-.179-.094-.288a.54.54 0 0 1 .103-.328c.071-.096.178-.188.322-.275-.179-.073-.325-.196-.437-.369s-.166-.378-.166-.61c0-.246.051-.455.153-.628s.25-.309.444-.401.427-.137.702-.137c.061 0 .121.003.181.009l.178.022a1.2 1.2 0 0 1 .147.031h1.174v.335l-.63.078c.062.081.114.179.156.294a1.13 1.13 0 0 1 .062.382c0 .341-.115.613-.346.816s-.549.3-.953.3c-.096 0-.194-.009-.294-.025-.102.056-.18.119-.234.187s-.078.149-.078.238c0 .067.02.12.059.159s.101.07.179.088.169.025.277.025h.603c.373 0 .658.078.856.235s.3.384.3.684c0 .379-.154.67-.462.873s-.754.303-1.337.303zm.015-.406c.284 0 .518-.03.703-.088s.327-.139.419-.247a.56.56 0 0 0 .14-.382c0-.137-.031-.241-.094-.312s-.154-.115-.274-.138a2.24 2.24 0 0 0-.444-.037h-.593c-.154 0-.289.024-.403.072s-.203.119-.265.212a.63.63 0 0 0-.091.35c0 .186.078.327.234.422s.379.148.668.148zm.135-2.74c.248 0 .434-.062.559-.187s.187-.308.187-.547c0-.257-.063-.448-.19-.576s-.315-.194-.562-.194c-.238 0-.421.067-.55.201s-.191.324-.191.578c0 .234.065.413.194.538s.313.187.553.187zm2.889 1.608h-.522v-4.866h.522v4.866zm1.614-3.427v3.427h-.518v-3.427h.518zm-.253-1.282a.31.31 0 0 1 .219.084c.062.054.094.14.094.257s-.032.2-.094.256a.31.31 0 0 1-.219.084.32.32 0 0 1-.225-.084c-.058-.056-.087-.142-.087-.256s.029-.203.087-.257a.32.32 0 0 1 .225-.084zm3.567 3.771c0 .219-.055.403-.166.553s-.264.26-.468.335-.444.112-.725.112c-.239 0-.446-.018-.621-.056s-.328-.091-.459-.16v-.478c.139.069.306.131.499.187s.392.085.594.085c.295 0 .51-.048.643-.144s.2-.226.2-.391c0-.093-.027-.176-.081-.247s-.141-.142-.266-.209-.298-.144-.518-.225l-.569-.247c-.158-.084-.281-.185-.368-.303s-.128-.273-.128-.463c0-.29.116-.512.35-.666s.543-.235.924-.235a2.53 2.53 0 0 1 .578.063c.181.039.35.094.506.162l-.175.416c-.142-.06-.293-.111-.453-.153s-.324-.062-.49-.062c-.24 0-.424.039-.553.118s-.191.188-.191.326c0 .106.03.193.088.262a.86.86 0 0 0 .287.194l.519.212c.214.08.399.162.555.247a1 1 0 0 1 .36.307c.085.119.128.272.128.46zm1.352-3.928v1.454l-.006.254-.022.231h.034c.071-.121.16-.222.269-.303a1.16 1.16 0 0 1 .375-.188c.139-.043.287-.065.443-.065.275 0 .504.043.687.131a.86.86 0 0 1 .415.406c.094.184.141.421.141.713v2.233h-.512V149c0-.285-.066-.499-.197-.64s-.328-.213-.596-.213c-.254 0-.458.049-.609.147s-.259.238-.325.425a2.12 2.12 0 0 0-.097.688v1.792h-.518v-4.866h.518zm6.056-.003h.434v6.42h-.434v-6.42zm6.842 3.652c0 .271-.068.503-.203.694a1.25 1.25 0 0 1-.562.435c-.242.1-.526.15-.853.15-.172 0-.336-.008-.49-.025s-.296-.041-.425-.072a1.85 1.85 0 0 1-.34-.115v-.51c.156.065.347.125.571.181a2.96 2.96 0 0 0 .706.082c.229 0 .423-.031.581-.091s.278-.151.359-.266.125-.256.125-.419c0-.156-.034-.286-.103-.391s-.183-.202-.343-.287-.375-.181-.65-.279a3.53 3.53 0 0 1-.512-.225 1.59 1.59 0 0 1-.372-.281c-.1-.105-.176-.225-.228-.363s-.075-.295-.075-.472a1.05 1.05 0 0 1 .184-.625c.125-.175.297-.309.516-.401s.473-.14.758-.14c.244 0 .469.022.675.069s.399.107.572.184l-.166.456a3.67 3.67 0 0 0-.525-.172 2.37 2.37 0 0 0-.568-.068c-.195 0-.361.029-.496.087s-.236.137-.307.241-.106.229-.106.372c0 .161.034.294.1.4s.177.202.325.285.348.167.593.256c.269.098.497.203.684.313s.331.242.428.4.147.355.147.597zm3.807-.503c0 .281-.037.533-.109.754s-.178.407-.316.559a1.37 1.37 0 0 1-.499.35c-.194.079-.414.119-.66.119-.228 0-.439-.04-.63-.119s-.354-.198-.494-.35-.244-.338-.322-.559-.112-.473-.112-.754c0-.375.064-.694.191-.957s.308-.466.543-.603.52-.21.846-.21a1.56 1.56 0 0 1 .819.21c.235.139.417.342.546.606s.197.581.197.954zm-2.605 0c0 .275.037.514.11.716s.185.359.337.469.348.165.587.165.432-.054.584-.165a.95.95 0 0 0 .34-.469c.074-.202.11-.441.11-.716s-.036-.509-.11-.707-.185-.354-.337-.462-.348-.163-.59-.163c-.356 0-.617.118-.784.353s-.247.562-.247.979zm6.328-1.707v3.427h-.425l-.075-.482h-.028a1 1 0 0 1-.275.3 1.2 1.2 0 0 1-.381.182 1.58 1.58 0 0 1-.447.062c-.27 0-.497-.044-.68-.131s-.322-.223-.416-.407-.137-.419-.137-.706v-2.245h.525v2.207c0 .286.064.499.193.641s.326.209.59.209c.254 0 .456-.047.606-.143s.261-.237.328-.422.1-.417.1-.688v-1.804h.522zm2.201 3.064a1.59 1.59 0 0 0 .263-.022 1.22 1.22 0 0 0 .218-.053v.403c-.06.027-.144.05-.253.069s-.21.028-.312.028a1.25 1.25 0 0 1-.494-.094.76.76 0 0 1-.355-.325c-.088-.152-.132-.362-.132-.631v-2.033h-.487v-.253l.491-.203.206-.744h.312v.794h1.002v.406h-1.002v2.017c0 .215.049.375.147.481s.232.16.396.16zm1.693-4.503v1.454l-.006.254-.022.231h.034a1.02 1.02 0 0 1 .269-.303 1.16 1.16 0 0 1 .375-.188c.139-.043.287-.065.443-.065.275 0 .504.043.687.131s.324.223.416.406.14.421.14.713v2.233h-.512V149c0-.285-.066-.499-.197-.64s-.328-.213-.596-.213c-.254 0-.457.049-.609.147a.81.81 0 0 0-.325.425 2.12 2.12 0 0 0-.097.688v1.792h-.519v-4.866h.519zm3.113 3.377v-.463h1.55v.463h-1.55zm5.294 1.489l-.562-1.451h-1.83l-.559 1.451h-.537l1.786-4.59h.478l1.774 4.59h-.55zm-.721-1.923l-.534-1.441-.063-.185-.084-.266-.072-.222-.069.256-.068.235-.06.182-.543 1.441h1.493zm3.351-1.098h-.853v3.021h-.518v-3.021h-.606v-.25l.606-.172v-.228c0-.288.043-.521.128-.701a.84.84 0 0 1 .371-.4c.163-.085.36-.128.594-.128a1.8 1.8 0 0 1 .359.034c.111.023.207.049.291.079l-.135.409-.241-.062c-.087-.021-.176-.031-.268-.031-.198 0-.345.064-.44.193s-.141.328-.141.601v.25h.853v.406zm2.186-.469c.069 0 .14.004.215.013s.142.016.2.028l-.065.482a1.34 1.34 0 0 0-.188-.035l-.193-.013a.93.93 0 0 0-.391.085c-.121.054-.227.133-.318.237s-.164.227-.216.373-.078.304-.078.481v1.839h-.521v-3.427h.43l.057.632h.021c.071-.128.157-.243.257-.348s.215-.19.347-.253.28-.094.443-.094zm1.58.063v3.427h-.518v-3.427h.518zm-.253-1.282a.31.31 0 0 1 .219.084c.062.054.093.14.093.257s-.031.2-.093.256a.31.31 0 0 1-.219.084.32.32 0 0 1-.225-.084c-.058-.056-.087-.142-.087-.256s.029-.203.087-.257a.32.32 0 0 1 .225-.084zm2.724 4.771a1.69 1.69 0 0 1-.816-.19c-.235-.128-.418-.322-.549-.582s-.197-.589-.197-.985c0-.415.069-.754.206-1.016s.331-.461.575-.588.52-.191.83-.191a2.28 2.28 0 0 1 .494.053c.16.034.291.077.393.129l-.156.434c-.104-.041-.225-.079-.362-.112s-.263-.051-.381-.051c-.238 0-.435.052-.593.154s-.274.252-.354.45-.115.442-.115.732a1.96 1.96 0 0 0 .113.709.95.95 0 0 0 .34.451c.152.102.341.153.568.153.181 0 .345-.019.491-.057s.277-.085.396-.137v.463c-.114.058-.242.103-.384.134s-.306.047-.499.047zm2.976-3.545c.408 0 .711.091.909.274s.296.477.296.879v2.33h-.378l-.1-.507h-.025a1.86 1.86 0 0 1-.3.316 1.12 1.12 0 0 1-.362.191c-.135.041-.302.062-.5.062-.207 0-.393-.036-.555-.11a.86.86 0 0 1-.381-.331c-.092-.148-.138-.335-.138-.563 0-.341.136-.604.406-.787s.683-.284 1.237-.3l.59-.026v-.209c0-.296-.063-.504-.19-.623s-.306-.177-.537-.177c-.179 0-.35.026-.512.078a3.46 3.46 0 0 0-.463.184l-.159-.394c.154-.079.331-.147.531-.203a2.33 2.33 0 0 1 .631-.084zm.693 1.794l-.522.022c-.426.017-.727.087-.902.209s-.263.298-.263.523c0 .195.06.34.179.434s.275.141.471.141c.304 0 .553-.085.746-.253s.291-.422.291-.76v-.316z" class="G"/><path d="M522.918 11.344H384.886c-1.702 0-3.082 1.591-3.082 3.554V154.4c0 1.963 1.38 3.554 3.082 3.554h138.032c1.702 0 3.082-1.591 3.082-3.554V14.898c0-1.963-1.38-3.554-3.082-3.554z" stroke="#dfdfdf" stroke-width=".46"/></g><g fill="#faec22"><circle opacity=".2" cx="503.25" cy="174.655" r="23"/><circle opacity=".38" cx="502.645" cy="175.26" r="12.711"/><circle cx="502.644" cy="175.26" r="7.263"/></g><defs><filter id="C" x="95.465" y="141.197" width="56.635" height="62.444" filterUnits="userSpaceOnUse" class="T"><feFlood result="A" class="U"/><feColorMatrix in="SourceAlpha" values="0 0 0 0 0 0 0 0 0 0 0 0 0 0 0 0 0 0 127 0" result="B"/><feOffset dy="1.45217"/><feGaussianBlur stdDeviation="3.267"/><feComposite in2="B" operator="out"/><feColorMatrix values="0 0 0 0 0 0 0 0 0 0 0 0 0 0 0 0 0 0 0.09 0"/><feBlend in2="A"/><feBlend in="SourceGraphic"/></filter><filter id="D" x="201" y="249.28" width="318" height="83" filterUnits="userSpaceOnUse" class="T"><feFlood result="A" class="U"/><feColorMatrix in="SourceAlpha" values="0 0 0 0 0 0 0 0 0 0 0 0 0 0 0 0 0 0 127 0" result="B"/><feOffset dy="4"/><feGaussianBlur stdDeviation="2"/><feComposite in2="B" operator="out"/><feColorMatrix values="0 0 0 0 0 0 0 0 0 0 0 0 0 0 0 0 0 0 0.25 0"/><feBlend in2="A"/><feBlend in="SourceGraphic"/></filter><filter id="E" x="366.574" y=".114" width="174.656" height="177.071" filterUnits="userSpaceOnUse" class="T"><feFlood result="A" class="U"/><feColorMatrix in="SourceAlpha" values="0 0 0 0 0 0 0 0 0 0 0 0 0 0 0 0 0 0 127 0" result="B"/><feOffset dy="4"/><feGaussianBlur stdDeviation="7.5"/><feComposite in2="B" operator="out"/><feColorMatrix values="0 0 0 0 0 0 0 0 0 0 0 0 0 0 0 0 0 0 0.07 0"/><feBlend in2="A"/><feBlend in="SourceGraphic"/></filter><clipPath id="F"><path d="M0 66.28a6 6 0 0 1 6-6h500.838v305H6a6 6 0 0 1-6-6v-293z" class="B"/></clipPath><clipPath id="G"><rect y="60.28" width="506.838" height="305" rx="3.588" class="B"/></clipPath><clipPath id="H"><path transform="translate(409.956 66.111)" d="M0 0h30.826v6.279H0z" class="B"/></clipPath><clipPath id="I"><path transform="translate(494.279 217.265)" d="M0 0h5.382v3.588H0z" class="B"/></clipPath><clipPath id="J"><path transform="translate(79.838 68.354)" d="M0 0h4.037v2.691H0z" class="B"/></clipPath><clipPath id="K"><path transform="translate(6.728 70.596)" d="M0 0h8.074v7.99H0z" class="B"/></clipPath><clipPath id="L"><rect x="140.39" y="120.831" width="246.691" height="62.794" rx=".897" class="B"/></clipPath><clipPath id="M"><path transform="translate(6.728 127.111)" d="M0 0h8.971v9.419H0z" class="B"/></clipPath><clipPath id="N"><path transform="translate(6.728 143.707)" d="M0 0h8.971v8.971H0z" class="B"/></clipPath><clipPath id="O"><path d="M140.39 215.92h246.691v89.706H140.39z" class="B"/></clipPath><path id="P" d="M21.529 127.111h68.176v.449H21.529z"/><path id="Q" d="M389.031 17.151a.46.46 0 0 1 .869 0l.181.557c.061.188.236.316.434.316h.586a.46.46 0 0 1 .268.827l-.474.345a.46.46 0 0 0-.166.511l.181.558a.46.46 0 0 1-.703.511l-.473-.345c-.16-.116-.377-.116-.537 0l-.474.345a.46.46 0 0 1-.703-.511l.181-.558a.46.46 0 0 0-.166-.511l-.474-.344a.46.46 0 0 1 .269-.827h.585c.198 0 .374-.128.435-.316l.181-.557z"/><path id="R" d="M456.623 111.863H433.78a1.83 1.83 0 0 0-1.827 1.83v10.977a1.83 1.83 0 0 0 1.827 1.83h22.843a1.83 1.83 0 0 0 1.827-1.83v-10.977a1.83 1.83 0 0 0-1.827-1.83z"/></defs></svg>