<svg xmlns="http://www.w3.org/2000/svg" width="480" height="458" fill="none" xmlns:v="https://vecta.io/nano"><style><![CDATA[.B{stroke:#dfdfdf}.C{stroke-width:.559}.D{fill:#fff}.E{stroke:#35d690}.F{stroke-width:.692}.G{stroke-linecap:round}.H{fill:#092340}.I{fill:#eee}.J{stroke-linejoin:round}.K{fill:#d3dae3}.L{fill:#5b5b5b}.M{fill:#35d690}.N{color-interpolation-filters:sRGB}.O{flood-opacity:0}.P{fill:#2b4e76}.Q{stroke-width:.923}]]></style><g clip-path="url(#H)"><g filter="url(#B)"><path d="M17.71 33.334h204.249v401.414c0 2.608-2.114 4.723-4.722 4.723H22.432c-2.608 0-4.722-2.115-4.722-4.723V33.334z" class="D"/><path d="M51.657 406.745l-.96-3.129h-.025l.016.339.024.477.011.458v1.855h-.756v-3.988h1.151l.944 3.05h.016l1.001-3.05h1.151v3.988h-.788v-1.888l.006-.433.019-.467.016-.335h-.024l-1.028 3.123h-.775zm6.582 0l-.289-.949h-1.454l-.289.949h-.911l1.408-4.004h1.034l1.413 4.004h-.911zm-.491-1.658l-.289-.928-.074-.237-.09-.297-.071-.265-.076.278-.09.311-.063.21-.286.928h1.039zm4.819.551c0 .236-.057.442-.172.616a1.1 1.1 0 0 1-.502.404 2.01 2.01 0 0 1-.797.142c-.138 0-.274-.009-.407-.028s-.257-.044-.379-.079a2.4 2.4 0 0 1-.344-.133v-.786c.189.084.386.159.589.226a1.9 1.9 0 0 0 .606.101c.138 0 .249-.018.333-.054s.147-.087.185-.15.057-.137.057-.218a.36.36 0 0 0-.101-.257c-.067-.071-.16-.137-.278-.199l-.395-.199-.303-.158c-.109-.064-.213-.141-.311-.232a1.12 1.12 0 0 1-.243-.33c-.062-.131-.093-.288-.093-.469a1.1 1.1 0 0 1 .164-.611 1.03 1.03 0 0 1 .466-.388c.204-.091.444-.136.72-.136a2.33 2.33 0 0 1 .592.073c.189.048.386.117.592.208l-.273.657-.494-.172a1.63 1.63 0 0 0-.445-.062c-.105 0-.196.017-.27.051s-.131.08-.169.142-.057.13-.057.21a.36.36 0 0 0 .082.24c.056.064.14.126.251.186l.42.21c.204.096.377.197.521.303a1.1 1.1 0 0 1 .335.368c.078.14.117.315.117.524zm3.636 0c0 .236-.057.442-.172.616a1.1 1.1 0 0 1-.502.404 2.01 2.01 0 0 1-.796.142c-.138 0-.274-.009-.406-.028a2.71 2.71 0 0 1-.379-.079c-.12-.036-.235-.081-.344-.133v-.786c.189.084.386.159.589.226s.406.101.606.101c.138 0 .249-.018.333-.054s.147-.087.185-.15.057-.137.057-.218a.36.36 0 0 0-.101-.257c-.067-.071-.16-.137-.278-.199l-.395-.199-.303-.158c-.109-.064-.213-.141-.311-.232a1.12 1.12 0 0 1-.243-.33c-.062-.131-.093-.288-.093-.469a1.1 1.1 0 0 1 .164-.611 1.03 1.03 0 0 1 .466-.388c.204-.091.444-.136.72-.136a2.33 2.33 0 0 1 .592.073c.189.048.386.117.592.208l-.273.657-.494-.172a1.63 1.63 0 0 0-.445-.062c-.105 0-.195.017-.27.051s-.131.08-.169.142-.057.13-.057.21a.36.36 0 0 0 .082.24c.056.064.14.126.251.186l.42.21c.204.096.377.197.521.303a1.1 1.1 0 0 1 .335.368c.078.14.117.315.117.524zm5.588 1.107h-2.297v-3.988h2.297v.693h-1.451v.876h1.35v.692h-1.35v1.029h1.451v.698zm3.082 0l-.96-3.129h-.025l.016.339.025.477.011.458v1.855h-.756v-3.988h1.151l.944 3.05h.016l1.001-3.05h1.151v3.988h-.788v-1.888l.005-.433.019-.467.016-.335h-.025l-1.028 3.123h-.775zm6.582 0l-.289-.949h-1.454l-.289.949h-.911l1.407-4.004h1.034l1.413 4.004h-.911zm-.491-1.658l-.289-.928-.074-.237-.09-.297-.071-.265-.076.278-.09.311-.063.21-.286.928h1.039zm2.465 1.658v-3.988h.846v3.988h-.846zm2.408 0v-3.988h.846v3.29H88.3v.698h-2.463zm6.072-1.107c0 .236-.057.442-.172.616a1.1 1.1 0 0 1-.502.404 2.01 2.01 0 0 1-.796.142c-.138 0-.274-.009-.406-.028s-.257-.044-.379-.079-.235-.081-.344-.133v-.786c.189.084.386.159.589.226a1.9 1.9 0 0 0 .606.101c.138 0 .249-.018.333-.054s.147-.087.185-.15.057-.137.057-.218a.36.36 0 0 0-.101-.257c-.067-.071-.16-.137-.278-.199l-.396-.199-.303-.158c-.109-.064-.213-.141-.311-.232a1.12 1.12 0 0 1-.243-.33c-.062-.131-.093-.288-.093-.469a1.1 1.1 0 0 1 .164-.611 1.03 1.03 0 0 1 .467-.388c.204-.091.444-.136.72-.136a2.33 2.33 0 0 1 .592.073c.189.048.386.117.592.208l-.273.657-.494-.172a1.63 1.63 0 0 0-.445-.062c-.105 0-.195.017-.27.051s-.131.08-.169.142-.057.13-.057.21a.36.36 0 0 0 .082.24c.056.064.14.126.251.186l.42.21c.204.096.377.197.521.303s.257.226.335.368.117.315.117.524zm5.645 0c0 .236-.057.442-.172.616a1.1 1.1 0 0 1-.502.404 2.01 2.01 0 0 1-.797.142c-.138 0-.274-.009-.406-.028s-.257-.044-.379-.079-.235-.081-.344-.133v-.786c.189.084.386.159.589.226a1.9 1.9 0 0 0 .606.101c.138 0 .249-.018.333-.054s.147-.087.185-.15.057-.137.057-.218a.36.36 0 0 0-.101-.257c-.067-.071-.16-.137-.278-.199l-.396-.199-.303-.158c-.109-.064-.213-.141-.311-.232a1.12 1.12 0 0 1-.243-.33c-.062-.131-.093-.288-.093-.469a1.1 1.1 0 0 1 .164-.611 1.03 1.03 0 0 1 .466-.388c.204-.091.444-.136.72-.136a2.33 2.33 0 0 1 .592.073c.189.048.386.117.592.208l-.273.657-.494-.172a1.63 1.63 0 0 0-.445-.062c-.105 0-.196.017-.27.051s-.131.08-.169.142-.057.13-.057.21a.36.36 0 0 0 .082.24c.056.064.14.126.251.186l.42.21a3.12 3.12 0 0 1 .521.303c.145.103.257.226.336.368s.117.315.117.524zm3.578 1.107h-2.296v-3.988h2.296v.693H99.68v.876h1.351v.692H99.68v1.029h1.451v.698zm4.932 0h-1.075l-1.735-3.017h-.024l.019.379.016.382.016.379v1.877h-.755v-3.988h1.066l1.733 2.987h.019l-.014-.368-.016-.366-.011-.365v-1.888h.761v3.988zm3.103 0h-.845v-3.284h-1.083v-.704h3.011v.704h-1.083v3.284z" class="H"/><path d="M17.825 303.883h204.349" class="B C"/><path d="M17.825 384.305h204.349" class="B C"/><rect x="27.613" y="337.022" width="180.16" height="23.932" rx="2.235" class="D"/><rect x="27.613" y="337.022" width="180.16" height="23.932" rx="2.235" stroke-width="1.117" class="B"/><path d="M33.154 318.392a2.96 2.96 0 0 1-.106.816c-.069.245-.176.458-.322.638s-.33.321-.554.423l.96 1.072h-1.083l-.731-.895h-.033-.03c-.326 0-.607-.048-.846-.145s-.436-.238-.592-.42-.27-.399-.346-.652a2.9 2.9 0 0 1-.115-.843c0-.412.067-.772.202-1.077s.345-.546.627-.715.64-.253 1.075-.253.788.084 1.067.253a1.53 1.53 0 0 1 .622.715c.136.307.205.668.205 1.083zm-2.91 0c0 .278.034.518.104.72s.181.355.33.464.342.161.578.161.435-.054.584-.161.257-.264.325-.464.104-.442.104-.72c0-.418-.078-.748-.235-.988s-.414-.36-.772-.36c-.238 0-.433.055-.584.164a.93.93 0 0 0-.33.464c-.069.2-.104.44-.104.72zm7.542-1.989v2.581c0 .274-.061.523-.183.745s-.303.394-.548.523-.551.194-.922.194c-.527 0-.929-.135-1.206-.404s-.415-.625-.415-1.069v-2.57h.843v2.442c0 .329.067.56.202.693s.334.199.597.199c.185 0 .336-.032.45-.096a.57.57 0 0 0 .256-.294c.055-.133.082-.302.082-.508v-2.436h.843zm1.535 3.988v-3.988h.846v3.988h-.846zm4.102-3.341c-.162 0-.306.032-.431.095a.86.86 0 0 0-.314.27 1.31 1.31 0 0 0-.191.429c-.044.167-.066.355-.066.564 0 .282.035.523.104.723s.18.35.327.456.337.155.57.155a2.23 2.23 0 0 0 .486-.054c.164-.037.341-.089.532-.156v.709c-.176.073-.35.125-.521.156s-.363.049-.576.049c-.411 0-.749-.085-1.015-.254a1.53 1.53 0 0 1-.587-.714c-.127-.308-.191-.666-.191-1.075 0-.302.041-.578.123-.829s.202-.469.36-.652.354-.326.586-.426.5-.15.802-.15c.198 0 .397.026.595.076a3.02 3.02 0 0 1 .573.205l-.273.687-.45-.185c-.151-.053-.299-.079-.445-.079zm5.635 3.341h-.96l-1.045-1.68-.357.256v1.424h-.846v-3.988h.846v1.825l.166-.234.166-.235 1.08-1.356h.938l-1.391 1.765 1.402 2.223zm3.07 0v-3.988h.846v3.29h1.617v.698h-2.463zm3.717 0v-3.988h.846v3.988h-.846zm5.946 0h-1.075l-1.735-3.017h-.025l.019.38.016.381.016.38v1.876h-.756v-3.988h1.067l1.732 2.987h.019l-.014-.368-.016-.366-.011-.365v-1.888h.761v3.988zm4.773 0h-.96l-1.045-1.68-.357.256v1.424h-.846v-3.988h.846v1.825l.166-.234.166-.235 1.08-1.356h.938l-1.391 1.765 1.402 2.223zm3.415-1.107c0 .236-.057.442-.172.616s-.282.31-.502.404-.484.142-.796.142a3.02 3.02 0 0 1-.406-.027c-.131-.019-.257-.045-.379-.079a2.41 2.41 0 0 1-.344-.134v-.786l.589.227a1.93 1.93 0 0 0 .606.101c.138 0 .249-.019.333-.055s.147-.086.185-.15.057-.136.057-.218a.36.36 0 0 0-.101-.257c-.067-.071-.16-.137-.278-.199l-.396-.199-.303-.158c-.109-.064-.213-.141-.311-.232a1.12 1.12 0 0 1-.243-.33 1.09 1.09 0 0 1-.093-.469c0-.238.054-.442.164-.611s.265-.298.467-.388a1.77 1.77 0 0 1 .72-.136 2.33 2.33 0 0 1 .592.074 3.63 3.63 0 0 1 .592.207l-.273.657-.494-.171c-.145-.042-.294-.063-.445-.063a.63.63 0 0 0-.27.052.36.36 0 0 0-.169.142c-.038.06-.057.13-.057.21 0 .094.027.174.082.24s.14.125.251.185l.42.21c.204.096.377.197.521.303a1.11 1.11 0 0 1 .336.368c.078.14.117.315.117.524z" class="H"/><path d="M17.825 206.982h204.349" class="B C"/><path d="M17.825 115.355h204.349" class="B C"/><path d="M32.014 166.767c.362 0 .66.044.895.131s.412.219.526.396.172.399.172.668a1.04 1.04 0 0 1-.104.477 1.09 1.09 0 0 1-.273.347 1.63 1.63 0 0 1-.366.232l1.173 1.737H33.1l-.952-1.53h-.45v1.53h-.846v-3.988h1.162zm-.06.693h-.256v1.077h.273c.28 0 .48-.046.6-.139a.49.49 0 0 0 .183-.414c0-.189-.066-.324-.196-.404s-.33-.12-.603-.12zm5.441 3.295h-2.297v-3.988h2.297v.693h-1.451v.876h1.35v.692h-1.35v1.029h1.451v.698zm3.747-1.107c0 .236-.057.442-.172.616a1.1 1.1 0 0 1-.502.404c-.218.094-.484.142-.797.142-.138 0-.274-.009-.406-.028a2.71 2.71 0 0 1-.379-.079 2.41 2.41 0 0 1-.344-.133v-.786c.189.084.386.159.589.226s.406.101.606.101c.138 0 .249-.018.333-.054s.147-.087.186-.15.057-.137.057-.218a.36.36 0 0 0-.101-.257c-.067-.071-.16-.137-.278-.199l-.395-.199-.303-.158c-.109-.064-.213-.141-.311-.232a1.12 1.12 0 0 1-.243-.33c-.062-.131-.093-.288-.093-.469a1.1 1.1 0 0 1 .164-.611 1.03 1.03 0 0 1 .466-.388c.204-.091.444-.136.72-.136a2.33 2.33 0 0 1 .592.073c.189.048.386.117.592.208l-.273.657-.494-.172a1.63 1.63 0 0 0-.445-.062c-.105 0-.195.017-.27.051s-.131.08-.169.142-.057.13-.057.21a.36.36 0 0 0 .082.24c.056.064.14.126.251.186l.42.21c.204.096.377.197.521.303a1.1 1.1 0 0 1 .336.368c.078.14.117.315.117.524zm2.555-2.881c.515 0 .89.111 1.127.333s.355.524.355.911c0 .175-.026.342-.079.502s-.139.299-.259.423-.276.222-.475.294-.443.107-.734.107h-.363v1.418h-.846v-3.988h1.274zm-.044.693h-.385v1.184h.278c.158 0 .295-.021.412-.063a.55.55 0 0 0 .27-.196c.064-.089.096-.204.096-.344 0-.196-.055-.342-.164-.436s-.278-.145-.507-.145zm6.456 1.296c0 .307-.038.587-.114.84s-.193.467-.349.649-.351.322-.589.42-.52.145-.846.145-.607-.049-.846-.145-.436-.238-.592-.42a1.79 1.79 0 0 1-.346-.652 2.91 2.91 0 0 1-.115-.843c0-.413.067-.772.202-1.077a1.54 1.54 0 0 1 .627-.715c.282-.169.64-.254 1.075-.254s.788.085 1.067.254.487.407.622.715.204.668.204 1.083zm-2.91 0c0 .278.035.518.104.72s.181.354.33.464.342.16.578.16.435-.053.584-.16.257-.264.325-.464.104-.442.104-.72c0-.419-.078-.748-.235-.988s-.414-.36-.772-.36c-.238 0-.433.055-.584.164a.93.93 0 0 0-.33.464c-.069.2-.104.44-.104.72zm7.834 1.999h-1.075l-1.735-3.017H52.2l.019.379.016.382.016.379v1.877h-.756v-3.988h1.067l1.732 2.987h.019l-.014-.368-.016-.366-.011-.365v-1.888h.761v3.988zm3.919-1.107c0 .236-.057.442-.172.616a1.1 1.1 0 0 1-.502.404 2.01 2.01 0 0 1-.797.142c-.138 0-.274-.009-.406-.028a2.71 2.71 0 0 1-.379-.079c-.12-.036-.235-.081-.344-.133v-.786c.189.084.386.159.589.226s.406.101.606.101c.138 0 .249-.018.333-.054s.147-.087.185-.15.057-.137.057-.218a.36.36 0 0 0-.101-.257c-.067-.071-.16-.137-.278-.199l-.395-.199-.303-.158c-.109-.064-.213-.141-.311-.232a1.12 1.12 0 0 1-.243-.33c-.062-.131-.093-.288-.093-.469a1.1 1.1 0 0 1 .164-.611 1.03 1.03 0 0 1 .466-.388c.204-.091.444-.136.72-.136a2.33 2.33 0 0 1 .592.073c.189.048.386.117.592.208l-.273.657-.494-.172a1.63 1.63 0 0 0-.445-.062c-.105 0-.196.017-.27.051s-.131.08-.169.142-.057.13-.057.21a.36.36 0 0 0 .082.24c.056.064.14.126.251.186l.42.21c.204.096.377.197.521.303a1.1 1.1 0 0 1 .336.368c.078.14.117.315.117.524zm3.578 1.107h-2.297v-3.988h2.297v.693H61.08v.876h1.35v.692h-1.35v1.029h1.451v.698zm3.747-1.107c0 .236-.057.442-.172.616a1.1 1.1 0 0 1-.502.404c-.218.094-.484.142-.797.142-.138 0-.274-.009-.406-.028a2.71 2.71 0 0 1-.379-.079 2.41 2.41 0 0 1-.344-.133v-.786c.189.084.386.159.589.226s.406.101.606.101c.138 0 .249-.018.333-.054s.147-.087.186-.15.057-.137.057-.218a.36.36 0 0 0-.101-.257c-.067-.071-.16-.137-.278-.199l-.395-.199-.303-.158c-.109-.064-.213-.141-.311-.232a1.12 1.12 0 0 1-.243-.33c-.062-.131-.093-.288-.093-.469a1.1 1.1 0 0 1 .164-.611 1.03 1.03 0 0 1 .466-.388c.204-.091.444-.136.72-.136a2.33 2.33 0 0 1 .592.073c.189.048.386.117.592.208l-.273.657-.494-.172a1.63 1.63 0 0 0-.445-.062c-.106 0-.196.017-.27.051s-.131.08-.169.142-.057.13-.057.21a.36.36 0 0 0 .082.24c.056.064.14.126.251.186l.42.21c.204.096.377.197.521.303a1.1 1.1 0 0 1 .335.368c.078.14.117.315.117.524zm3.013-.423a4.49 4.49 0 0 1 .087-.889c.058-.291.148-.569.27-.832a3.31 3.31 0 0 1 .464-.737h.682a3.97 3.97 0 0 0-.581 1.157c-.131.422-.196.853-.196 1.295 0 .288.029.574.087.86a4.17 4.17 0 0 0 .259.821 3.98 3.98 0 0 0 .426.739h-.677a3.14 3.14 0 0 1-.464-.717 3.6 3.6 0 0 1-.27-.816c-.058-.287-.087-.581-.087-.881zm5.24 1.53h-2.788v-.586l1.001-1.012.486-.519a1.71 1.71 0 0 0 .267-.382.82.82 0 0 0 .085-.368c0-.158-.045-.276-.134-.354a.5.5 0 0 0-.352-.12c-.155 0-.305.035-.45.106s-.297.172-.456.303l-.458-.543c.115-.098.236-.191.363-.278a1.65 1.65 0 0 1 .447-.21c.171-.055.376-.082.614-.082.262 0 .487.047.674.142s.335.223.436.387.153.346.153.551c0 .22-.044.421-.131.603s-.215.362-.382.54l-.6.592-.513.483v.038h1.738v.709zm3.734-1.994c0 .322-.026.609-.076.862s-.129.467-.24.644a1.1 1.1 0 0 1-.431.404c-.178.092-.395.139-.649.139-.32 0-.583-.081-.788-.243s-.357-.398-.456-.704-.147-.675-.147-1.102.045-.799.134-1.105.238-.542.442-.706.476-.246.816-.246c.318 0 .58.082.786.246s.361.396.461.704.15.674.15 1.107zm-1.95 0c0 .304.016.557.049.761s.092.354.172.456.191.152.333.152a.4.4 0 0 0 .33-.15c.082-.101.14-.253.175-.455s.052-.458.052-.764a4.66 4.66 0 0 0-.052-.761c-.034-.204-.093-.356-.175-.458s-.19-.156-.33-.156-.253.052-.333.156-.137.254-.172.458-.049.457-.049.761zm4.997-1.994l-1.487 3.988h-.755l1.487-3.988h.756zm2.184-.052c.229 0 .44.036.633.107s.35.178.467.322.175.32.175.534c0 .16-.032.3-.096.42s-.146.226-.254.317a1.84 1.84 0 0 1-.365.234 2.68 2.68 0 0 1 .404.262 1.25 1.25 0 0 1 .311.347c.082.132.123.287.123.463 0 .222-.059.415-.177.579s-.282.287-.491.376-.452.134-.728.134c-.298 0-.552-.043-.761-.129s-.368-.207-.477-.365-.164-.351-.164-.573a1.05 1.05 0 0 1 .101-.475c.069-.134.162-.25.278-.346a1.9 1.9 0 0 1 .385-.251c-.118-.074-.226-.159-.325-.254s-.174-.202-.232-.324a.99.99 0 0 1-.085-.42c0-.211.059-.388.177-.529s.277-.249.472-.32a1.8 1.8 0 0 1 .63-.109zm-.622 2.979c0 .144.051.263.153.357s.256.139.458.139c.209 0 .365-.044.469-.133s.156-.21.156-.358c0-.101-.03-.19-.09-.267s-.132-.144-.221-.204l-.27-.172-.074-.038c-.116.052-.218.111-.305.177s-.153.139-.202.221a.53.53 0 0 0-.074.278zm.616-2.362a.54.54 0 0 0-.344.106c-.091.071-.136.171-.136.3a.44.44 0 0 0 .066.24.68.68 0 0 0 .177.178c.075.05.156.098.243.141.084-.04.162-.084.235-.133s.132-.108.177-.178a.44.44 0 0 0 .068-.248c0-.129-.046-.229-.139-.3s-.206-.106-.347-.106zm5.152 1.429c0 .322-.026.609-.076.862s-.129.467-.24.644a1.1 1.1 0 0 1-.431.404c-.178.092-.395.139-.649.139-.32 0-.583-.081-.788-.243s-.357-.398-.456-.704-.147-.675-.147-1.102.044-.799.134-1.105.238-.542.442-.706.476-.246.816-.246c.318 0 .58.082.786.246s.361.396.461.704.15.674.15 1.107zm-1.95 0c0 .304.016.557.049.761s.092.354.172.456.191.152.333.152a.4.4 0 0 0 .33-.15c.082-.101.14-.253.175-.455s.052-.458.052-.764a4.67 4.67 0 0 0-.052-.761c-.035-.204-.093-.356-.175-.458s-.19-.156-.33-.156-.253.052-.333.156-.137.254-.172.458-.049.457-.049.761zm4.386.464c0 .3-.029.594-.087.881s-.148.557-.27.816a3.02 3.02 0 0 1-.464.717h-.676a3.79 3.79 0 0 0 .425-.739c.115-.264.201-.538.259-.821s.087-.572.087-.86a4.25 4.25 0 0 0-.09-.872 4.19 4.19 0 0 0-.259-.83c-.115-.267-.257-.517-.428-.75h.682c.189.226.344.471.464.737a3.7 3.7 0 0 1 .27.832 4.49 4.49 0 0 1 .087.889z" class="H"/><path d="M32.126 129.193c.515 0 .89.111 1.127.333s.355.524.355.911c0 .175-.026.342-.079.502s-.139.299-.259.423-.276.222-.475.294-.443.107-.734.107h-.363v1.418h-.846v-3.988h1.274zm-.044.693h-.385v1.184h.278c.158 0 .296-.021.412-.063a.55.55 0 0 0 .27-.196c.064-.089.096-.204.096-.344 0-.196-.055-.342-.164-.436s-.278-.145-.507-.145zm2.836 3.295v-3.988h.846v3.988h-.846zm3.947 0h-.846v-3.284h-1.083v-.704h3.011v.704h-1.083v3.284zm3.949-3.341c-.162 0-.306.032-.431.095a.86.86 0 0 0-.314.27 1.3 1.3 0 0 0-.191.429 2.23 2.23 0 0 0-.066.564c0 .282.035.523.104.723s.18.35.327.456.337.155.57.155a2.23 2.23 0 0 0 .486-.054c.164-.037.341-.089.532-.156v.709c-.176.073-.35.125-.521.156s-.363.049-.575.049c-.411 0-.749-.085-1.015-.254s-.459-.409-.587-.715-.191-.665-.191-1.074a2.67 2.67 0 0 1 .123-.83c.082-.25.202-.468.36-.651s.354-.326.586-.426.5-.15.802-.15c.198 0 .396.025.595.076s.391.118.573.205l-.273.687c-.149-.071-.299-.132-.45-.185s-.299-.079-.445-.079zm5.695 3.341h-.843v-1.721h-1.579v1.721h-.846v-3.988h.846v1.563h1.579v-1.563h.843v3.988zm1.568 0v-3.988h.846v3.988h-.846zm5.946 0h-1.075l-1.735-3.017h-.025l.019.38.016.381.016.38v1.876h-.756v-3.988h1.067l1.732 2.987h.019l-.014-.368-.016-.366-.011-.365v-1.888h.761v3.988zm3.079-2.239h1.582v2.067c-.209.07-.426.125-.652.167s-.481.06-.767.06c-.396 0-.733-.078-1.009-.235s-.486-.387-.63-.693-.216-.681-.216-1.126c0-.418.08-.78.24-1.086s.397-.542.706-.709.69-.251 1.138-.251a2.91 2.91 0 0 1 .625.068 3.16 3.16 0 0 1 .559.177l-.281.677a2.15 2.15 0 0 0-.417-.156 1.93 1.93 0 0 0-.491-.062 1.19 1.19 0 0 0-.641.169c-.18.113-.32.271-.42.475s-.147.44-.147.714c0 .26.035.491.106.693s.183.357.336.472.352.169.597.169a2.34 2.34 0 0 0 .303-.016l.235-.038v-.832h-.756v-.704zm6.376-1.749c.515 0 .89.111 1.127.333s.355.524.355.911c0 .175-.026.342-.079.502s-.139.299-.259.423-.276.222-.475.294-.443.107-.734.107h-.363v1.418h-.846v-3.988h1.274zm-.044.693h-.385v1.184h.278c.158 0 .295-.021.412-.063a.55.55 0 0 0 .27-.196c.064-.089.096-.204.096-.344 0-.196-.055-.342-.164-.436s-.278-.145-.507-.145zm3.998-.693c.362 0 .66.044.895.131s.412.219.526.396.172.399.172.668a1.04 1.04 0 0 1-.104.477 1.09 1.09 0 0 1-.273.347 1.63 1.63 0 0 1-.365.232l1.173 1.737h-.938l-.952-1.53h-.45v1.53h-.846v-3.988h1.162zm-.06.693h-.256v1.078h.273c.28 0 .48-.047.6-.14a.49.49 0 0 0 .183-.414c0-.189-.066-.324-.196-.404s-.33-.12-.603-.12zm6.764 1.296c0 .307-.038.587-.115.84s-.193.467-.349.649-.351.322-.589.42-.52.145-.846.145-.607-.048-.846-.145-.436-.238-.592-.42-.27-.399-.346-.652-.115-.533-.115-.843c0-.412.067-.772.202-1.077s.346-.546.627-.715.64-.253 1.075-.253.788.084 1.067.253a1.53 1.53 0 0 1 .622.715c.136.307.205.668.205 1.083zm-2.91 0c0 .278.034.518.104.72s.181.355.33.464.342.161.578.161.435-.054.584-.161.257-.264.325-.464.104-.442.104-.72c0-.418-.078-.748-.235-.988s-.414-.36-.772-.36c-.238 0-.433.055-.584.164a.93.93 0 0 0-.33.464c-.069.2-.104.44-.104.72zm5.81-.24h1.582v2.067a4.85 4.85 0 0 1-.652.167c-.226.04-.481.06-.767.06-.396 0-.733-.078-1.009-.235s-.487-.387-.63-.693-.216-.681-.216-1.126c0-.418.08-.78.24-1.086a1.69 1.69 0 0 1 .707-.709c.311-.167.69-.251 1.138-.251a2.91 2.91 0 0 1 .625.068 3.16 3.16 0 0 1 .559.177l-.281.677a2.15 2.15 0 0 0-.417-.156 1.93 1.93 0 0 0-.491-.062 1.19 1.19 0 0 0-.641.169c-.18.113-.32.271-.42.475s-.147.44-.147.714c0 .26.035.491.106.693s.183.357.335.472.352.169.597.169a2.34 2.34 0 0 0 .303-.016l.235-.038v-.832h-.756v-.704zm4.255-1.749c.362 0 .66.044.895.131s.412.219.526.396.172.399.172.668a1.04 1.04 0 0 1-.104.477 1.09 1.09 0 0 1-.273.347 1.63 1.63 0 0 1-.365.232l1.173 1.737h-.938l-.952-1.53h-.45v1.53h-.846v-3.988h1.162zm-.06.693h-.256v1.078h.273c.28 0 .48-.047.6-.14a.49.49 0 0 0 .183-.414c0-.189-.066-.324-.196-.404s-.33-.12-.603-.12zm5.441 3.295h-2.297v-3.988h2.297v.693h-1.451v.876h1.35v.693h-1.35v1.028h1.451v.698zm3.747-1.107c0 .236-.057.442-.172.616a1.1 1.1 0 0 1-.502.404c-.218.095-.484.142-.797.142a3.02 3.02 0 0 1-.406-.027c-.131-.019-.257-.045-.379-.08s-.235-.08-.344-.133v-.786l.589.227a1.93 1.93 0 0 0 .605.101c.138 0 .249-.019.333-.055s.147-.086.185-.15.057-.136.057-.218a.36.36 0 0 0-.101-.257c-.067-.071-.16-.137-.278-.199l-.395-.199-.303-.158c-.109-.064-.213-.141-.311-.232a1.12 1.12 0 0 1-.243-.33c-.062-.131-.093-.287-.093-.469 0-.238.055-.442.164-.611s.265-.299.466-.388.444-.136.72-.136a2.33 2.33 0 0 1 .592.074 3.63 3.63 0 0 1 .592.207l-.273.657-.494-.172a1.63 1.63 0 0 0-.445-.062c-.105 0-.195.017-.27.052s-.131.08-.169.141-.057.13-.057.21c0 .095.027.175.082.241s.14.125.251.185l.42.21c.204.096.377.197.521.303a1.1 1.1 0 0 1 .335.368c.078.14.117.315.117.524zm3.636 0c0 .236-.057.442-.172.616a1.1 1.1 0 0 1-.502.404c-.218.095-.484.142-.797.142a3.02 3.02 0 0 1-.406-.027 2.86 2.86 0 0 1-.379-.08 2.29 2.29 0 0 1-.344-.133v-.786l.589.227a1.93 1.93 0 0 0 .606.101c.138 0 .249-.019.333-.055s.147-.086.186-.15.057-.136.057-.218a.36.36 0 0 0-.101-.257c-.067-.071-.16-.137-.278-.199l-.396-.199-.303-.158c-.109-.064-.213-.141-.311-.232a1.12 1.12 0 0 1-.243-.33 1.09 1.09 0 0 1-.093-.469c0-.238.055-.442.164-.611s.265-.299.466-.388.444-.136.72-.136a2.33 2.33 0 0 1 .592.074 3.63 3.63 0 0 1 .592.207l-.273.657-.494-.172a1.63 1.63 0 0 0-.445-.062c-.105 0-.195.017-.27.052s-.131.08-.169.141-.057.13-.057.21c0 .095.027.175.082.241s.14.125.251.185l.42.21c.204.096.377.197.521.303a1.1 1.1 0 0 1 .336.368c.078.14.117.315.117.524zm3.013-.423a4.49 4.49 0 0 1 .087-.889 3.7 3.7 0 0 1 .27-.832 3.31 3.31 0 0 1 .464-.737h.682c-.254.349-.448.735-.581 1.157a4.35 4.35 0 0 0-.196 1.296c0 .287.029.573.087.859s.145.557.259.821a4 4 0 0 0 .426.739h-.677a3.14 3.14 0 0 1-.464-.717 3.59 3.59 0 0 1-.27-.816c-.058-.287-.087-.581-.087-.881zm3.827-2.51a1.82 1.82 0 0 1 .633.107c.194.071.35.178.466.322s.175.32.175.534a.88.88 0 0 1-.096.42 1.04 1.04 0 0 1-.253.317c-.108.089-.23.167-.366.234a2.71 2.71 0 0 1 .404.262 1.25 1.25 0 0 1 .311.347.86.86 0 0 1 .122.463c0 .222-.059.415-.177.579s-.282.287-.491.376-.452.134-.728.134c-.298 0-.552-.043-.761-.128a1.05 1.05 0 0 1-.478-.366c-.109-.16-.163-.351-.163-.573 0-.182.033-.34.101-.474a1.1 1.1 0 0 1 .278-.347 1.86 1.86 0 0 1 .385-.251c-.119-.074-.227-.159-.325-.253a1.15 1.15 0 0 1-.232-.325c-.056-.122-.085-.262-.085-.42a.8.8 0 0 1 .178-.529c.12-.142.277-.249.472-.319s.404-.11.63-.11zm-.622 2.979c0 .144.051.263.153.358s.256.139.458.139c.209 0 .365-.045.469-.134a.45.45 0 0 0 .156-.357c0-.102-.03-.191-.09-.268s-.132-.144-.221-.204l-.27-.172-.074-.038a1.65 1.65 0 0 0-.306.177.79.79 0 0 0-.201.221c-.05.082-.074.175-.074.278zm.616-2.362a.54.54 0 0 0-.343.106c-.091.071-.137.171-.137.3 0 .091.022.171.066.24s.104.127.177.178.156.098.243.142a1.83 1.83 0 0 0 .234-.134.64.64 0 0 0 .178-.177c.045-.07.068-.152.068-.249 0-.129-.046-.229-.139-.3s-.207-.106-.347-.106zm5.153 1.429c0 .322-.026.609-.077.862s-.129.468-.24.644a1.1 1.1 0 0 1-.431.404c-.178.092-.394.139-.649.139-.32 0-.583-.081-.788-.243s-.358-.398-.456-.704-.147-.674-.147-1.102.044-.799.133-1.104.239-.543.442-.707.476-.245.816-.245c.318 0 .58.081.786.245s.361.396.461.704.15.674.15 1.107zm-1.951 0c0 .304.017.558.049.761s.092.354.172.456a.4.4 0 0 0 .333.153.4.4 0 0 0 .33-.15c.082-.102.14-.254.175-.456s.051-.458.051-.764-.017-.557-.051-.761-.093-.356-.175-.458-.19-.156-.33-.156-.253.052-.333.156-.137.255-.172.458-.049.458-.049.761zm4.997-1.994l-1.487 3.988h-.755l1.486-3.988h.756zm2.894 3.988h-.843v-2.307l.002-.235.009-.289.011-.27c-.02.023-.061.064-.123.123l-.169.152-.459.369-.406-.508 1.285-1.023h.693v3.988zm4.459 0h-2.788v-.586l1.001-1.012.486-.518c.123-.141.213-.268.267-.382a.82.82 0 0 0 .085-.369c0-.158-.045-.276-.134-.354a.5.5 0 0 0-.352-.12c-.154 0-.304.035-.45.106a2.33 2.33 0 0 0-.455.303l-.459-.543a4.35 4.35 0 0 1 .363-.278 1.71 1.71 0 0 1 .447-.21 2.02 2.02 0 0 1 .614-.082c.262 0 .487.047.674.142a1.05 1.05 0 0 1 .436.387c.102.162.153.346.153.551a1.38 1.38 0 0 1-.131.603 2.14 2.14 0 0 1-.382.54l-.6.592-.513.483v.038h1.738v.709zm3.734-1.994c0 .322-.026.609-.077.862s-.129.468-.24.644-.252.311-.431.404-.394.139-.649.139c-.32 0-.583-.081-.788-.243s-.358-.398-.456-.704-.147-.674-.147-1.102.045-.799.134-1.104.238-.543.442-.707.475-.245.815-.245c.318 0 .58.081.786.245s.361.396.461.704.15.674.15 1.107zm-1.951 0c0 .304.017.558.049.761s.092.354.172.456a.4.4 0 0 0 .333.153.4.4 0 0 0 .33-.15c.082-.102.14-.254.175-.456s.052-.458.052-.764-.018-.557-.052-.761-.093-.356-.175-.458-.19-.156-.33-.156-.253.052-.333.156-.137.255-.172.458-.049.458-.049.761zm4.386.464a4.44 4.44 0 0 1-.087.881 3.57 3.57 0 0 1-.27.816c-.12.26-.275.499-.464.717h-.676a3.73 3.73 0 0 0 .425-.739c.115-.264.201-.538.259-.821a4.31 4.31 0 0 0 .088-.859c0-.295-.03-.586-.091-.873s-.144-.564-.259-.83a3.76 3.76 0 0 0-.428-.75h.682c.189.226.344.471.464.737a3.68 3.68 0 0 1 .27.832c.058.289.087.585.087.889z" class="H"/><rect x="29.312" y="182.492" width="178.741" height="6.033" rx="3.017" class="B C K"/><rect x="30.629" y="144.918" width="178.741" height="6.033" rx="3.017" class="B C K"/><rect x="29.312" y="144.918" width="122.71" height="6.033" rx="3.017" class="B C H"/><rect x="29.312" y="182.492" width="44.926" height="6.033" rx="3.017" class="B C H"/><rect x="29.312" y="247.092" width="26.468" height="12.625" rx="6.313" class="B C K"/><rect x="63.589" y="247.092" width="81.84" height="12.625" rx="6.313" class="B C K"/><rect x="29.312" y="266.868" width="62.724" height="12.625" rx="6.313" class="B C K"/><path d="M31.976 226.786l-.289-.949h-1.454l-.289.949h-.911l1.408-4.004h1.034l1.413 4.004h-.911zm-.491-1.658l-.289-.928-.074-.237-.09-.297-.071-.265-.076.278-.09.311-.063.21-.286.928h1.039zm5.711-2.33v2.581a1.52 1.52 0 0 1-.183.744c-.12.22-.303.395-.548.524s-.551.194-.922.194c-.527 0-.929-.135-1.206-.404s-.415-.626-.415-1.069v-2.57h.843v2.442c0 .329.067.56.202.692s.334.2.597.2c.185 0 .335-.032.45-.096a.57.57 0 0 0 .256-.295c.055-.132.082-.301.082-.507v-2.436h.843zm4.844 1.956c0 .449-.086.825-.259 1.127a1.63 1.63 0 0 1-.745.679c-.325.151-.717.226-1.176.226h-1.129v-3.988h1.252c.418 0 .781.075 1.088.224a1.61 1.61 0 0 1 .715.657c.169.289.254.648.254 1.075zm-.878.022c0-.295-.044-.537-.131-.726s-.213-.332-.382-.423a1.3 1.3 0 0 0-.622-.136h-.45v2.597h.363c.413 0 .719-.11.919-.33s.303-.548.303-.982zm2.264 2.01v-3.988h.846v3.988h-.846zm4.705 0h-2.297v-3.988h2.297v.693h-1.451v.876h1.35v.693h-1.35v1.028h1.451v.698zm4.931 0h-1.075l-1.735-3.017h-.025l.019.379.016.382.016.379v1.877h-.756v-3.988h1.066l1.732 2.987h.019l-.014-.368-.016-.366-.011-.365v-1.888h.761v3.988zm3.259-3.341c-.162 0-.306.031-.431.095a.86.86 0 0 0-.314.27c-.084.118-.147.261-.191.428a2.25 2.25 0 0 0-.065.565c0 .282.035.523.104.723s.18.35.327.456.337.155.57.155a2.17 2.17 0 0 0 .486-.055c.164-.036.341-.088.532-.155v.709c-.176.073-.35.125-.521.156s-.363.049-.576.049c-.411 0-.749-.085-1.015-.254s-.459-.409-.587-.715-.191-.665-.191-1.074a2.67 2.67 0 0 1 .123-.83c.082-.251.202-.468.36-.652s.354-.325.587-.425.5-.15.802-.15c.198 0 .396.025.595.076a2.95 2.95 0 0 1 .573.205l-.273.687c-.149-.071-.299-.132-.45-.185s-.299-.079-.445-.079zm4.724 3.341h-2.297v-3.988h2.297v.693h-1.451v.876h1.35v.693h-1.35v1.028h1.451v.698zm3.747-1.107c0 .236-.057.442-.172.616a1.1 1.1 0 0 1-.502.404 2.01 2.01 0 0 1-.796.142c-.138 0-.274-.009-.407-.028s-.257-.044-.379-.079a2.4 2.4 0 0 1-.344-.133v-.786l.589.227a1.93 1.93 0 0 0 .605.1c.138 0 .249-.018.333-.054s.147-.086.185-.15.057-.137.057-.218a.36.36 0 0 0-.101-.257c-.067-.071-.16-.137-.278-.199l-.395-.199-.303-.158c-.109-.064-.213-.141-.311-.232a1.12 1.12 0 0 1-.243-.33c-.062-.131-.093-.287-.093-.469a1.1 1.1 0 0 1 .164-.611c.109-.169.265-.299.466-.388s.444-.136.72-.136c.207 0 .405.024.592.074a3.63 3.63 0 0 1 .592.207l-.273.657-.494-.172a1.63 1.63 0 0 0-.445-.062c-.105 0-.196.017-.27.051a.37.37 0 0 0-.169.142c-.038.06-.057.13-.057.21a.36.36 0 0 0 .082.24c.056.064.14.126.251.186l.42.21c.204.096.377.197.521.303a1.1 1.1 0 0 1 .336.368c.078.14.117.315.117.524zm3.013-.423a4.49 4.49 0 0 1 .087-.889c.058-.291.148-.569.27-.832a3.31 3.31 0 0 1 .464-.737h.682a3.97 3.97 0 0 0-.581 1.157 4.35 4.35 0 0 0-.196 1.295c0 .288.029.574.087.86a4.17 4.17 0 0 0 .259.821 3.98 3.98 0 0 0 .426.739h-.677a3.14 3.14 0 0 1-.464-.717 3.6 3.6 0 0 1-.27-.816c-.058-.287-.087-.581-.087-.881zm5.329.704h-.48v.826h-.824v-.826h-1.702v-.587l1.749-2.575h.778v2.507h.48v.655zm-1.304-.655v-.676l.003-.227.011-.262.011-.232.011-.144h-.022l-.109.218-.134.218-.731 1.105h.96zm4.814-1.615c0 .184-.038.343-.115.478s-.18.244-.311.33-.275.148-.436.188v.016c.32.04.563.138.728.295s.251.365.251.627c0 .233-.057.441-.172.625s-.287.328-.524.434-.541.158-.914.158a3.24 3.24 0 0 1-.617-.055 2.39 2.39 0 0 1-.535-.161v-.717a2.44 2.44 0 0 0 .537.199c.187.044.362.065.524.065.302 0 .513-.051.633-.155s.183-.253.183-.442a.46.46 0 0 0-.084-.281c-.056-.076-.155-.134-.295-.174a2.19 2.19 0 0 0-.581-.06h-.303v-.647h.308c.246 0 .432-.023.559-.068a.47.47 0 0 0 .262-.191c.047-.082.071-.175.071-.278 0-.142-.044-.253-.131-.333s-.233-.12-.436-.12c-.127 0-.244.016-.349.049s-.197.069-.281.115-.157.086-.221.128l-.39-.581a2.16 2.16 0 0 1 .548-.281c.211-.075.462-.112.753-.112.411 0 .737.083.977.248a.8.8 0 0 1 .36.701zm3.889 1.102c0 .322-.025.609-.076.862s-.129.468-.24.644a1.1 1.1 0 0 1-.431.404c-.178.092-.395.139-.649.139-.32 0-.583-.081-.788-.243s-.357-.398-.456-.704-.147-.674-.147-1.102.045-.799.134-1.105.238-.542.442-.706.475-.246.816-.246c.318 0 .58.082.786.246s.361.396.461.704.15.674.15 1.107zm-1.95 0c0 .304.016.558.049.761s.092.354.172.456.191.153.333.153a.4.4 0 0 0 .33-.15c.082-.102.14-.254.174-.456a4.68 4.68 0 0 0 .052-.764c0-.304-.017-.557-.052-.761s-.093-.356-.174-.458-.19-.156-.33-.156-.253.052-.333.156-.137.254-.172.458a4.91 4.91 0 0 0-.049.761zm4.811 3.167c-.109 0-.205-.006-.286-.019a1.6 1.6 0 0 1-.213-.041v-.704l.188.036a1.08 1.08 0 0 0 .21.019c.098 0 .186-.019.265-.057s.14-.107.186-.21.068-.253.068-.448v-3.737h.846v3.732c0 .342-.054.617-.161.826s-.254.364-.445.459-.408.144-.657.144zm6.445-3.172c0 .307-.038.587-.115.84s-.193.467-.349.649-.351.322-.589.42-.52.145-.846.145-.607-.048-.846-.145-.436-.238-.592-.42-.27-.399-.347-.652-.115-.534-.115-.843c0-.413.067-.772.202-1.077a1.54 1.54 0 0 1 .627-.715c.282-.169.64-.254 1.075-.254s.788.085 1.066.254.487.407.622.715.205.668.205 1.083zm-2.91 0c0 .278.035.518.104.72s.181.354.33.464.342.161.578.161.435-.054.584-.161.257-.264.325-.464.104-.442.104-.72c0-.419-.078-.748-.235-.988s-.414-.36-.772-.36c-.238 0-.433.055-.584.164a.93.93 0 0 0-.33.464c-.069.2-.104.44-.104.72zm7.542-1.989v2.581a1.52 1.52 0 0 1-.183.744c-.12.22-.303.395-.548.524s-.551.194-.922.194c-.527 0-.929-.135-1.206-.404s-.415-.626-.415-1.069v-2.57h.843v2.442c0 .329.067.56.202.692s.334.2.597.2c.185 0 .336-.032.45-.096a.57.57 0 0 0 .256-.295c.055-.132.082-.301.082-.507v-2.436h.843zm2.697 0c.362 0 .66.044.895.131s.412.219.526.396.172.399.172.668a1.04 1.04 0 0 1-.104.477 1.09 1.09 0 0 1-.273.347 1.63 1.63 0 0 1-.366.232l1.173 1.737h-.938l-.952-1.53h-.45v1.53h-.846v-3.988h1.162zm-.06.693h-.256v1.078h.273c.28 0 .48-.047.6-.14a.49.49 0 0 0 .183-.414c0-.189-.066-.324-.196-.404s-.33-.12-.603-.12zm6.682 3.295h-1.075l-1.734-3.017h-.025l.019.379.016.382.017.379v1.877h-.756v-3.988h1.067l1.732 2.987h.019l-.014-.368-.016-.366-.011-.365v-1.888h.761v3.988zm4.007 0l-.289-.949h-1.454l-.289.949h-.912l1.408-4.004h1.034l1.413 4.004h-.911zm-.491-1.658l-.289-.928-.074-.237-.09-.297-.071-.265-.076.278-.09.311-.063.21-.287.928h1.04zm2.465 1.658v-3.988h.846v3.29h1.617v.698h-2.463zm3.718 0v-3.988h.845v3.988h-.845zm4.762-1.107a1.1 1.1 0 0 1-.172.616c-.115.175-.282.309-.502.404s-.484.142-.797.142c-.138 0-.273-.009-.406-.028s-.257-.044-.379-.079-.235-.081-.344-.133v-.786l.589.227c.204.067.406.1.606.1.138 0 .249-.018.333-.054s.147-.086.185-.15a.42.42 0 0 0 .057-.218c0-.1-.033-.186-.101-.257s-.16-.137-.278-.199l-.395-.199-.303-.158c-.109-.064-.213-.141-.311-.232a1.13 1.13 0 0 1-.243-.33c-.062-.131-.093-.287-.093-.469 0-.239.055-.442.164-.611s.265-.299.467-.388.443-.136.72-.136a2.29 2.29 0 0 1 .592.074 3.65 3.65 0 0 1 .592.207l-.273.657-.494-.172a1.63 1.63 0 0 0-.445-.062.65.65 0 0 0-.27.051c-.074.033-.131.081-.169.142s-.057.13-.057.21c0 .095.027.175.082.24s.14.126.251.186l.42.21c.204.096.377.197.521.303s.257.226.335.368.118.315.118.524zm2.82 1.107h-.846v-3.284h-1.083v-.704h3.012v.704h-1.083v3.284zm4.609-1.107c0 .236-.057.442-.172.616s-.282.309-.502.404-.483.142-.796.142a2.88 2.88 0 0 1-.407-.028c-.131-.018-.257-.044-.379-.079a2.45 2.45 0 0 1-.344-.133v-.786l.59.227a1.92 1.92 0 0 0 .605.1c.138 0 .249-.018.333-.054s.147-.086.185-.15a.41.41 0 0 0 .058-.218c0-.1-.034-.186-.101-.257s-.16-.137-.278-.199l-.396-.199-.303-.158a1.82 1.82 0 0 1-.311-.232 1.11 1.11 0 0 1-.242-.33c-.062-.131-.093-.287-.093-.469 0-.239.054-.442.163-.611s.265-.299.467-.388.444-.136.72-.136c.207 0 .405.024.592.074a3.65 3.65 0 0 1 .592.207l-.273.657-.494-.172c-.145-.041-.293-.062-.444-.062-.106 0-.196.017-.27.051s-.131.081-.169.142-.058.13-.058.21c0 .095.028.175.082.24s.14.126.251.186l.42.21c.204.096.378.197.521.303s.258.226.336.368.117.315.117.524zm2.449-.423a4.44 4.44 0 0 1-.087.881c-.058.285-.148.557-.27.816s-.275.499-.464.717h-.677c.17-.229.311-.476.426-.739s.201-.538.259-.821a4.31 4.31 0 0 0 .087-.86 4.25 4.25 0 0 0-.09-.872c-.058-.288-.144-.564-.259-.83a3.76 3.76 0 0 0-.428-.75h.682c.189.226.344.471.464.737a3.68 3.68 0 0 1 .27.832c.058.289.087.585.087.889z" class="H"/><path transform="translate(17.826 .276)" d="M0 0h204.349v32.959H0z" class="H"/><path d="M28.999 10.89h3.413l5.127 8.649-1.714 2.899-6.825-11.547z" class="D"/><path d="M39.228 16.664l-3.386-.004 3.371-5.77 1.715 2.887-1.7 2.886z" class="D"/><path d="M48.274 22.447h-2.224v-.554c-.403.412-1.112.729-1.901.729-1.579 0-3.159-.95-3.159-2.961 0-1.836 1.515-2.754 3.432-2.754.774 0 1.273.159 1.628.333v-.412c0-.586-.403-1.061-1.209-1.061-1.015 0-1.547.143-2.321.554l-.854-1.52a5.76 5.76 0 0 1 3.174-.839c2.047 0 3.432 1.045 3.432 2.913v5.573h.001zm-2.224-2.438v-1.045c-.386-.237-.757-.348-1.547-.348-.838 0-1.289.38-1.289 1.045 0 .586.339 1.108 1.289 1.108.725 0 1.305-.364 1.547-.76z" class="D"/><path d="M52.733 22.437h-2.26V11.983l2.26-1.093v11.547z" class="D"/><path d="M62.215 18.299c0 2.549-1.629 4.323-3.838 4.323s-3.822-1.774-3.822-4.323 1.613-4.338 3.822-4.338 3.838 1.789 3.838 4.338zm-2.258 0c0-1.267-.516-2.232-1.581-2.232s-1.564.95-1.564 2.232.5 2.216 1.564 2.216 1.581-1.061 1.581-2.216z" class="D"/><path d="M70.502 20.025c0 1.916-1.556 2.597-3.468 2.597-1.344 0-2.657-.38-3.565-.966l.746-1.663c.907.491 1.863.76 2.949.76.875 0 1.134-.206 1.134-.633 0-.38-.308-.57-1.248-.839-2.041-.601-3.354-1.093-3.354-2.85 0-1.726 1.41-2.47 3.403-2.47 1.07 0 2.236.316 3.144.808l-.713 1.726c-.843-.444-1.766-.665-2.479-.665-.907 0-1.151.174-1.151.538 0 .348.259.491 1.766.966 1.523.49 2.836 1.028 2.836 2.691z" class="D"/><path d="M79.355 22.447h-2.243v-.554c-.406.412-1.122.729-1.918.729-1.593 0-3.186-.95-3.186-2.961 0-1.836 1.528-2.754 3.462-2.754.78 0 1.284.159 1.642.333v-.412c0-.586-.406-1.061-1.219-1.061-1.024 0-1.561.143-2.341.554l-.862-1.52c.991-.554 1.821-.839 3.202-.839 2.064 0 3.462 1.045 3.462 2.913v5.573h.001zm-2.243-2.438v-1.045c-.39-.237-.764-.348-1.56-.348-.845 0-1.3.38-1.3 1.045 0 .586.342 1.108 1.3 1.108.731 0 1.316-.364 1.56-.76z" class="D"/><path d="M88.774 22.436h-2.228v-4.491c0-1.487-.517-1.929-1.437-1.929s-1.453.443-1.453 1.882v4.538h-2.229v-8.302h2.228v.554c.387-.395 1.098-.728 1.986-.728 2.163 0 3.133 1.454 3.133 3.795v4.681z" class="D"/><rect x="30.63" y="49.994" width="87.773" height="15.921" rx="2.514" class="B C I"/><rect x="29.312" y="128.058" width="111.504" height="8.011" rx="2.514" class="B C I"/><rect x="29.312" y="166.012" width="74.589" height="8.011" rx="2.514" class="B C I"/><rect x="28.652" y="221.384" width="119.414" height="8.011" rx="2.514" class="B C I"/><rect x="27.334" y="316.966" width="52.177" height="8.011" rx="2.514" class="B C I"/><rect x="47.769" y="401.343" width="75.907" height="8.011" rx="2.514" class="B C I"/><rect x="30.63" y="80.976" width="20.535" height="19.217" rx="9.609" class="B C I"/><rect x="55.679" y="80.976" width="20.535" height="19.217" rx="9.609" class="B C I"/></g></g><path d="M22.71.466h194.466a4.81 4.81 0 0 1 4.81 4.81V439.28H17.9V5.276a4.81 4.81 0 0 1 4.81-4.81z" stroke-width=".38" class="B"/><path fill="url(#G)" d="M0 242.305h238.487v214.874H0z"/><g filter="url(#C)"><g filter="url(#D)"><rect x="178.275" y="58.127" width="272.725" height="111.674" rx="2.307" class="D"/><rect x="178.506" y="58.357" width="272.264" height="111.213" rx="2.077" stroke-width=".461" class="B"/></g><path d="M223.487 154.944c0 .445-.081.817-.244 1.116s-.397.522-.705.674-.679.224-1.117.224h-1.074v-3.953h1.193c.402 0 .748.074 1.038.222s.514.363.671.651.238.642.238 1.066zm-.484.016c0-.355-.06-.648-.179-.879a1.12 1.12 0 0 0-.519-.514c-.227-.113-.506-.17-.835-.17h-.663v3.166h.56c.544 0 .952-.134 1.225-.403s.411-.668.411-1.2zm3.85.511c0 .243-.032.46-.095.652s-.154.352-.273.484a1.19 1.19 0 0 1-.432.302 1.49 1.49 0 0 1-.571.103 1.41 1.41 0 0 1-.546-.103c-.164-.07-.307-.171-.427-.302a1.41 1.41 0 0 1-.279-.484c-.065-.192-.097-.409-.097-.652 0-.325.055-.6.165-.828a1.18 1.18 0 0 1 .47-.521 1.42 1.42 0 0 1 .733-.182 1.35 1.35 0 0 1 .708.182c.204.12.362.295.474.524s.17.502.17.825zm-2.255 0c0 .238.031.444.095.619s.16.31.292.406.301.143.508.143.374-.048.506-.143a.83.83 0 0 0 .294-.406c.063-.175.095-.381.095-.619a1.77 1.77 0 0 0-.095-.611c-.063-.173-.16-.307-.292-.4s-.302-.141-.511-.141c-.308 0-.534.102-.678.306s-.214.485-.214.846zm4.434-1.531c.352 0 .618.087.798.26s.27.447.27.827v1.931h-.443v-1.901c0-.247-.057-.432-.17-.554s-.284-.184-.517-.184c-.328 0-.559.093-.692.279s-.2.455-.2.808v1.552h-.449v-2.963h.362l.068.427h.024a.89.89 0 0 1 .241-.263 1.04 1.04 0 0 1 .327-.162c.121-.038.248-.057.381-.057zm3.134 0c.252 0 .469.056.649.168s.318.269.414.471.143.434.143.703v.278h-2.047c.006.348.092.613.26.795s.404.273.708.273a2.18 2.18 0 0 0 .498-.051c.144-.034.294-.085.449-.152v.395a2.2 2.2 0 0 1-.447.146 2.53 2.53 0 0 1-.519.046c-.285 0-.533-.058-.746-.173s-.375-.288-.492-.514-.176-.501-.176-.827c0-.319.053-.595.16-.827a1.24 1.24 0 0 1 .454-.541c.196-.126.427-.19.692-.19zm-.005.368a.74.74 0 0 0-.574.235c-.142.157-.227.376-.254.657h1.569c-.002-.176-.03-.331-.084-.465a.66.66 0 0 0-.241-.313c-.108-.076-.247-.114-.416-.114z" class="P"/><path d="M280.247 154.944c0 .445-.081.817-.243 1.116a1.58 1.58 0 0 1-.706.674c-.307.149-.679.224-1.117.224h-1.073v-3.953h1.192c.402 0 .748.074 1.038.222a1.53 1.53 0 0 1 .671.651c.159.287.238.642.238 1.066zm-.484.016c0-.355-.06-.648-.179-.879a1.12 1.12 0 0 0-.519-.514c-.227-.113-.505-.17-.835-.17h-.663v3.166h.56c.544 0 .953-.134 1.225-.403s.411-.668.411-1.2zm3.85.511c0 .243-.031.46-.094.652a1.35 1.35 0 0 1-.273.484c-.119.131-.264.232-.433.302a1.49 1.49 0 0 1-.571.103 1.41 1.41 0 0 1-.546-.103c-.164-.07-.306-.171-.427-.302a1.41 1.41 0 0 1-.279-.484c-.064-.192-.097-.409-.097-.652 0-.325.055-.6.165-.828s.267-.402.471-.521.449-.182.732-.182c.271 0 .507.061.709.182s.361.295.473.524.17.502.17.825zm-2.255 0c0 .238.032.444.095.619s.16.31.292.406.301.143.508.143.374-.048.506-.143a.84.84 0 0 0 .295-.406c.063-.175.094-.381.094-.619s-.031-.44-.094-.611-.161-.307-.292-.4-.302-.141-.512-.141c-.308 0-.534.102-.678.306s-.214.485-.214.846zm4.435-1.531c.351 0 .617.087.797.26s.271.447.271.827v1.931h-.444v-1.901c0-.247-.057-.432-.17-.554s-.284-.184-.517-.184c-.328 0-.558.093-.692.279s-.2.455-.2.808v1.552h-.449v-2.963h.363l.067.427h.025a.89.89 0 0 1 .24-.263c.097-.072.207-.126.327-.162s.248-.057.382-.057zm3.133 0c.253 0 .469.056.649.168s.318.269.414.471.143.434.143.703v.278h-2.047c.006.348.092.613.26.795s.404.273.708.273a2.18 2.18 0 0 0 .498-.051c.144-.034.294-.085.449-.152v.395a2.21 2.21 0 0 1-.446.146 2.53 2.53 0 0 1-.519.046c-.285 0-.534-.058-.747-.173s-.375-.288-.492-.514-.176-.501-.176-.827c0-.319.054-.595.16-.827a1.24 1.24 0 0 1 .454-.541c.197-.126.427-.19.692-.19zm-.005.368c-.24 0-.431.079-.573.235s-.227.376-.254.657h1.568c-.002-.176-.03-.331-.084-.465s-.132-.239-.241-.313-.247-.114-.416-.114z" class="P"/><path d="M335.034 156.958l1.622-3.542h-2.155v-.411h2.637v.346l-1.612 3.607h-.492zm3.907-2.417c.269 0 .502.046.701.138s.351.221.459.394a1.15 1.15 0 0 1 .165.63c0 .271-.058.504-.176.701s-.285.345-.505.451-.483.157-.79.157c-.205 0-.396-.018-.573-.054a1.42 1.42 0 0 1-.446-.162v-.427c.131.079.291.142.478.189a2.25 2.25 0 0 0 .547.07 1.32 1.32 0 0 0 .524-.095c.152-.064.269-.162.352-.292a.9.9 0 0 0 .127-.494c0-.264-.081-.466-.244-.609s-.414-.216-.762-.216c-.112 0-.234.009-.368.027l-.33.06-.227-.149.152-1.855h1.965v.411h-1.581l-.1 1.192.265-.043a2.52 2.52 0 0 1 .367-.024zm2.726-1.593c.27 0 .475.108.614.325s.21.518.21.911-.067.699-.202.919-.343.327-.622.327c-.26 0-.459-.109-.598-.327s-.205-.526-.205-.919.066-.697.197-.911.334-.325.606-.325zm0 .322c-.146 0-.253.077-.322.23s-.103.379-.103.684.035.534.103.689.176.233.322.233c.151 0 .264-.078.338-.233s.111-.385.111-.689-.037-.531-.111-.684-.185-.23-.338-.23zm2.504-.265l-2.193 3.953h-.395l2.193-3.953h.395zm-.106 1.528c.269 0 .473.108.614.324s.211.518.211.911-.068.697-.203.917-.342.327-.622.327a.66.66 0 0 1-.597-.327c-.137-.22-.206-.526-.206-.917s.065-.696.195-.911a.66.66 0 0 1 .608-.324zm0 .324c-.146 0-.253.076-.322.227s-.102.38-.102.684.034.535.102.69.176.23.322.23c.152 0 .264-.076.338-.228s.111-.383.111-.692c0-.303-.037-.53-.111-.681s-.185-.23-.338-.23z" class="P"/><path d="M396.965 153.005l-1.058 3.953h-.462l-.784-2.661-.068-.227-.057-.219-.046-.184-.024-.121c-.003.027-.011.066-.021.119l-.038.181-.054.219-.065.235-.763 2.658h-.462l-1.049-3.953h.478l.636 2.479.059.246.052.233.043.222.035.211.035-.219.046-.236.057-.24.068-.244.711-2.452h.473l.741 2.471.07.252.057.243.046.225.038.2.046-.279.062-.305.081-.33.635-2.477h.482zm1.665.941c.353 0 .616.079.787.238s.257.412.257.76v2.014h-.327l-.087-.438h-.021c-.083.108-.17.199-.26.273a.97.97 0 0 1-.314.165c-.117.036-.261.054-.432.054-.181 0-.341-.031-.482-.095a.75.75 0 0 1-.329-.286c-.08-.128-.119-.29-.119-.487 0-.295.117-.523.351-.681s.591-.245 1.071-.26l.511-.021V155c0-.256-.055-.435-.165-.538s-.265-.154-.465-.154a1.45 1.45 0 0 0-.444.068c-.14.045-.274.098-.4.159l-.138-.34a2.48 2.48 0 0 1 .46-.176c.173-.049.355-.073.546-.073zm.6 1.552l-.451.019c-.37.014-.63.075-.782.181a.52.52 0 0 0-.227.452c0 .169.052.294.154.375s.239.122.409.122c.263 0 .478-.073.646-.219s.251-.365.251-.657v-.273zm1.817-1.503v2.963h-.448v-2.963h.448zm-.219-1.109a.27.27 0 0 1 .19.073c.054.047.081.121.081.222s-.027.173-.081.221a.27.27 0 0 1-.19.073c-.077 0-.142-.024-.194-.073s-.076-.122-.076-.221.025-.175.076-.222.117-.073.194-.073zm2.128 3.758c.074 0 .15-.006.228-.019s.14-.028.189-.046v.349a.93.93 0 0 1-.219.06c-.092.016-.182.024-.271.024a1.09 1.09 0 0 1-.427-.081.66.66 0 0 1-.308-.281c-.076-.132-.114-.314-.114-.546v-1.758h-.421v-.219l.424-.176.179-.643h.27v.687h.868v.351h-.868v1.744c0 .186.042.325.127.416a.45.45 0 0 0 .343.138zm1.466-2.649v2.963h-.449v-2.963h.449zm-.219-1.109c.074 0 .137.024.189.073s.081.121.081.222-.027.173-.081.221-.115.073-.189.073-.143-.024-.195-.073-.076-.122-.076-.221.026-.175.076-.222.117-.073.195-.073zm2.574 1.054c.351 0 .617.087.798.26s.27.447.27.827v1.931h-.443v-1.901c0-.247-.057-.432-.171-.554s-.284-.184-.516-.184c-.328 0-.559.093-.692.279s-.201.455-.201.808v1.552h-.448v-2.963h.362l.068.427h.024a.88.88 0 0 1 .241-.263 1.04 1.04 0 0 1 .327-.162 1.26 1.26 0 0 1 .381-.057zm2.82 4.348c-.389 0-.689-.073-.9-.219s-.317-.347-.317-.608a.69.69 0 0 1 .176-.476c.119-.132.283-.219.492-.262-.077-.036-.144-.09-.2-.162s-.081-.155-.081-.249a.47.47 0 0 1 .089-.284.97.97 0 0 1 .279-.238c-.155-.063-.281-.17-.379-.319s-.143-.327-.143-.527c0-.213.044-.394.132-.544a.86.86 0 0 1 .384-.346c.168-.079.371-.119.609-.119.052 0 .104.003.157.008l.154.019c.048.007.091.016.127.027h1.016v.289l-.546.068a.94.94 0 0 1 .135.254.96.96 0 0 1 .055.33.89.89 0 0 1-.301.706c-.2.173-.475.259-.824.259a1.58 1.58 0 0 1-.254-.021c-.089.048-.156.102-.203.162a.33.33 0 0 0-.068.205c0 .058.017.104.052.138s.087.06.154.076a1.11 1.11 0 0 0 .24.022h.522c.323 0 .57.067.741.203s.26.332.26.592c0 .328-.134.579-.401.754s-.652.262-1.157.262zm.014-.351a2.04 2.04 0 0 0 .608-.076c.162-.049.283-.12.362-.214a.48.48 0 0 0 .122-.329c0-.119-.027-.209-.081-.271s-.133-.099-.238-.119a1.99 1.99 0 0 0-.384-.032h-.514c-.133 0-.249.021-.349.062s-.175.103-.229.184-.079.182-.079.303c0 .16.068.282.203.365s.328.127.579.127zm.116-2.369c.214 0 .376-.054.484-.162s.162-.266.162-.473c0-.222-.055-.388-.165-.498s-.272-.167-.486-.167c-.206 0-.365.057-.476.173s-.165.28-.165.5c0 .202.056.357.167.465s.272.162.479.162z" class="P"/><g clip-path="url(#I)" class="E F G J"><path d="M387.174 130.576h3.893"/><path d="M410.535 130.576h-3.893"/><path d="M390.588 138.832l2.751-2.752"/><path d="M407.107 122.323l-2.752 2.751"/><path d="M398.854 142.257v-3.893"/><path d="M398.854 118.896v3.893"/><path d="M407.107 138.832l-2.752-2.752"/><path d="M390.588 122.323l2.751 2.751"/></g><path d="M213.937 100.518c.425 0 .735.092.93.275s.293.433.293.753a1.33 1.33 0 0 1-.065.414c-.044.131-.115.248-.214.35s-.229.183-.392.243-.366.088-.607.088h-.299v1.172h-.699v-3.295h1.053zm-.037.573h-.317v.978h.23a1.02 1.02 0 0 0 .34-.052c.096-.035.17-.089.223-.163s.079-.168.079-.283c0-.163-.045-.283-.135-.361s-.23-.119-.42-.119zm2.343 2.722v-3.295h.699v2.718h1.336v.577h-2.035zm5.088 0l-.239-.785h-1.201l-.239.785h-.752l1.162-3.308h.854l1.167 3.308h-.752zm-.406-1.37l-.239-.767-.06-.196-.075-.245-.058-.219-.064.23-.074.257-.052.173-.236.767h.858zm4.959 1.37h-.888l-1.433-2.493h-.02l.016.314.013.315.014.313v1.551h-.624v-3.295h.881l1.431 2.468h.015l-.011-.305-.014-.302-.009-.301v-1.56h.629v3.295zm4.215 0h-.887l-1.433-2.493h-.021l.016.314.014.315.013.313v1.551h-.624v-3.295h.881l1.431 2.468h.016l-.012-.305-.013-.302-.009-.301v-1.56h.628v3.295zm1.293 0v-3.295h.699v3.295h-.699zm4.912 0h-.888l-1.433-2.493h-.02l.016.314.013.315.014.313v1.551h-.624v-3.295h.881l1.43 2.468h.016l-.011-.305-.014-.302-.009-.301v-1.56h.629v3.295zm2.543-1.85h1.307v1.708c-.172.057-.352.103-.538.137s-.397.05-.633.05c-.328 0-.606-.065-.834-.194a1.25 1.25 0 0 1-.521-.572c-.118-.253-.178-.563-.178-.931 0-.346.067-.644.199-.897a1.4 1.4 0 0 1 .583-.586c.257-.138.57-.207.94-.207a2.42 2.42 0 0 1 .516.056c.17.038.324.087.462.147l-.232.559c-.101-.051-.216-.094-.345-.129s-.264-.052-.406-.052c-.202 0-.379.047-.529.14a.94.94 0 0 0-.347.392 1.34 1.34 0 0 0-.122.59 1.74 1.74 0 0 0 .088.573.82.82 0 0 0 .277.39c.126.093.291.139.494.139.099 0 .182-.004.25-.013l.194-.032v-.687h-.625v-.581z" class="L"/><path d="M273.121 101.052c-.133 0-.252.027-.356.079s-.188.126-.259.223-.122.216-.158.354-.054.294-.054.466c0 .233.029.432.086.598s.149.289.27.376.279.128.471.128a1.82 1.82 0 0 0 .401-.045c.135-.03.282-.073.44-.128v.586c-.146.06-.289.103-.431.128s-.299.041-.475.041c-.34 0-.619-.07-.838-.21a1.26 1.26 0 0 1-.485-.59c-.105-.254-.158-.55-.158-.888 0-.249.034-.478.102-.685a1.56 1.56 0 0 1 .297-.539c.131-.151.292-.268.485-.351s.413-.124.662-.124c.164 0 .328.021.491.063a2.47 2.47 0 0 1 .474.169l-.226.568a3.47 3.47 0 0 0-.372-.153c-.124-.044-.247-.066-.367-.066zm4.995 1.109c0 .254-.031.485-.094.694a1.48 1.48 0 0 1-.289.536c-.128.15-.29.266-.487.347s-.429.12-.698.12-.502-.04-.699-.12-.359-.197-.489-.347-.223-.33-.286-.538a2.41 2.41 0 0 1-.094-.697c0-.341.055-.637.166-.89a1.28 1.28 0 0 1 .519-.59c.233-.14.528-.21.887-.21s.652.07.881.21.403.337.514.59.169.552.169.895zm-2.404 0c0 .23.029.428.086.595a.78.78 0 0 0 .272.383c.123.088.283.133.478.133s.359-.045.482-.133.213-.218.268-.383.086-.365.086-.595c0-.346-.065-.617-.194-.816s-.342-.297-.638-.297c-.196 0-.357.045-.482.135s-.214.216-.272.383-.086.364-.086.595zm6.471 1.652h-.888l-1.433-2.493h-.02l.016.314.013.315.014.313v1.551h-.625v-3.295h.881l1.431 2.468h.016l-.011-.305-.014-.302-.009-.301v-1.56h.629v3.295zm2.564 0h-.699V101.1h-.894v-.582h2.487v.582h-.894v2.713zm3.76 0h-1.897v-3.295h1.897v.573h-1.199v.723h1.115v.572h-1.115v.85h1.199v.577zm4.073 0h-.888l-1.433-2.493h-.02l.016.314.013.315.014.313v1.551h-.624v-3.295h.881l1.431 2.468h.015l-.011-.305-.013-.302-.009-.301v-1.56h.628v3.295zm2.564 0h-.699V101.1h-.894v-.582h2.487v.582h-.894v2.713z" class="L"/><path d="M329.694 100.518c.425 0 .735.092.93.275s.293.433.293.753a1.33 1.33 0 0 1-.065.414c-.044.131-.115.248-.214.35s-.229.183-.392.243-.366.088-.607.088h-.299v1.172h-.699v-3.295h1.053zm-.037.573h-.317v.978h.23a1.02 1.02 0 0 0 .34-.052c.096-.035.17-.089.223-.163s.079-.168.079-.283c0-.163-.045-.283-.135-.361s-.23-.119-.42-.119zm2.343 2.722v-3.295h.699v3.295H332zm3.26 0h-.698V101.1h-.895v-.582h2.488v.582h-.895v2.713zm3.263-2.761a.78.78 0 0 0-.356.079.7.7 0 0 0-.259.223c-.07.098-.122.216-.158.354s-.054.294-.054.466a1.85 1.85 0 0 0 .085.598c.059.163.149.289.271.376s.278.128.471.128c.133 0 .267-.015.401-.045s.281-.073.439-.128v.586c-.146.06-.289.103-.43.128s-.3.041-.476.041c-.339 0-.619-.07-.838-.21a1.26 1.26 0 0 1-.484-.59c-.106-.254-.158-.55-.158-.888 0-.249.034-.478.101-.685a1.56 1.56 0 0 1 .298-.539 1.32 1.32 0 0 1 .484-.351c.192-.083.413-.124.663-.124.163 0 .327.021.491.063s.323.097.473.169l-.225.568a3.47 3.47 0 0 0-.372-.153 1.1 1.1 0 0 0-.367-.066zm4.704 2.761h-.696v-1.422h-1.305v1.422h-.698v-3.295h.698v1.291h1.305v-1.291h.696v3.295zm1.295 0v-3.295h.699v3.295h-.699zm4.912 0h-.888l-1.433-2.493h-.02l.015.314.014.315.013.313v1.551h-.624v-3.295h.881l1.431 2.468h.016l-.011-.305-.014-.302-.009-.301v-1.56h.629v3.295zm2.543-1.85h1.307v1.708c-.173.057-.352.103-.538.137s-.398.05-.634.05c-.327 0-.605-.065-.833-.194s-.402-.32-.521-.572-.178-.563-.178-.931c0-.346.066-.644.198-.897a1.41 1.41 0 0 1 .584-.586c.257-.138.57-.207.94-.207a2.42 2.42 0 0 1 .516.056 2.61 2.61 0 0 1 .462.147l-.233.559a1.79 1.79 0 0 0-.344-.129 1.59 1.59 0 0 0-.406-.052c-.203 0-.379.047-.529.14s-.265.224-.347.392a1.34 1.34 0 0 0-.122.59c0 .215.029.406.088.573s.151.295.277.39.291.139.493.139c.1 0 .183-.004.251-.013l.193-.032v-.687h-.624v-.581z" class="L"/><path d="M384.417 100.518c.299 0 .546.036.739.108s.341.181.435.327.142.33.142.552c0 .15-.028.282-.085.395a.92.92 0 0 1-.226.286c-.093.078-.194.142-.302.191l.969 1.436h-.775l-.786-1.265h-.372v1.265h-.699v-3.295h.96zm-.049.573h-.212v.89h.225c.232 0 .397-.039.496-.115s.151-.193.151-.343c0-.156-.054-.267-.162-.333s-.273-.099-.498-.099zm4.494 2.722h-1.897v-3.295h1.897v.573h-1.198v.723h1.115v.572h-1.115v.85h1.198v.577zm2.204-3.295c.425 0 .735.092.93.275s.293.433.293.753a1.33 1.33 0 0 1-.065.414c-.044.131-.115.248-.214.35s-.229.183-.392.243-.366.088-.606.088h-.3v1.172h-.699v-3.295h1.053zm-.036.573h-.318v.978h.23a1.02 1.02 0 0 0 .34-.052c.096-.035.17-.089.223-.163s.079-.168.079-.283c0-.163-.045-.283-.135-.361s-.23-.119-.419-.119zm5.333 1.07c0 .254-.032.485-.095.694s-.159.386-.288.536-.29.266-.487.347-.43.12-.699.12-.501-.04-.698-.12a1.27 1.27 0 0 1-.489-.347c-.128-.15-.223-.33-.286-.538s-.095-.441-.095-.697c0-.341.056-.637.167-.89s.285-.45.518-.59.529-.21.888-.21.651.07.881.21.402.337.514.59.169.552.169.895zm-2.405 0c0 .23.029.428.086.595a.78.78 0 0 0 .273.383c.123.088.282.133.477.133s.359-.045.483-.133a.76.76 0 0 0 .268-.383c.057-.167.085-.365.085-.595 0-.346-.064-.617-.194-.816s-.341-.297-.637-.297c-.197 0-.358.045-.482.135s-.214.216-.273.383-.086.364-.086.595zm4.509-1.643c.299 0 .545.036.739.108s.34.181.435.327.142.33.142.552c0 .15-.029.282-.086.395s-.132.208-.225.286-.194.142-.302.191l.969 1.436h-.776l-.786-1.265h-.372v1.265h-.698v-3.295h.96zm-.05.573h-.212v.89h.226c.231 0 .396-.039.495-.115s.151-.193.151-.343c0-.156-.054-.267-.162-.333s-.273-.099-.498-.099zm3.868 2.722h-.698V101.1h-.895v-.582h2.488v.582h-.895v2.713zm1.863 0v-3.295h.699v3.295h-.699zm4.912 0h-.888l-1.433-2.493h-.02l.016.314.013.315.014.313v1.551h-.624v-3.295h.881l1.43 2.468h.016l-.011-.305-.014-.302-.009-.301v-1.56h.629v3.295zm2.544-1.85h1.306v1.708c-.172.057-.352.103-.538.137s-.397.05-.633.05c-.328 0-.606-.065-.834-.194s-.402-.32-.52-.572-.179-.563-.179-.931c0-.346.067-.644.199-.897a1.4 1.4 0 0 1 .583-.586c.257-.138.57-.207.94-.207a2.42 2.42 0 0 1 .516.056c.17.038.324.087.462.147l-.232.559c-.101-.051-.216-.094-.345-.129s-.264-.052-.406-.052c-.202 0-.379.047-.529.14a.94.94 0 0 0-.347.392 1.34 1.34 0 0 0-.122.59 1.74 1.74 0 0 0 .088.573.82.82 0 0 0 .277.39c.126.093.291.139.494.139.099 0 .182-.004.25-.013l.194-.032v-.687h-.624v-.581z" class="L"/><circle cx="226.729" cy="130.577" r="11.998" class="E M Q"/><path d="M222.114 130l3.691 5.191 5.538-9.229" stroke="#fff" class="F G"/><mask id="A" class="D"><path d="M353.631 130.577a12.46 12.46 0 0 0-7.692-11.512c-2.276-.943-4.781-1.189-7.198-.709a12.47 12.47 0 0 0-9.79 9.79c-.48 2.417-.234 4.922.709 7.199a12.46 12.46 0 0 0 11.511 7.691v-3.75a8.71 8.71 0 0 1-4.838-1.468c-1.433-.957-2.549-2.317-3.208-3.908s-.832-3.343-.496-5.033a8.71 8.71 0 0 1 6.843-6.843 8.71 8.71 0 0 1 5.032.496 8.7 8.7 0 0 1 3.909 3.208 8.71 8.71 0 0 1 1.468 4.839h3.75z"/></mask><path d="M353.631 130.577a12.46 12.46 0 0 0-7.692-11.512c-2.276-.943-4.781-1.189-7.198-.709a12.47 12.47 0 0 0-9.79 9.79c-.48 2.417-.234 4.922.709 7.199a12.46 12.46 0 0 0 11.511 7.691v-3.75a8.71 8.71 0 0 1-4.838-1.468c-1.433-.957-2.549-2.317-3.208-3.908s-.832-3.343-.496-5.033a8.71 8.71 0 0 1 6.843-6.843 8.71 8.71 0 0 1 5.032.496 8.7 8.7 0 0 1 3.909 3.208 8.71 8.71 0 0 1 1.468 4.839h3.75z" stroke-width="1.846" mask="url(#A)" class="E M"/><circle cx="283.489" cy="130.577" r="11.998" class="E M Q"/><path d="M278.874 130l3.692 5.191 5.537-9.229" stroke="#fff" class="F G"/><circle cx="283.489" cy="130.577" r="11.998" class="E M Q"/><path d="M278.874 130l3.692 5.191 5.537-9.229" stroke="#fff" class="F G"/><rect x="203.655" y="86.737" width="221.503" height="4.615" rx="2.307" class="K"/><rect x="203.655" y="86.737" width="152.283" height="4.615" rx="2.307" class="M"/><path d="M200.481 73.725l.687-1.356h.753l-1.093 2.012v1.282h-.694v-1.26l-1.093-2.035h.757l.683 1.356zm5.306.286c0 .254-.032.485-.095.694s-.159.386-.288.536-.29.266-.487.347-.43.119-.698.119a1.86 1.86 0 0 1-.699-.119 1.27 1.27 0 0 1-.489-.347c-.128-.15-.223-.33-.286-.539s-.095-.441-.095-.696c0-.341.056-.638.167-.89s.285-.451.518-.59.529-.21.888-.21.651.07.881.21.403.337.514.59.169.552.169.895zm-2.404 0c0 .23.028.428.085.595s.15.293.273.383.282.133.478.133.359-.044.482-.133a.76.76 0 0 0 .268-.383c.057-.167.085-.365.085-.595 0-.346-.064-.617-.193-.816s-.342-.297-.638-.297c-.197 0-.357.045-.482.135s-.214.216-.273.383-.085.363-.085.595zm6.229-1.643v2.132c0 .227-.05.432-.151.615a1.06 1.06 0 0 1-.453.433c-.201.107-.455.16-.761.16-.436 0-.768-.111-.996-.334s-.343-.517-.343-.883v-2.123h.697v2.017c0 .272.055.463.166.572s.276.165.494.165c.153 0 .277-.026.372-.079a.47.47 0 0 0 .211-.243c.046-.11.068-.249.068-.419v-2.012h.696zm2.228 0c.299 0 .546.036.739.108s.341.181.435.327.142.33.142.552c0 .15-.028.282-.085.394a.9.9 0 0 1-.226.286c-.093.078-.194.142-.302.192l.969 1.435h-.775l-.786-1.264h-.372v1.264h-.699v-3.294h.96zm-.049.572h-.212v.89h.225c.232 0 .397-.038.496-.115s.151-.192.151-.342c0-.156-.054-.267-.162-.334s-.273-.099-.498-.099zm7.248 1.07c0 .254-.032.485-.095.694s-.159.386-.289.536-.289.266-.486.347a1.86 1.86 0 0 1-.699.119c-.269 0-.501-.04-.698-.119a1.27 1.27 0 0 1-.489-.347c-.128-.15-.223-.33-.286-.539s-.095-.441-.095-.696c0-.341.056-.638.167-.89a1.27 1.27 0 0 1 .518-.59c.233-.14.529-.21.888-.21s.651.07.881.21a1.27 1.27 0 0 1 .514.59c.112.254.169.552.169.895zm-2.405 0c0 .23.029.428.086.595a.78.78 0 0 0 .273.383c.123.089.282.133.477.133s.359-.044.482-.133.213-.218.269-.383.085-.365.085-.595c0-.346-.064-.617-.194-.816s-.341-.297-.637-.297a.8.8 0 0 0-.482.135c-.124.089-.214.216-.273.383s-.086.363-.086.595zm6.471 1.652h-.888l-1.433-2.492h-.02l.016.313.013.316.014.313v1.55h-.624v-3.294h.881l1.431 2.467h.015l-.011-.304-.013-.302-.009-.302v-1.559h.628v3.294zm2.544-1.85h1.307v1.708c-.173.057-.353.103-.539.137s-.397.05-.633.05c-.328 0-.606-.065-.834-.194s-.402-.32-.52-.572-.178-.563-.178-.931a1.91 1.91 0 0 1 .198-.897c.134-.252.328-.448.584-.586s.57-.207.939-.207a2.38 2.38 0 0 1 .516.056 2.52 2.52 0 0 1 .462.146l-.232.559a1.8 1.8 0 0 0-.345-.128 1.56 1.56 0 0 0-.405-.052c-.203 0-.38.047-.53.14a.94.94 0 0 0-.347.392c-.081.167-.122.364-.122.59 0 .215.03.406.088.572s.151.295.277.39.291.14.494.14c.099 0 .182-.005.25-.014l.194-.031v-.687h-.624v-.581zm5.544.198c0 .254-.031.485-.094.694s-.159.386-.289.536-.29.266-.486.347a1.86 1.86 0 0 1-.699.119c-.269 0-.502-.04-.698-.119a1.27 1.27 0 0 1-.489-.347c-.128-.15-.223-.33-.286-.539a2.37 2.37 0 0 1-.095-.696 2.18 2.18 0 0 1 .167-.89 1.27 1.27 0 0 1 .518-.59c.233-.14.529-.21.888-.21s.651.07.881.21.402.337.513.59.169.552.169.895zm-2.404 0c0 .23.029.428.086.595a.78.78 0 0 0 .272.383c.124.089.283.133.478.133s.359-.044.482-.133a.75.75 0 0 0 .268-.383c.058-.167.086-.365.086-.595 0-.346-.064-.617-.194-.816s-.341-.297-.637-.297c-.197 0-.358.045-.483.135s-.214.216-.272.383-.086.363-.086.595zm3.549 1.652v-3.294h.698v3.294h-.698zm4.911 0h-.888l-1.433-2.492h-.02l.016.313.013.316.014.313v1.55h-.624v-3.294h.881l1.431 2.467h.015l-.011-.304-.013-.302-.009-.302v-1.559h.628v3.294zm2.544-1.85h1.307v1.708c-.173.057-.353.103-.539.137s-.397.05-.633.05c-.328 0-.605-.065-.834-.194s-.402-.32-.52-.572-.178-.563-.178-.931a1.91 1.91 0 0 1 .198-.897c.134-.252.328-.448.584-.586s.57-.207.939-.207a2.38 2.38 0 0 1 .516.056 2.52 2.52 0 0 1 .462.146l-.232.559a1.8 1.8 0 0 0-.345-.128 1.56 1.56 0 0 0-.405-.052c-.203 0-.38.047-.53.14a.94.94 0 0 0-.347.392c-.081.167-.122.364-.122.59 0 .215.03.406.088.572s.151.295.277.39.291.14.494.14c.099 0 .182-.005.25-.014l.194-.031v-.687h-.624v-.581zm5.614-.91c-.134 0-.252.026-.356.079s-.189.125-.259.223a1.08 1.08 0 0 0-.158.354c-.036.138-.054.294-.054.466 0 .233.028.432.086.597s.148.289.27.376.279.128.471.128c.134 0 .267-.015.401-.045a3.81 3.81 0 0 0 .439-.129v.586a2.1 2.1 0 0 1-.43.128c-.141.027-.3.041-.475.041-.34 0-.619-.07-.839-.21s-.379-.338-.484-.59a2.31 2.31 0 0 1-.158-.888c0-.249.034-.478.102-.685s.166-.387.297-.538.292-.269.484-.352.414-.124.663-.124a1.97 1.97 0 0 1 .491.063 2.43 2.43 0 0 1 .473.169l-.225.568a3.69 3.69 0 0 0-.372-.153 1.11 1.11 0 0 0-.367-.065zm4.021 2.76l-.238-.784h-1.201l-.239.784h-.753l1.163-3.308h.854l1.167 3.308h-.753zm-.405-1.37l-.239-.766-.061-.196-.074-.246-.059-.219-.063.23-.074.257-.052.174-.237.766h.859zm3.431 1.37l-.793-2.585h-.02l.013.279.02.394.009.379v1.532h-.624v-3.294h.951l.78 2.519h.013l.827-2.519h.951v3.294h-.651v-1.559l.004-.358.016-.385.014-.277h-.021l-.849 2.58h-.64zm4.472-3.294c.425 0 .736.092.931.275s.293.433.293.752a1.33 1.33 0 0 1-.065.415c-.044.131-.115.247-.215.349s-.228.183-.392.243-.365.088-.606.088h-.299v1.172h-.699v-3.294h1.052zm-.036.572h-.317v.978h.229a1.01 1.01 0 0 0 .341-.052c.096-.035.17-.089.223-.162a.48.48 0 0 0 .079-.284c0-.162-.045-.282-.136-.361s-.229-.119-.419-.119zm4.36 2.722l-.239-.784h-1.201l-.239.784h-.752l1.162-3.308h.854l1.167 3.308h-.752zm-.406-1.37l-.239-.766-.06-.196-.075-.246-.058-.219-.063.23-.075.257-.052.174-.236.766h.858zm2.037 1.37v-3.294h.698v3.294h-.698zm3.239-1.85h1.307v1.708a4.07 4.07 0 0 1-.538.137c-.186.033-.398.05-.633.05-.328 0-.606-.065-.834-.194a1.25 1.25 0 0 1-.521-.572c-.118-.252-.178-.563-.178-.931a1.91 1.91 0 0 1 .199-.897c.133-.252.328-.448.583-.586s.57-.207.94-.207a2.38 2.38 0 0 1 .516.056 2.52 2.52 0 0 1 .462.146l-.232.559a1.8 1.8 0 0 0-.345-.128c-.129-.035-.264-.052-.406-.052-.202 0-.379.047-.529.14a.94.94 0 0 0-.347.392c-.081.167-.122.364-.122.59 0 .215.03.406.088.572s.151.295.277.39.291.14.494.14c.099 0 .182-.005.25-.014l.194-.031v-.687h-.625v-.581zm5.478 1.85h-.888l-1.433-2.492h-.02l.015.313.014.316.013.313v1.55h-.624v-3.294h.881l1.431 2.467h.016l-.011-.304-.014-.302-.009-.302v-1.559h.629v3.294z" class="L"/></g><g filter="url(#E)"><g filter="url(#F)"><rect x="125.146" y="206.886" width="194.072" height="138.134" rx="2.854" class="D"/><rect x="125.376" y="207.116" width="193.612" height="137.674" rx="2.624" stroke-width=".46" class="B"/></g><path d="M211.82 303.143c0-.64.049-1.224.146-1.75a5.74 5.74 0 0 1 .445-1.405c.195-.41.441-.755.738-1.036s.643-.494 1.041-.638.845-.217 1.341-.217c.214 0 .419.012.614.035s.367.057.515.1v.538c-.144-.05-.312-.089-.503-.117a3.84 3.84 0 0 0-.614-.046c-.672 0-1.235.156-1.692.468s-.806.77-1.048 1.387-.37 1.373-.398 2.283h.041a2.37 2.37 0 0 1 .474-.603 2.46 2.46 0 0 1 .767-.469c.308-.12.671-.181 1.089-.181.515 0 .958.103 1.328.31s.662.504.861.89.304.845.304 1.375c0 .57-.105 1.068-.316 1.493s-.507.757-.901.995-.861.351-1.411.351c-.468 0-.878-.096-1.229-.287s-.646-.458-.884-.802-.411-.741-.532-1.194-.176-.95-.176-1.48zm2.815 3.248c.644 0 1.144-.201 1.499-.603s.538-.979.538-1.721c0-.64-.164-1.145-.492-1.516s-.823-.561-1.486-.561c-.461 0-.859.091-1.194.275a2.12 2.12 0 0 0-.767.684c-.179.27-.269.535-.269.796 0 .246.035.519.105.82a3.04 3.04 0 0 0 .357.872c.168.277.39.505.667.685s.629.269 1.042.269zm9.02-6.187a2.07 2.07 0 0 1-.234 1.001 1.97 1.97 0 0 1-.644.708c-.27.184-.58.309-.931.375v.035c.671.086 1.184.306 1.539.662s.533.831.533 1.439c0 .48-.113.908-.339 1.282s-.568.669-1.025.884-1.022.316-1.709.316a6.12 6.12 0 0 1-1.293-.129 5.19 5.19 0 0 1-1.089-.357v-.579c.324.16.697.292 1.118.398a5.48 5.48 0 0 0 1.27.152c.827 0 1.442-.178 1.844-.533s.603-.839.603-1.439c0-.438-.108-.787-.322-1.048s-.517-.459-.907-.58-.841-.181-1.364-.181h-.937v-.521h.943c.441 0 .837-.068 1.188-.205s.628-.347.831-.62.31-.621.31-1.03c0-.531-.17-.931-.509-1.2s-.784-.404-1.346-.404c-.301 0-.584.031-.849.094s-.515.154-.761.275-.484.259-.726.427l-.304-.427c.336-.258.722-.47 1.159-.638s.933-.252 1.475-.252c.776 0 1.383.187 1.82.562s.656.886.656 1.533zm3.453-2.095c.57 0 .995.23 1.276.691s.421 1.122.421 1.984c0 .882-.146 1.553-.439 2.013s-.716.685-1.27.685a1.38 1.38 0 0 1-1.246-.696c-.285-.465-.428-1.132-.428-2.002s.145-1.534.433-1.99a1.4 1.4 0 0 1 1.253-.685zm0 .468c-.375 0-.661.184-.86.55s-.293.919-.293 1.657.095 1.289.287 1.668.48.562.854.562c.394 0 .689-.189.884-.568s.298-.936.298-1.662-.093-1.27-.28-1.645-.484-.562-.89-.562zm5.145-.345l-4.747 8.557h-.556l4.747-8.557h.556zm-.17 3.307c.562 0 .983.23 1.264.691s.427 1.121.427 1.984c0 .881-.146 1.551-.439 2.007s-.716.685-1.27.685a1.38 1.38 0 0 1-1.246-.691c-.285-.464-.428-1.131-.428-2.001s.145-1.534.433-1.99.713-.685 1.259-.685zm0 .468c-.379 0-.667.183-.866.55s-.293.915-.293 1.657c0 .733.096 1.287.287 1.662s.48.562.854.562c.394 0 .689-.188.884-.562s.299-.933.299-1.662c0-.722-.094-1.27-.281-1.645s-.482-.562-.884-.562z" fill="#000"/><path d="M196.202 231.25c0 .314-.039.6-.117.858a1.81 1.81 0 0 1-.357.664c-.158.186-.359.329-.602.429s-.532.148-.864.148-.621-.05-.864-.148-.445-.243-.605-.429-.276-.408-.354-.666a2.98 2.98 0 0 1-.117-.862c0-.421.069-.788.206-1.1a1.58 1.58 0 0 1 .641-.731c.288-.172.654-.259 1.098-.259s.806.087 1.09.259a1.57 1.57 0 0 1 .636.731c.139.314.209.682.209 1.106zm-2.974 0a2.27 2.27 0 0 0 .106.736c.072.204.185.362.337.474s.349.164.591.164.444-.055.596-.164a.94.94 0 0 0 .332-.474 2.27 2.27 0 0 0 .106-.736c0-.427-.08-.764-.24-1.009s-.423-.368-.789-.368c-.243 0-.442.056-.596.167s-.265.268-.337.474-.106.45-.106.736zm7.586-2.032l-1.385 4.075h-.943l-1.382-4.075h.872l.767 2.425.064.231.089.357.064.309a3.86 3.86 0 0 1 .059-.309l.086-.354.064-.234.772-2.425h.873zm3.433 4.075H201.9v-4.075h2.347v.708h-1.483v.895h1.38v.708h-1.38v1.05h1.483v.714zm2.611-4.075c.37 0 .674.045.914.134s.421.224.538.404.176.408.176.683c0 .186-.036.348-.106.488a1.13 1.13 0 0 1-.279.354 1.69 1.69 0 0 1-.374.237l1.199 1.775h-.959l-.973-1.564h-.459v1.564h-.864v-4.075h1.187zm-.061.708h-.262v1.101h.278c.286 0 .491-.047.613-.142s.187-.238.187-.424c0-.193-.067-.33-.201-.412s-.337-.123-.615-.123zm5.707 3.367l-.295-.97h-1.486l-.295.97h-.931l1.438-4.092h1.056l1.444 4.092h-.931zm-.502-1.695l-.295-.947-.075-.243-.092-.303-.073-.271-.078.284-.092.318-.064.215-.293.947h1.062zm2.519 1.695v-4.075h.864v3.361h1.653v.714h-2.517zm3.799 0v-4.075h.864v3.361h1.652v.714h-2.516zm7.153-4.075c.526 0 .909.114 1.151.34s.362.535.362.931c0 .179-.027.349-.08.513a1.13 1.13 0 0 1-.265.432c-.121.126-.283.227-.485.301a2.26 2.26 0 0 1-.75.109h-.371v1.449h-.864v-4.075h1.302zm-.045.708h-.393v1.21h.285c.161 0 .302-.022.42-.064s.211-.11.276-.201a.59.59 0 0 0 .098-.351c0-.201-.056-.35-.167-.446s-.285-.148-.519-.148zm4.086-.708c.369 0 .674.045.914.134a1.05 1.05 0 0 1 .538.404c.117.18.175.408.175.683 0 .186-.035.348-.106.488s-.163.257-.278.354a1.69 1.69 0 0 1-.374.237l1.199 1.775h-.959l-.973-1.564h-.46v1.564h-.864v-4.075h1.188zm-.062.708h-.262v1.101h.279c.286 0 .491-.047.613-.142s.187-.238.187-.424c0-.193-.067-.33-.201-.412s-.337-.123-.616-.123zm6.912 1.324c0 .314-.039.6-.117.858a1.81 1.81 0 0 1-.357.664c-.158.186-.359.329-.602.429s-.531.148-.864.148-.621-.05-.864-.148-.445-.243-.605-.429-.276-.408-.354-.666a2.98 2.98 0 0 1-.117-.862c0-.421.069-.788.206-1.1a1.58 1.58 0 0 1 .641-.731c.288-.172.654-.259 1.099-.259s.805.087 1.089.259a1.57 1.57 0 0 1 .636.731c.139.314.209.682.209 1.106zm-2.974 0a2.27 2.27 0 0 0 .106.736c.072.204.185.362.337.474s.349.164.591.164.444-.055.596-.164a.94.94 0 0 0 .332-.474 2.27 2.27 0 0 0 .106-.736c0-.427-.08-.764-.24-1.009s-.422-.368-.788-.368c-.244 0-.443.056-.597.167s-.265.268-.337.474-.106.45-.106.736zm5.936-.245h1.616v2.112c-.213.071-.435.128-.666.17s-.491.062-.783.062c-.405 0-.749-.08-1.031-.24s-.497-.396-.644-.708-.22-.696-.22-1.151c0-.427.082-.797.245-1.109s.406-.554.722-.725.705-.256 1.162-.256a2.98 2.98 0 0 1 .639.069 3.11 3.11 0 0 1 .571.182l-.287.691c-.125-.063-.267-.116-.427-.159s-.327-.064-.501-.064a1.21 1.21 0 0 0-.655.173c-.184.115-.327.276-.429.485a1.64 1.64 0 0 0-.151.73c0 .265.036.501.109.708s.186.365.343.482.359.173.61.173c.123 0 .226-.006.309-.017l.24-.039v-.85h-.772v-.719zm4.347-1.787c.37 0 .675.045.914.134s.421.224.538.404.176.408.176.683c0 .186-.035.348-.106.488s-.163.257-.279.354a1.68 1.68 0 0 1-.373.237l1.198 1.775h-.958l-.973-1.564h-.46v1.564h-.864v-4.075h1.187zm-.061.708h-.262v1.101h.279c.286 0 .49-.047.613-.142s.187-.238.187-.424c0-.193-.067-.33-.201-.412s-.337-.123-.616-.123zm5.56 3.367h-2.347v-4.075h2.347v.708h-1.483v.895h1.38v.708h-1.38v1.05h1.483v.714zm3.829-1.132a1.12 1.12 0 0 1-.176.63c-.117.179-.288.316-.513.413s-.494.145-.814.145c-.141 0-.279-.01-.415-.028s-.263-.046-.387-.081-.24-.083-.351-.137v-.802l.602.231c.208.069.414.103.618.103.141 0 .255-.018.34-.056s.151-.088.19-.153.058-.139.058-.223c0-.102-.034-.189-.103-.262a1.08 1.08 0 0 0-.284-.203l-.404-.204-.31-.161c-.111-.065-.217-.144-.317-.237a1.14 1.14 0 0 1-.248-.337c-.064-.134-.095-.294-.095-.48a1.13 1.13 0 0 1 .167-.624c.112-.173.27-.305.477-.396a1.79 1.79 0 0 1 .736-.139 2.38 2.38 0 0 1 .604.075c.194.048.395.119.605.212l-.279.671a4.59 4.59 0 0 0-.504-.175c-.149-.043-.3-.064-.454-.064a.64.64 0 0 0-.276.053c-.076.033-.134.081-.173.145s-.059.132-.059.214a.37.37 0 0 0 .084.246c.058.065.143.128.256.189l.43.215a3.21 3.21 0 0 1 .532.309 1.13 1.13 0 0 1 .343.376c.08.143.12.322.12.535zm3.714 0a1.12 1.12 0 0 1-.175.63c-.117.179-.288.316-.513.413s-.494.145-.814.145c-.141 0-.28-.01-.415-.028s-.263-.046-.388-.081-.239-.083-.351-.137v-.802l.602.231a1.96 1.96 0 0 0 .619.103c.141 0 .254-.018.34-.056s.15-.088.189-.153.059-.139.059-.223c0-.102-.034-.189-.103-.262a1.1 1.1 0 0 0-.284-.203l-.405-.204-.309-.161a1.85 1.85 0 0 1-.318-.237 1.16 1.16 0 0 1-.248-.337 1.12 1.12 0 0 1-.094-.48c0-.243.055-.451.167-.624s.27-.305.476-.396.454-.139.736-.139a2.38 2.38 0 0 1 .605.075 3.72 3.72 0 0 1 .605.212l-.279.671-.504-.175a1.63 1.63 0 0 0-.455-.064c-.107 0-.199.017-.276.053s-.133.081-.172.145-.059.132-.059.214a.37.37 0 0 0 .084.246c.057.065.143.128.256.189l.429.215a3.22 3.22 0 0 1 .533.309c.148.106.263.231.342.376s.12.322.12.535z" class="L"/><path d="M154.828 321.331a68.21 68.21 0 0 1 19.979-48.232c6.333-6.334 13.853-11.358 22.129-14.786s17.145-5.192 26.103-5.192a68.21 68.21 0 0 1 26.103 5.192 68.22 68.22 0 0 1 22.129 14.786c6.334 6.334 11.358 13.853 14.786 22.129a68.21 68.21 0 0 1 5.192 26.103h-23.153c0-5.917-1.166-11.776-3.43-17.243s-5.583-10.433-9.767-14.617a45.05 45.05 0 0 0-14.618-9.767 45.04 45.04 0 0 0-17.242-3.43 45.05 45.05 0 0 0-31.861 13.197c-4.183 4.184-7.502 9.151-9.767 14.617s-3.429 11.326-3.429 17.243h-23.154z" fill="#e0e0e0"/><path d="M154.828 321.331a68.2 68.2 0 0 1 8.924-33.73c5.848-10.28 14.269-18.863 24.436-24.905a68.21 68.21 0 0 1 67.449-1.282l-11.065 20.338a45.07 45.07 0 0 0-22.389-5.47c-7.811.149-15.45 2.325-22.165 6.317a45.06 45.06 0 0 0-22.036 38.732h-23.154z" class="M"/></g><defs><filter id="B" x="-10.626" y="-28.059" width="261.135" height="495.864" filterUnits="userSpaceOnUse" class="N"><feFlood result="A" class="O"/><feColorMatrix in="SourceAlpha" values="0 0 0 0 0 0 0 0 0 0 0 0 0 0 0 0 0 0 127 0" result="B"/><feOffset/><feGaussianBlur stdDeviation="14.168"/><feComposite in2="B" operator="out"/><feColorMatrix values="0 0 0 0 0 0 0 0 0 0 0 0 0 0 0 0 0 0 0.07 0"/><feBlend in2="A"/><feBlend in="SourceGraphic"/></filter><filter id="C" x="149.94" y="29.792" width="329.395" height="168.344" filterUnits="userSpaceOnUse" class="N"><feFlood result="A" class="O"/><feColorMatrix in="SourceAlpha" values="0 0 0 0 0 0 0 0 0 0 0 0 0 0 0 0 0 0 127 0" result="B"/><feOffset/><feGaussianBlur stdDeviation="14.168"/><feComposite in2="B" operator="out"/><feColorMatrix values="0 0 0 0 0 0 0 0 0 0 0 0 0 0 0 0 0 0 0.05 0"/><feBlend in2="A"/><feBlend in="SourceGraphic"/></filter><filter id="D" x="175.968" y="57.665" width="277.34" height="116.289" filterUnits="userSpaceOnUse" class="N"><feFlood result="A" class="O"/><feColorMatrix in="SourceAlpha" values="0 0 0 0 0 0 0 0 0 0 0 0 0 0 0 0 0 0 127 0"/><feOffset dy="1.84586"/><feGaussianBlur stdDeviation="1.154"/><feColorMatrix values="0 0 0 0 0 0 0 0 0 0 0 0 0 0 0 0 0 0 0.04 0"/><feBlend in2="A"/><feBlend in="SourceGraphic"/></filter><filter id="E" x="96.811" y="178.551" width="250.742" height="194.804" filterUnits="userSpaceOnUse" class="N"><feFlood result="A" class="O"/><feColorMatrix in="SourceAlpha" values="0 0 0 0 0 0 0 0 0 0 0 0 0 0 0 0 0 0 127 0" result="B"/><feOffset/><feGaussianBlur stdDeviation="14.168"/><feComposite in2="B" operator="out"/><feColorMatrix values="0 0 0 0 0 0 0 0 0 0 0 0 0 0 0 0 0 0 0.08 0"/><feBlend in2="A"/><feBlend in="SourceGraphic"/></filter><filter id="F" x="122.292" y="206.315" width="199.78" height="143.842" filterUnits="userSpaceOnUse" class="N"><feFlood result="A" class="O"/><feColorMatrix in="SourceAlpha" values="0 0 0 0 0 0 0 0 0 0 0 0 0 0 0 0 0 0 127 0"/><feOffset dy="2.2832"/><feGaussianBlur stdDeviation="1.427"/><feColorMatrix values="0 0 0 0 0 0 0 0 0 0 0 0 0 0 0 0 0 0 0.04 0"/><feBlend in2="A"/><feBlend in="SourceGraphic"/></filter><linearGradient id="G" x1="119.243" y1="242.305" x2="119.243" y2="457.179" gradientUnits="userSpaceOnUse"><stop stop-color="#fff" stop-opacity="0"/><stop offset=".49" stop-color="#fff"/></linearGradient><clipPath id="H"><path d="M17.71 5.276a5 5 0 0 1 5-5h194.466a5 5 0 0 1 5 5V439.47H17.71V5.276z" class="D"/></clipPath><clipPath id="I"><path transform="matrix(0 -1 1 0 386.395 143.036)" d="M0 0h24.919v24.919H0z" class="D"/></clipPath></defs></svg>